SplineFontDB: 3.0
FontName: Quicksand-Light
FullName: Quicksand Light
FamilyName: Quicksand
Weight: Light
Copyright: Copyright (c) 2011, Andrew Paglinawan (www.andrewpaglinawan.com), with Reserved Font Name "Quicksand".
Version: 001.001
ItalicAngle: 0
UnderlinePosition: -50
UnderlineWidth: 50
Ascent: 800
Descent: 200
LayerCount: 2
Layer: 0 0 "Back"  1
Layer: 1 0 "Fore"  0
NeedsXUIDChange: 1
FSType: 0
OS2Version: 0
OS2_WeightWidthSlopeOnly: 0
OS2_UseTypoMetrics: 0
CreationTime: 1318372931
ModificationTime: 1318373138
OS2TypoAscent: 0
OS2TypoAOffset: 1
OS2TypoDescent: 0
OS2TypoDOffset: 1
OS2TypoLinegap: 0
OS2WinAscent: 0
OS2WinAOffset: 1
OS2WinDescent: 0
OS2WinDOffset: 1
HheadAscent: 0
HheadAOffset: 1
HheadDescent: 0
HheadDOffset: 1
OS2Vendor: 'PfEd'
MarkAttachClasses: 1
DEI: 91125
GaspTable: 1 65535 15
Encoding: Custom
UnicodeInterp: none
NameList: Adobe Glyph List
DisplaySize: -48
AntiAlias: 1
FitToEm: 1
WinInfo: 50 25 10
BeginPrivate: 6
StdHW 4 [25]
StemSnapH 5 [25 ]
StdVW 4 [25]
StemSnapV 44 [25 29 35 44 66 86 105 110 115 155 180 199 ]
BlueValues 21 [0 0 498 498 700 701]
OtherBlues 11 [-214 -214]
EndPrivate
BeginChars: 277 188

StartChar: B
Encoding: 66 66 0
Width: 594
Flags: MW
HStem: 0 25<112.667 323 129 323 129 323> 363 27<129 277 277 296.667 129 323 129 277> 675 25<129 277 129 129>
VStem: 104 25<25 25 25 363 390 675> 420 26<532 532> 491 26<170.667 214.667 164.333 217.333>
LayerCount: 2
Fore
SplineSet
104 13 m 2
 104 687 l 2
 104 695.666992188 108.333007812 700 117 700 c 2
 277 700 l 2
 323.666992188 700 363.5 683.5 396.5 650.5 c 0
 429.5 617.5 446 578 446 532 c 0
 446 500.666992188 438.166992188 472 422.5 446 c 0
 406.833007812 420 385.666992188 399.666992188 359 385 c 1
 404.333007812 376.333007812 442 354.166992188 472 318.5 c 0
 502 282.833007812 517 239.833007812 517 189.5 c 0
 517 139.166992188 498.166992188 95 460.5 57 c 0
 422.833007812 19 377 0 323 0 c 2
 117 0 l 2
 108.333007812 0 104 4.3330078125 104 13 c 2
129 25 m 1
 323 25 l 2
 369.666992188 25 409.333007812 41.5 442 74.5 c 0
 474.666992188 107.5 491 147.333007812 491 194 c 0
 491 240.666992188 474.666992188 280.5 442 313.5 c 0
 409.333007812 346.5 369.666992188 363 323 363 c 2
 129 363 l 1
 129 25 l 1
129 390 m 1
 277 390 l 2
 316.333007812 390 349.833007812 403.833007812 377.5 431.5 c 0
 405.166992188 459.166992188 419.333007812 492.666992188 420 532 c 1
 419.333007812 570.666992188 405.166992188 604 377.5 632 c 0
 349.833007812 660 316.333007812 674.333007812 277 675 c 2
 129 675 l 1
 129 390 l 1
EndSplineSet
EndChar

StartChar: C
Encoding: 67 67 1
Width: 771
Flags: MW
HStem: 0 26<436 475.667 389.667 477.333> 684 26<389.667 476>
VStem: 73 26<310 401 310 404.333>
LayerCount: 2
Fore
SplineSet
647 97 m 0
 654.333007812 101.666992188 660.666992188 101.166992188 666 95.5 c 0
 671.333007812 89.8330078125 670.333007812 83.6669921875 663 77 c 0
 594.333007812 25.6669921875 518.666992188 0 436 0 c 0
 336 0.6669921875 250.5 35.6669921875 179.5 105 c 0
 108.5 174.333007812 73 257.833007812 73 355.5 c 0
 73 453.166992188 108.5 536.666992188 179.5 606 c 0
 250.5 675.333007812 336 710 436 710 c 0
 520.666992188 710 596.333007812 684.333007812 663 633 c 0
 670.333007812 627 671.666992188 621 667 615 c 0
 659.666992188 607.666992188 653.333007812 607 648 613 c 1
 586.666992188 660.333007812 516 684 436 684 c 0
 343.333007812 684 264 652 198 588 c 0
 132 524 99 446.5 99 355.5 c 0
 99 264.5 132 186.833007812 198 122.5 c 0
 264 58.1669921875 343.333007812 26 436 26 c 0
 515.333007812 26 585.666992188 49.6669921875 647 97 c 0
EndSplineSet
EndChar

StartChar: D
Encoding: 68 68 2
Width: 719
Flags: MW
HStem: 0 25<112.667 251 129 251 129 251> 675 25<129 251 129 129>
VStem: 104 25<25 25 25 675> 576 25<351 351>
LayerCount: 2
Fore
SplineSet
104 13 m 2
 104 687 l 2
 104 695.666992188 108.333007812 700 117 700 c 2
 251 700 l 2
 347.666992188 700 430.166992188 665.833007812 498.5 597.5 c 0
 566.833007812 529.166992188 601 446.666992188 601 350 c 0
 601 253.333007812 566.833007812 170.833007812 498.5 102.5 c 0
 430.166992188 34.1669921875 347.666992188 0 251 0 c 2
 117 0 l 2
 108.333007812 0 104 4.3330078125 104 13 c 2
129 25 m 1
 251 25 l 1
 341 26.3330078125 417.5 58.5 480.5 121.5 c 0
 543.5 184.5 575.333007812 261 576 351 c 1
 575.333007812 440.333007812 543.5 516.666992188 480.5 580 c 0
 417.5 643.333007812 341 675 251 675 c 2
 129 675 l 1
 129 25 l 1
EndSplineSet
EndChar

StartChar: E
Encoding: 69 69 3
Width: 593
Flags: MW
HStem: 0 25<112 489 129 489 129 489> 338 25<129 446 129 446> 675 25<129 489 129 129>
VStem: 104 25<25 338 363 675>
LayerCount: 2
Fore
SplineSet
489 0 m 2
 116 0 l 2
 108 0 104 4.3330078125 104 13 c 2
 104 687 l 2
 104 694.333007812 108 698.666992188 116 700 c 1
 489 700 l 2
 497 700 501 695.833007812 501 687.5 c 0
 501 679.166992188 497 675 489 675 c 2
 129 675 l 1
 129 363 l 1
 446 363 l 2
 454 363 458 358.833007812 458 350.5 c 0
 458 342.166992188 454 338 446 338 c 2
 129 338 l 1
 129 25 l 1
 489 25 l 2
 497 25 501 20.8330078125 501 12.5 c 0
 501 4.1669921875 497 0 489 0 c 2
EndSplineSet
EndChar

StartChar: F
Encoding: 70 70 4
Width: 605
Flags: MW
HStem: 0 21G<111.333 119.333> 338 25<128 446 128 446> 675 25<128 489 128 128>
VStem: 104 24<13 338 363 675>
LayerCount: 2
Fore
SplineSet
104 13 m 2
 104 687 l 2
 104 695.666992188 107.666992188 700 115 700 c 2
 489 700 l 2
 497 700 501 695.833007812 501 687.5 c 0
 501 679.166992188 497 675 489 675 c 2
 128 675 l 1
 128 363 l 1
 446 363 l 2
 454 363 458 358.833007812 458 350.5 c 0
 458 342.166992188 454 338 446 338 c 2
 128 338 l 1
 128 13 l 2
 128 4.3330078125 123.666992188 0 115 0 c 0
 107.666992188 0 104 4.3330078125 104 13 c 2
EndSplineSet
EndChar

StartChar: G
Encoding: 71 71 5
Width: 814
Flags: MW
HStem: 0 26<443 481.667 395.333 486> 332 26<435.333 666 437 652> 696 25<395.667 483.333>
VStem: 73 26<315.333 407.667 315.333 410.667> 652 26<95 332 332 332>
LayerCount: 2
Fore
SplineSet
652 332 m 1
 437 332 l 2
 433.666992188 332 430.666992188 333.333007812 428 336 c 0
 425.333007812 338.666992188 424 341.666992188 424 345 c 0
 424 348.333007812 425.333007812 351.333007812 428 354 c 0
 430.666992188 356.666992188 433.666992188 358 437 358 c 2
 666 358 l 2
 674 358 678 353.333007812 678 344 c 2
 678 90 l 2
 678 88.6669921875 677.666992188 87.6669921875 677 87 c 2
 677 85 l 2
 676.333007812 81.6669921875 675 79.3330078125 673 78 c 0
 605.666992188 26 529 0 443 0 c 0
 341 0.6669921875 253.833007812 36.1669921875 181.5 106.5 c 0
 109.166992188 176.833007812 73 261.666992188 73 361 c 0
 73 460.333007812 109.166992188 545.166992188 181.5 615.5 c 0
 253.833007812 685.833007812 341 721 443 721 c 0
 530.333007812 721 607 695 673 643 c 0
 681.094726562 637.217773438 681.983398438 630.740234375 675.666992188 623.567382812 c 0
 669.350585938 616.393554688 663.12890625 615.87109375 657 622 c 0
 595 671.333007812 523.666992188 696 443 696 c 0
 348.333007812 696 267.333007812 663.333007812 200 598 c 0
 132.666992188 532.666992188 99 453.833007812 99 361.5 c 0
 99 269.166992188 132.5 190.166992188 199.5 124.5 c 0
 266.5 58.8330078125 347.666992188 26 443 26 c 0
 520.333007812 26 590 49 652 95 c 1
 652 332 l 1
EndSplineSet
EndChar

StartChar: H
Encoding: 72 72 6
Width: 709
Flags: MW
HStem: 0 21G<112.667 118.667 535.333 543.667> 338 25<129 527 129 527> 680 20G<112.667 118.667 535.333 543.667>
VStem: 104 25<13 338 363 687> 527 25<13 338 338 338 363 687>
LayerCount: 2
Fore
SplineSet
527 13 m 2
 527 338 l 1
 129 338 l 1
 129 13 l 2
 129 9.6669921875 127.833007812 6.6669921875 125.5 4 c 0
 123.166992188 1.3330078125 120.333007812 0 117 0 c 0
 108.333007812 0 104 4.3330078125 104 13 c 2
 104 687 l 2
 104 695.666992188 108.333007812 700 117 700 c 0
 120.333007812 700 123.166992188 698.666992188 125.5 696 c 0
 127.833007812 693.333007812 129 690.333007812 129 687 c 2
 129 363 l 1
 527 363 l 1
 527 687 l 2
 527 695.666992188 531.166992188 700 539.5 700 c 0
 547.833007812 700 552 695.666992188 552 687 c 2
 552 13 l 2
 552 4.3330078125 547.833007812 0 539.5 0 c 0
 531.166992188 0 527 4.3330078125 527 13 c 2
EndSplineSet
EndChar

StartChar: I
Encoding: 73 73 7
Width: 305
Flags: MW
HStem: 0 21G<119.333 127.667> 680 20G<119.333 127.667>
VStem: 111 25<13 687>
LayerCount: 2
Fore
SplineSet
111 687 m 2
 111 695.666992188 115.166992188 700 123.5 700 c 0
 131.833007812 700 136 695.666992188 136 687 c 2
 136 13 l 2
 136 4.3330078125 131.833007812 0 123.5 0 c 0
 115.166992188 0 111 4.3330078125 111 13 c 2
 111 687 l 2
EndSplineSet
EndChar

StartChar: J
Encoding: 74 74 8
Width: 594
Flags: MW
HStem: 0 25<243.333 266 243.333 298.333> 680 20G<482.333 490.333>
VStem: 475 24<234 687>
LayerCount: 2
Fore
SplineSet
45 162 m 1
 41.2939453125 169.411132812 43.556640625 174.491210938 51.78515625 177.241210938 c 0
 60.0146484375 179.991210938 65.7529296875 177.577148438 69 170 c 0
 82.3330078125 127.333007812 107.166992188 92.5 143.5 65.5 c 0
 179.833007812 38.5 220.666992188 25 266 25 c 1
 323.333007812 26.3330078125 372.333007812 47.1669921875 413 87.5 c 0
 453.666992188 127.833007812 474.333007812 176.666992188 475 234 c 2
 475 687 l 2
 475 695.666992188 478.666992188 700 486 700 c 0
 494.666992188 700 499 695.666992188 499 687 c 2
 499 234 l 2
 499 169.333007812 476.333007812 114.166992188 431 68.5 c 0
 385.666992188 22.8330078125 330.666992188 0 266 0 c 0
 214.666992188 0 168.833007812 15.1669921875 128.5 45.5 c 0
 88.1669921875 75.8330078125 60.3330078125 114.666992188 45 162 c 1
EndSplineSet
EndChar

StartChar: K
Encoding: 75 75 9
Width: 715
Flags: MW
HStem: 0 21G<112.667 118.667 599.333 602.667> 679 20G<112.667 118.667>
VStem: 104 26<13 199 236 686>
LayerCount: 2
Fore
SplineSet
104 13 m 2
 104 686 l 2
 104 694.666992188 108.333007812 699 117 699 c 0
 120.333007812 699 123.333007812 697.5 126 694.5 c 0
 128.666992188 691.5 130 688.666992188 130 686 c 2
 130 236 l 1
 589 695 l 2
 593 698.333007812 597.333007812 699.166992188 602 697.5 c 0
 606.666992188 695.833007812 609.5 693 610.5 689 c 0
 611.5 685 610.333007812 681 607 677 c 2
 321 391 l 1
 608 22 l 2
 611.333007812 16.6669921875 611.833007812 11.6669921875 609.5 7 c 0
 607.166992188 2.3330078125 604.333007812 0 601 0 c 0
 597.666992188 0 593.666992188 1.6669921875 589 5 c 1
 303 373 l 1
 130 199 l 1
 130 13 l 2
 130 9.6669921875 128.666992188 6.6669921875 126 4 c 0
 123.333007812 1.3330078125 120.333007812 0 117 0 c 0
 108.333007812 0 104 4.3330078125 104 13 c 2
EndSplineSet
EndChar

StartChar: L
Encoding: 76 76 10
Width: 563
Flags: MW
HStem: 0 25<112.667 490 129 490 129 490> 680 20G<112.333 120.667>
VStem: 104 25<25 687 25 687 25 691.333>
LayerCount: 2
Fore
SplineSet
490 0 m 2
 117 0 l 2
 108.333007812 0 104 4.3330078125 104 13 c 2
 104 687 l 2
 104 695.666992188 108.166992188 700 116.5 700 c 0
 124.833007812 700 129 695.666992188 129 687 c 2
 129 25 l 1
 490 25 l 2
 498.666992188 25 503 20.8330078125 503 12.5 c 0
 503 4.1669921875 498.666992188 0 490 0 c 2
EndSplineSet
EndChar

StartChar: M
Encoding: 77 77 11
Width: 844
Flags: MW
HStem: 0 21G<112.333 120.667 674.333 680.333> 679 20G<114.333 117.5 674 680.333>
VStem: 104 25<13 650> 664 25<13 649 649 649>
LayerCount: 2
Fore
SplineSet
664 13 m 2
 664 649 l 1
 409 294 l 2
 405.666992188 290.666992188 402 289 398 289 c 2
 396 289 l 2
 390.666992188 289 387 290.666992188 385 294 c 2
 129 650 l 1
 129 13 l 2
 129 4.3330078125 124.833007812 0 116.5 0 c 0
 108.166992188 0 104 4.3330078125 104 13 c 2
 104 686 l 2
 104 689.333007812 105.333007812 692.333007812 108 695 c 0
 110.666992188 697.666992188 113.166992188 699 115.5 699 c 0
 119.5 699 124 697.333007812 129 694 c 1
 397 322 l 1
 665 694 l 2
 668.333007812 697.333007812 672 699 676 699 c 0
 684.666992188 699 689 694.666992188 689 686 c 2
 689 13 l 2
 689 4.3330078125 684.666992188 0 676 0 c 0
 672.666992188 0 669.833007812 1.3330078125 667.5 4 c 0
 665.166992188 6.6669921875 664 9.6669921875 664 13 c 2
EndSplineSet
EndChar

StartChar: N
Encoding: 78 78 12
Width: 771
Flags: MW
HStem: 0 21G<115.333 121 599 606>
VStem: 104 25<13 648> 589 25<8.6665 9 52 682>
LayerCount: 2
Fore
SplineSet
589 9 m 2
 129 648 l 1
 129 13 l 2
 129 4.3330078125 125 0 117 0 c 0
 113.666992188 0 110.666992188 1.3330078125 108 4 c 0
 105.333007812 6.6669921875 104 9.6669921875 104 13 c 2
 104 685 l 2
 104 689 105.666992188 692.666992188 109 696 c 1
 116.333007812 700 122.333007812 699.333007812 127 694 c 2
 589 52 l 1
 589 682 l 2
 589 685.333007812 590.333007812 688.333007812 593 691 c 0
 595.666992188 693.666992188 598.666992188 695 602 695 c 0
 610 695 614 690.666992188 614 682 c 2
 614 13 l 2
 614 4.3330078125 610 0 602 0 c 0
 596 0 592 2.6669921875 590 8 c 0
 589.333007812 8 589 8.3330078125 589 9 c 2
EndSplineSet
EndChar

StartChar: O
Encoding: 79 79 13
Width: 850
Flags: MW
HStem: -13 27<414 414> 684 26<371 457>
VStem: 73 27<349 349> 728 28<349 349>
LayerCount: 2
Fore
SplineSet
173 604.5 m 0
 239 674.833007812 319.166992188 710 413.5 710 c 0
 507.833007812 710 588.166992188 674.833007812 654.5 604.5 c 0
 720.833007812 534.166992188 754.666992188 449 756 349 c 1
 754.666992188 248.333007812 721 162.833007812 655 92.5 c 0
 589 22.1669921875 508.666992188 -13 414 -13 c 0
 319.333007812 -13 239 22.1669921875 173 92.5 c 0
 107 162.833007812 73.6669921875 248.333007812 73 349 c 1
 73.6669921875 449 107 534.166992188 173 604.5 c 0
414 14 m 1
 500 15.3330078125 573.666992188 48.5 635 113.5 c 0
 696.333007812 178.5 727.333007812 257 728 349 c 1
 727.333007812 441.666992188 696.333007812 520.666992188 635 586 c 0
 573.666992188 651.333007812 500 684 414 684 c 0
 328 684 254.166992188 651.333007812 192.5 586 c 0
 130.833007812 520.666992188 100 441.833007812 100 349.5 c 0
 100 257.166992188 130.666992188 178.5 192 113.5 c 0
 253.333007812 48.5 327.333007812 15.3330078125 414 14 c 1
EndSplineSet
EndChar

StartChar: P
Encoding: 80 80 14
Width: 583
Flags: MW
HStem: 0 21G<112.333 120.667> 311 26<129 322 129 322> 675 25<129 322 129 129>
VStem: 104 25<13 311 337 675> 491 26<481.667 528.333>
LayerCount: 2
Fore
SplineSet
104 13 m 2
 104 687 l 2
 104 695.666992188 108.333007812 700 117 700 c 2
 322 700 l 2
 375.333007812 700 421.166992188 681 459.5 643 c 0
 497.833007812 605 517 559 517 505 c 0
 517 451 498 405.166992188 460 367.5 c 0
 422 329.833007812 376 311 322 311 c 2
 129 311 l 1
 129 13 l 2
 129 4.3330078125 124.833007812 0 116.5 0 c 0
 108.166992188 0 104 4.3330078125 104 13 c 2
129 337 m 1
 322 337 l 2
 368.666992188 337 408.5 353.333007812 441.5 386 c 0
 474.5 418.666992188 491 458.333007812 491 505 c 0
 491 551.666992188 474.5 591.666992188 441.5 625 c 0
 408.5 658.333007812 368.666992188 675 322 675 c 2
 129 675 l 1
 129 337 l 1
EndSplineSet
EndChar

StartChar: Q
Encoding: 81 81 15
Width: 844
Flags: W
HStem: -148 25<627.333 674.667 627.333 677.333> -66 92<366.333 400.667> 1 25<359 400 400 409> 683 27<359 444>
VStem: 66 27<354 354> 711 25<318 400.667>
LayerCount: 2
Fore
SplineSet
789 -69 m 0xbc
 793 -65.6669921875 797.166992188 -65 801.5 -67 c 0
 811.4921875 -71.611328125 812.658203125 -79.2783203125 805 -90 c 1
 755 -128.666992188 703.666992188 -148 651 -148 c 0
 598.333007812 -148 540 -129 476 -91 c 0
 448.666992188 -74.3330078125 417.833007812 -66 383.5 -66 c 0
 349.166992188 -66 314.333007812 -74.3330078125 279 -91 c 0
 271 -95 264.833007812 -93 260.5 -85 c 0
 256.166992188 -77 258 -70.6669921875 266 -66 c 2xdc
 409 1 l 1
 400 1 l 2
 308.666992188 1 230.333007812 35.5 165 104.5 c 0
 99.6669921875 173.5 66.6669921875 256.666992188 66 354 c 1
 66.6669921875 452 99.6669921875 535.833007812 165 605.5 c 0
 230.333007812 675.166992188 309 710 401 710 c 0
 493 710 571.833007812 675.166992188 637.5 605.5 c 0
 703.166992188 535.833007812 736 452 736 354 c 0
 736 282 716.666992188 216.166992188 678 156.5 c 0
 639.333007812 96.8330078125 589 53.3330078125 527 26 c 1
 384 -41 l 1
 423.333007812 -41 458 -50.3330078125 488 -69 c 0
 549.333007812 -105 603.666992188 -123 651 -123 c 0
 698.333007812 -123 744.333007812 -105 789 -69 c 0xbc
183.5 587 m 0
 123.166992188 523 93 445.5 93 354.5 c 0
 93 263.5 123.166992188 186 183.5 122 c 0
 243.833007812 58 316.5 26 401.5 26 c 0
 486.5 26 559.333007812 58 620 122 c 0
 680.666992188 186 711 263.666992188 711 355 c 0
 711 446.333007812 680.666992188 523.833007812 620 587.5 c 0
 559.333007812 651.166992188 486.5 683 401.5 683 c 0
 316.5 683 243.833007812 651 183.5 587 c 0
EndSplineSet
EndChar

StartChar: R
Encoding: 82 82 16
Width: 625
Flags: W
HStem: 0 21G<98.3335 106.667> 311 26<115 238 115 310> 675 25<115 308 115 115>
VStem: 90 25<13 311 337 675> 465 25<127 172> 477 26<488 528.333>
LayerCount: 2
Fore
SplineSet
363 319 m 1xf4
 447.666992188 283.666992188 490 227.666992188 490 151 c 0
 490 103 495 69 505 49 c 0
 509 41 515 37.3330078125 523 38 c 0
 531 38.6669921875 535.666992188 35 537 27 c 0
 537.666992188 21 536.333007812 16.8330078125 533 14.5 c 0
 529.666992188 12.1669921875 525.333007812 11 520 11 c 0
 505.333007812 11 493.333007812 20 484 38 c 1
 471.333007812 59.3330078125 465 97 465 151 c 0xf8
 465 193 447 230.166992188 411 262.5 c 0
 375 294.833007812 317.333007812 311 238 311 c 2
 115 311 l 1
 115 13 l 2
 115 4.3330078125 110.833007812 0 102.5 0 c 0
 94.1669921875 0 90 4.3330078125 90 13 c 2
 90 687 l 2
 90 695.666992188 94.3330078125 700 103 700 c 2
 308 700 l 2
 361.333007812 700 407.166992188 681 445.5 643 c 0
 483.833007812 605 503 561.5 503 512.5 c 0
 503 463.5 490 421.833007812 464 387.5 c 0
 438 353.166992188 404.333007812 330.333007812 363 319 c 1xf4
115 337 m 1
 310 337 l 2
 356 337.666992188 395.333007812 354.166992188 428 386.5 c 0
 460.666992188 418.833007812 477 458.333007812 477 505 c 0
 477 551.666992188 460.5 591.666992188 427.5 625 c 0
 394.5 658.333007812 354.666992188 675 308 675 c 2
 115 675 l 1
 115 337 l 1
EndSplineSet
EndChar

StartChar: S
Encoding: 83 83 17
Width: 667
Flags: MW
HStem: -5 25<305.667 359.667 305.667 365.667> 678 26<300.667 360.074 297 366.333>
VStem: 110 26<519.545 557.333 519.545 561.564> 566 25<168.667 211.889>
LayerCount: 2
Fore
SplineSet
117 59 m 0
 92.7333984375 73.93359375 77.1669921875 84.8330078125 70.2998046875 91.7001953125 c 0
 63.43359375 98.56640625 60.8330078125 104.333007812 62.5 109 c 0
 64.1669921875 113.666992188 67 116.666992188 71 118 c 0
 75 119.333007812 79.3330078125 117.833007812 84 113.5 c 0
 88.6669921875 109.166992188 99.1669921875 101 115.5 89 c 0
 131.833007812 77 160.833007812 62.5 202.5 45.5 c 0
 244.166992188 28.5 285.333007812 20 326 20 c 0
 393.333007812 20 450.166992188 36.6669921875 496.5 70 c 0
 542.833007812 103.333007812 566 144.333007812 566 193 c 0
 566 230.77734375 555 259.444335938 533 279 c 0
 521 289.666992188 509.666992188 298.5 499 305.5 c 0
 488.333007812 312.5 472.833007812 319.333007812 452.5 326 c 0
 428.12109375 333.993164062 397.776367188 342.32421875 361.465820312 350.995117188 c 0
 325.155273438 359.665039062 300.333007812 365.833007812 287 369.5 c 0
 273.666992188 373.166992188 256 378.666992188 234 386 c 0
 212 393.333007812 195.166992188 401 183.5 409 c 0
 171.833007812 417 159.5 427 146.5 439 c 0
 122.166992188 461.461914062 110 494.91015625 110 539.345703125 c 0
 110 583.782226562 131.166992188 622.333007812 173.5 655 c 0
 215.833007812 687.666992188 267 704 327 704 c 0
 393.1484375 704 451.981445312 686.166992188 503.5 650.5 c 0
 522.690429688 637.213867188 534.857421875 626.713867188 540 619 c 1
 545.333007812 613 545 607 539 601 c 1
 531.666992188 596.333007812 525.666992188 596.666992188 521 602 c 0
 470.333007812 652.666992188 405.666992188 678 327 678 c 0
 274.333007812 678 229.333007812 664.333007812 192 637 c 0
 154.666992188 609.666992188 136 576.666992188 136 538 c 0
 136 501.090820312 150.166992188 469.7578125 178.5 444 c 0
 198.701171875 425.634765625 234.368164062 409.634765625 285.5 396 c 0
 300.5 392 321.833007812 386.833007812 349.5 380.5 c 0
 377.166992188 374.166992188 397.833007812 369.166992188 411.5 365.5 c 0
 425.166992188 361.833007812 443.166992188 356.333007812 465.5 349 c 0
 487.833007812 341.666992188 505 333.833007812 517 325.5 c 0
 529 317.166992188 541.5 306.833007812 554.5 294.5 c 0
 578.833007812 271.4140625 591 237.581054688 591 193 c 0
 591 137.666992188 565.5 90.8330078125 514.5 52.5 c 0
 463.5 14.1669921875 401.833007812 -5 329.5 -5 c 0
 257.166992188 -5 186.333007812 16.3330078125 117 59 c 0
EndSplineSet
EndChar

StartChar: T
Encoding: 84 84 18
Width: 648
Flags: MW
HStem: 0 21G<302.667 308.667> 675 25<58.6665 550 63 294 320 320 320 550>
VStem: 294 26<13 675>
LayerCount: 2
Fore
SplineSet
294 13 m 2
 294 675 l 1
 63 675 l 2
 54.3330078125 675 50 679.166992188 50 687.5 c 0
 50 695.833007812 54.3330078125 700 63 700 c 2
 550 700 l 2
 558.666992188 700 563 695.833007812 563 687.5 c 0
 563 679.166992188 558.666992188 675 550 675 c 2
 320 675 l 1
 320 13 l 2
 320 9.6669921875 318.666992188 6.6669921875 316 4 c 0
 313.333007812 1.3330078125 310.333007812 0 307 0 c 0
 298.333007812 0 294 4.3330078125 294 13 c 2
EndSplineSet
EndChar

StartChar: U
Encoding: 85 85 19
Width: 814
Flags: MW
HStem: 0 25<385 385> 680 20G<113.333 121.667 648.667 654.667>
VStem: 105 25<281 687> 640 26<281 687>
LayerCount: 2
Fore
SplineSet
105 281 m 2
 105 687 l 2
 105 695.666992188 109.166992188 700 117.5 700 c 0
 125.833007812 700 130 695.666992188 130 687 c 2
 130 281 l 2
 130 210.333007812 154.833007812 150.333007812 204.5 101 c 0
 254.166992188 51.6669921875 314.333007812 26.3330078125 385 25 c 1
 455 26.3330078125 514.833007812 51.6669921875 564.5 101 c 0
 614.166992188 150.333007812 639.333007812 210.333007812 640 281 c 2
 640 687 l 2
 640 695.666992188 644.333007812 700 653 700 c 0
 656.333007812 700 659.333007812 698.666992188 662 696 c 0
 664.666992188 693.333007812 666 690.333007812 666 687 c 2
 666 281 l 2
 666 203 638.5 136.666992188 583.5 82 c 0
 528.5 27.3330078125 462.333007812 0 385 0 c 0
 307.666992188 0 241.666992188 27.3330078125 187 82 c 0
 132.333007812 136.666992188 105 203 105 281 c 2
EndSplineSet
EndChar

StartChar: V
Encoding: 86 86 20
Width: 750
Flags: W
HStem: 0 21G<351 354 351 351> 1 21G<348 349 358 358 358 359>
LayerCount: 2
Fore
SplineSet
354 0 m 2x80
 351 0 l 1x80
 349 1 l 2
 347 1 344.666992188 3.3330078125 342 8 c 2
 59 681 l 2
 56.3330078125 685.666992188 56.5 689.666992188 59.5 693 c 0
 62.5 696.333007812 66.5 697.833007812 71.5 697.5 c 0
 76.5 697.166992188 80.3330078125 695 83 691 c 2
 354 46 l 1
 626 691 l 2
 628.666992188 699 634 701 642 697 c 1
 649.333007812 695 651.666992188 689.666992188 649 681 c 2
 366 8 l 1
 365 7 l 1
 364 4 362 2 359 1 c 1
 358 1 l 2x40
 357.333007812 0.3330078125 356 0 354 0 c 2x80
EndSplineSet
EndChar

StartChar: W
Encoding: 87 87 21
Width: 1102
Flags: MW
HStem: 0 21G<356.333 361.667 773.667 779.333>
LayerCount: 2
Fore
SplineSet
764 9 m 2
 568 478 l 1
 370 8 l 2
 368 2.6669921875 364.333007812 0 359 0 c 0
 353.666992188 0 349.666992188 2.6669921875 347 8 c 2
 64 681 l 1
 59.224609375 688.163085938 61.2978515625 693.421875 70.21875 696.778320312 c 0
 77.7880859375 698.680664062 83.3818359375 696.75390625 87 691 c 1
 358 45 l 1
 554 510 l 2
 556 516 560.333007812 519 567 519 c 1
 573 520.333007812 577.666992188 517.333007812 581 510 c 2
 776 45 l 1
 1048 691 l 2
 1050.66699219 695 1054.5 697.166992188 1059.5 697.5 c 0
 1064.5 697.833007812 1068.5 696.333007812 1071.5 693 c 0
 1074.5 689.666992188 1074.66699219 685.666992188 1072 681 c 2
 789 8 l 2
 786.333007812 2.6669921875 782.166992188 0 776.5 0 c 0
 770.833007812 0 766.666992188 3 764 9 c 2
EndSplineSet
EndChar

StartChar: X
Encoding: 88 88 22
Width: 722
Flags: MW
HStem: 0 21G<82.3335 85.6665 579 582>
LayerCount: 2
Fore
SplineSet
97 5 m 1
 91.6669921875 1.6669921875 87.3330078125 0 84 0 c 0
 80.6669921875 0 77.8330078125 2.3330078125 75.5 7 c 0
 73.1669921875 11.6669921875 73.6669921875 16 77 20 c 2
 317 349 l 1
 77 679 l 2
 73.6669921875 683 73.1669921875 687.166992188 75.5 691.5 c 0
 77.8330078125 695.833007812 81.1669921875 698.166992188 85.5 698.5 c 0
 89.8330078125 698.833007812 93.6669921875 697.333007812 97 694 c 2
 332 371 l 1
 568 694 l 2
 572.666992188 700 578.333007812 700.666992188 585 696 c 0
 591.666992188 691.333007812 593 685.666992188 589 679 c 2
 348 349 l 1
 589 20 l 2
 591 16 590.833007812 11.6669921875 588.5 7 c 0
 586.166992188 2.3330078125 583.5 0 580.5 0 c 0
 577.5 0 573.333007812 1.6669921875 568 5 c 1
 332 328 l 1
 97 5 l 1
EndSplineSet
EndChar

StartChar: Y
Encoding: 89 89 23
Width: 604
Flags: MW
HStem: 0 21G<312.333 320.667>
VStem: 304 25<13 342>
LayerCount: 2
Fore
SplineSet
304 13 m 2
 304 342 l 1
 59 679 l 1
 52.595703125 685.404296875 53.2626953125 690.836914062 61.0009765625 695.297851562 c 0
 68.73828125 699.759765625 74.73828125 699.327148438 79 694 c 2
 317 367 l 1
 554 694 l 2
 557.333007812 697.333007812 561.5 698.5 566.5 697.5 c 0
 571.5 696.5 575 694.166992188 577 690.5 c 0
 579 686.833007812 578.666992188 683 576 679 c 2
 329 342 l 1
 329 13 l 2
 329 4.3330078125 324.833007812 0 316.5 0 c 0
 308.166992188 0 304 4.3330078125 304 13 c 2
EndSplineSet
EndChar

StartChar: Z
Encoding: 90 90 24
Width: 667
Flags: MW
HStem: 0 25<79.6665 575 108 575 108 575> 673 26<79.6665 575 84 549>
LayerCount: 2
Fore
SplineSet
588 686 m 0
 588 682.666992188 586.333007812 679.333007812 583 676 c 2
 108 25 l 1
 575 25 l 2
 583.666992188 25 588 20.8330078125 588 12.5 c 0
 588 4.1669921875 583.666992188 0 575 0 c 2
 84 0 l 2
 75.3330078125 0 71 4.3330078125 71 13 c 0
 71 17.6669921875 72.6669921875 21 76 23 c 1
 549 673 l 1
 84 673 l 2
 75.3330078125 673 71 677.333007812 71 686 c 0
 71 694.666992188 75.3330078125 699 84 699 c 2
 575 699 l 2
 583.666992188 699 588 694.666992188 588 686 c 0
EndSplineSet
EndChar

StartChar: ampersand
Encoding: 38 38 25
Width: 696
Flags: MW
HStem: 0 25<245.333 300.667 245.333 304.667> 282 25<397 431.333> 675 25<249.667 287.333>
VStem: 49 25<196.667 243 196.667 244.333> 107 26<514 557 514 559> 249 26<184 196.667 184 204.333> 405 26<536.333 557> 473 25<196.333 233>
LayerCount: 2
Fore
SplineSet
266 142 m 2
 254.666992188 142 249 156 249 184 c 0
 249 224.666992188 264.666992188 255.333007812 296 276 c 0
 327.333007812 296.666992188 370 307 424 307 c 0
 439.333007812 307 451.333007812 306.666992188 460 306 c 2
 466 306 l 2
 508.666992188 306 531.666992188 326.666992188 535 368 c 0
 535 372.666992188 533.666992188 382.333007812 531 397 c 1
 527.37890625 404.241210938 530.217773438 409.07421875 539.515625 411.5 c 0
 548.74609375 413.907226562 553.907226562 410.741210938 555 402 c 1
 564.958984375 364.65234375 560.125976562 334.15234375 540.5 310.5 c 0
 527.5 294.833007812 511 285.333007812 491 282 c 1
 495.666992188 264 498 244.666992188 498 224 c 0
 498 162 476.166992188 109.166992188 432.5 65.5 c 0
 388.833007812 21.8330078125 335.833007812 0 273.5 0 c 0
 211.166992188 0 158.166992188 21.8330078125 114.5 65.5 c 0
 70.8330078125 109.166992188 49 162 49 224 c 0
 49 264.666992188 59 302.166992188 79 336.5 c 0
 99 370.833007812 125.666992188 398 159 418 c 1
 124.333007812 450.666992188 107 490 107 536 c 0
 107 582 122.833007812 620.833007812 154.5 652.5 c 0
 186.166992188 684.166992188 224.333007812 700 269 700 c 0
 313.666992188 700 351.833007812 684.166992188 383.5 652.5 c 0
 415.166992188 620.833007812 431 582.666992188 431 538 c 0
 431 529.333007812 426.666992188 525 418 525 c 0
 414.666992188 525 411.666992188 526.333007812 409 529 c 0
 406.333007812 531.666992188 405 534.666992188 405 538 c 0
 405 576 391.666992188 608.333007812 365 635 c 0
 338.333007812 661.666992188 306.166992188 675 268.5 675 c 0
 230.833007812 675 198.833007812 661.666992188 172.5 635 c 0
 146.166992188 608.333007812 133 576 133 538 c 0
 133 490 152 452.666992188 190 426 c 1
 194 421 l 1
 195.333007812 417 194.833007812 413 192.5 409 c 0
 190.166992188 405 187 403 183 403 c 1
 150.333007812 385.666992188 124 361 104 329 c 0
 84 297 74 262 74 224 c 0
 74 169.333007812 93.3330078125 122.5 132 83.5 c 0
 170.666992188 44.5 217.666992188 25 273 25 c 0
 328.333007812 25 375.5 44.3330078125 414.5 83 c 0
 453.5 121.666992188 473 168.666992188 473 224 c 0
 473 242 470.333007812 260.666992188 465 280 c 1
 459 280 l 1
 450.333007812 281.333007812 438.666992188 282 424 282 c 0
 366 282 324.333007812 270 299 246 c 0
 283 230 275 209.333007812 275 184 c 1
 276 165 l 1
 277 159 l 1
 279.666992188 151.666992188 277.333007812 146 270 142 c 1
 266 142 l 2
EndSplineSet
EndChar

StartChar: zero
Encoding: 48 48 27
Width: 710
Flags: MW
HStem: 0 25<303 303> 675 25<303 303>
VStem: 65 25<305.333 394.667 305.333 398.333> 517 25<304.333 395.667>
LayerCount: 2
Fore
SplineSet
303 700 m 1
 370.333007812 699.333007812 427 664.833007812 473 596.5 c 0
 519 528.166992188 542 446.166992188 542 350.5 c 0
 542 254.833007812 519.166992188 172.666992188 473.5 104 c 0
 427.833007812 35.3330078125 371 0.6669921875 303 0 c 1
 236.333007812 0.6669921875 180 35.3330078125 134 104 c 0
 88 172.666992188 65 254.833007812 65 350.5 c 0
 65 446.166992188 88 528.166992188 134 596.5 c 0
 180 664.833007812 236.333007812 699.333007812 303 700 c 1
155 581 m 1
 111.666992188 516.333007812 90 439.333007812 90 350 c 0
 90 260.666992188 111.666992188 183.666992188 155 119 c 1
 195.666992188 56.3330078125 245.166992188 25 303.5 25 c 0
 361.833007812 25 411.333007812 56.3330078125 452 119 c 1
 495.333007812 181.666992188 517 258.666992188 517 350 c 0
 517 441.333007812 495.333007812 518.333007812 452 581 c 1
 411.333007812 643.666992188 361.833007812 675 303.5 675 c 0
 245.166992188 675 195.666992188 643.666992188 155 581 c 1
EndSplineSet
EndChar

StartChar: one
Encoding: 49 49 28
Width: 335
Flags: MW
HStem: 0 21G<182.333 188.333> 679 20G<182.667 188.333>
VStem: 172 25<13 686>
LayerCount: 2
Fore
SplineSet
172 686 m 2
 172 689.333007812 173.333007812 692.333007812 176 695 c 0
 178.666992188 697.666992188 181.333007812 699 184 699 c 0
 192.666992188 699 197 694.666992188 197 686 c 2
 197 13 l 2
 197 4.3330078125 192.666992188 0 184 0 c 0
 180.666992188 0 177.833007812 1.3330078125 175.5 4 c 0
 173.166992188 6.6669921875 172 9.6669921875 172 13 c 2
 172 686 l 2
50 591 m 2
 48.6669921875 590.333007812 45.8330078125 590 41.5 590 c 0
 37.1669921875 590 34 593 32 599 c 0
 30 605 32 609.666992188 38 613 c 2
 178 696 l 2
 185.333007812 701.333007812 191 700.166992188 195 692.5 c 0
 199 684.833007812 197.333007812 679 190 675 c 2
 50 591 l 2
EndSplineSet
EndChar

StartChar: two
Encoding: 50 50 29
Width: 590
Flags: MW
HStem: 0 25<89 466 89 466> 675 25<232.333 286.667>
VStem: 453 25<443 497>
LayerCount: 2
Fore
SplineSet
58 0 m 2
 52.6669921875 0 48.8330078125 2.6669921875 46.5 8 c 0
 44.1669921875 13.3330078125 45 18.3330078125 49 23 c 2
 387 328 l 2
 431 368.666992188 453 416 453 470 c 0
 453 524 434.333007812 571.666992188 397 613 c 0
 359.666992188 654.333007812 313.833007812 675 259.5 675 c 0
 205.166992188 675 158.666992188 657.666992188 120 623 c 2
 85 591 l 2
 81 587.666992188 76.6669921875 586.833007812 72 588.5 c 0
 67.3330078125 590.166992188 64.6669921875 593.166992188 64 597.5 c 0
 63.3330078125 601.833007812 64.6669921875 605.666992188 68 609 c 2
 103 642 l 1
 146.333007812 680.666992188 198.833007812 700 260.5 700 c 0
 322.166992188 700 375.333007812 675.666992188 420 627 c 1
 458.666992188 583 478 530.166992188 478 468.5 c 0
 478 406.833007812 453 354 403 310 c 1
 89 25 l 1
 466 25 l 2
 474 25 478 21 478 13 c 0
 478 9.6669921875 476.833007812 6.6669921875 474.5 4 c 0
 472.166992188 1.3330078125 469.333007812 0 466 0 c 2
 58 0 l 2
EndSplineSet
EndChar

StartChar: three
Encoding: 51 51 30
Width: 610
Flags: MW
HStem: 1 26<212.333 240 240 241> 675 26<117.667 461 122 431>
VStem: 448 26<205.333 262.667>
LayerCount: 2
Fore
SplineSet
264 466 m 1
 320.666992188 460.666992188 368 438.333007812 406 399 c 0
 451.333007812 353.666992188 474 299 474 235 c 0
 474 171 451.333007812 115.666992188 406 69 c 1
 359.333007812 23.6669921875 304.333007812 1 241 1 c 2
 240 1 l 2
 175.333007812 1 120.666992188 23.6669921875 76 69 c 0
 70 75 70 81 76 87 c 0
 82 93 88 93 94 87 c 0
 134.666992188 47 183.666992188 27 241 27 c 0
 298.333007812 27 347.166992188 47.1669921875 387.5 87.5 c 0
 427.833007812 127.833007812 448 176.666992188 448 234 c 0
 448 291.333007812 428 340.333007812 388 381 c 1
 346.666992188 421 298 441 242 441 c 0
 238 441 233.333007812 443.833007812 228 449.5 c 0
 222.666992188 455.166992188 223 461 229 467 c 2
 431 675 l 1
 122 675 l 2
 113.333007812 675 109 679.333007812 109 688 c 0
 109 696.666992188 113.333007812 701 122 701 c 2
 461 701 l 2
 469.666992188 701 474 696.666992188 474 688 c 0
 474 683.333007812 472.666992188 679.666992188 470 677 c 2
 264 466 l 1
EndSplineSet
EndChar

StartChar: four
Encoding: 52 52 31
Width: 664
Flags: MW
HStem: 0 21G<481.333 487.333> 149 25<87 470 87 470 496 557> 679 20G<480.667 483.333>
VStem: 470 26<13 149 174 648 648 648>
LayerCount: 2
Fore
SplineSet
473 694 m 2
 476.333007812 697.333007812 479.333007812 699 482 699 c 0
 484.666992188 699 489 696 495 690 c 0
 495.666992188 688.666992188 496 687.666992188 496 687 c 2
 496 174 l 1
 557 174 l 2
 565.666992188 174 570 169.833007812 570 161.5 c 0
 570 153.166992188 565.666992188 149 557 149 c 2
 496 149 l 1
 496 13 l 2
 496 4.3330078125 491.666992188 0 483 0 c 0
 479.666992188 0 476.666992188 1.3330078125 474 4 c 0
 471.333007812 6.6669921875 470 9.6669921875 470 13 c 2
 470 149 l 1
 61 149 l 2
 56.3330078125 149 52.6669921875 151.333007812 50 156 c 0
 47.3330078125 160.666992188 47.6669921875 165 51 169 c 2
 473 694 l 2
87 174 m 1
 470 174 l 1
 470 648 l 1
 87 174 l 1
EndSplineSet
EndChar

StartChar: five
Encoding: 53 53 32
Width: 605
Flags: MW
HStem: 0 26<202.333 258.667 202.333 262> 440 26<204 259.333> 674 26<121 450 121 121>
VStem: 437 26<205.333 262.667>
LayerCount: 2
Fore
SplineSet
394 69 m 1
 348.666992188 23 294 0 230 0 c 0
 166 0 111 23 65 69 c 0
 61 72.3330078125 59.8330078125 76.3330078125 61.5 81 c 0
 63.1669921875 85.6669921875 66.1669921875 88.6669921875 70.5 90 c 0
 74.8330078125 91.3330078125 79 90.3330078125 83 87 c 0
 125 46.3330078125 174.166992188 26 230.5 26 c 0
 286.833007812 26 335.333007812 46.3330078125 376 87 c 0
 416.666992188 127.666992188 437 176.666992188 437 234 c 0
 437 291.333007812 416.833007812 340 376.5 380 c 0
 336.166992188 420 287.666992188 440 231 440 c 0
 174.333007812 440 125 420 83 380 c 1
 81.6669921875 377.333007812 79.1669921875 376 75.5 376 c 0
 71.8330078125 376 68.6669921875 377 66 379 c 0
 64.6669921875 379 64 379.666992188 64 381 c 0
 61.111328125 383.888671875 60.111328125 387.555664062 61 392 c 2
 96 687 l 2
 97.3330078125 695.666992188 102.666992188 700 112 700 c 2
 450 700 l 2
 453.333007812 700 456.333007812 698.666992188 459 696 c 0
 461.666992188 693.333007812 463 690.333007812 463 687 c 0
 463 678.333007812 458.666992188 674 450 674 c 2
 121 674 l 1
 91 420 l 1
 131.666992188 450.666992188 178 466 230 466 c 0
 295.333007812 466 350.666992188 443.333007812 396 398 c 0
 440.666992188 352 463 296.833007812 463 232.5 c 0
 463 168.166992188 440 113.666992188 394 69 c 1
EndSplineSet
EndChar

StartChar: six
Encoding: 54 54 33
Width: 642
Flags: MW
HStem: 0 25<265.667 321.333 265.667 326.333> 428 25<271.333 321.333> 675 25<377 379.333 375 380.667>
VStem: 64 28<253 254.333 198.667 301> 496 25<227 227>
LayerCount: 2
Fore
SplineSet
68 201 m 1
 65.3330078125 203.666992188 64 229 64 277 c 0
 64 325 70.3330078125 373.833007812 83 423.5 c 0
 95.6669921875 473.166992188 114.166992188 518.5 138.5 559.5 c 0
 162.833007812 600.5 195.333007812 633.666992188 236 659 c 0
 276.666992188 684.333007812 323 698 375 700 c 0
 383.666992188 700 388 695.833007812 388 687.5 c 0
 388 679.166992188 384.333007812 675 377 675 c 0
 291.666992188 671 225.166992188 636.5 177.5 571.5 c 0
 129.833007812 506.5 101.333007812 426.333007812 92 331 c 1
 110.666992188 368.333007812 138 398 174 420 c 0
 210 442 249.666992188 453 293 453 c 0
 355.666992188 453 409.166992188 431 453.5 387 c 0
 497.833007812 343 520.333007812 289.666992188 521 227 c 1
 520.333007812 164.333007812 497.833007812 110.833007812 453.5 66.5 c 0
 409.166992188 22.1669921875 356.666992188 0 296 0 c 0
 235.333007812 0 183.666992188 19.1669921875 141 57.5 c 0
 98.3330078125 95.8330078125 74 143.666992188 68 201 c 1
151 369 m 0
 111.666992188 329.666992188 92 282.166992188 92 226.5 c 0
 92 170.833007812 111.666992188 123.333007812 151 84 c 0
 190.333007812 44.6669921875 237.833007812 25 293.5 25 c 0
 349.166992188 25 396.5 44.6669921875 435.5 84 c 0
 474.5 123.333007812 494.666992188 171 496 227 c 1
 494.666992188 283 474.5 330.5 435.5 369.5 c 0
 396.5 408.5 349.166992188 428 293.5 428 c 0
 237.833007812 428 190.333007812 408.333007812 151 369 c 0
EndSplineSet
EndChar

StartChar: seven
Encoding: 55 55 34
Width: 587
Flags: MW
HStem: 1 21G<178 178.333> 673 26<72.6665 467 77 446>
LayerCount: 2
Fore
SplineSet
194 8 m 2
 192.666992188 2.6669921875 189.833007812 0.1669921875 185.5 0.5 c 0
 181.166992188 0.8330078125 178.666992188 1 178 1 c 0
 170.666992188 4.3330078125 168.333007812 10 171 18 c 2
 446 673 l 1
 77 673 l 2
 68.3330078125 673 64 677.333007812 64 686 c 0
 64 689.333007812 65.3330078125 692.333007812 68 695 c 0
 70.6669921875 697.666992188 73.6669921875 699 77 699 c 2
 467 699 l 2
 470.333007812 699 473.333007812 697.5 476 694.5 c 0
 478.666992188 691.5 480 688.833007812 480 686.5 c 0
 480 684.166992188 478.666992188 681 476 677 c 2
 194 8 l 2
EndSplineSet
EndChar

StartChar: eight
Encoding: 56 56 35
Width: 630
Flags: MW
HStem: 0 25<250.667 305.333 250.667 308.667> 420 28<262 293 262 305.333> 675 25<278 278>
VStem: 55 25<194.667 242> 139 25<547.333 576.667 545.333 580.333> 391 25<547.333 576.667> 476 25<194.667 242 186 249.333>
LayerCount: 2
Fore
SplineSet
139 561 m 0
 139 599.666992188 152.5 632.5 179.5 659.5 c 0
 206.5 686.5 239.166992188 700 277.5 700 c 0
 315.833007812 700 348.5 686.5 375.5 659.5 c 0
 402.5 632.5 416 599.666992188 416 561 c 0
 416 533.666992188 408.666992188 508.833007812 394 486.5 c 0
 379.333007812 464.166992188 360.333007812 447.333007812 337 436 c 1
 384.333007812 422.666992188 423.5 396.333007812 454.5 357 c 0
 485.5 317.666992188 501 270 501 214 c 0
 501 158 479.166992188 108.333007812 435.5 65 c 0
 391.833007812 21.6669921875 339.333007812 0 278 0 c 0
 216.666992188 0 164.166992188 21.6669921875 120.5 65 c 0
 76.8330078125 108.333007812 55 158 55 214 c 0
 55 270 70.5 317.666992188 101.5 357 c 0
 132.5 396.333007812 171.666992188 422.666992188 219 436 c 1
 195 447.333007812 175.666992188 464.166992188 161 486.5 c 0
 146.333007812 508.833007812 139 533.666992188 139 561 c 0
80 222 m 0
 80 167.333007812 99.3330078125 120.833007812 138 82.5 c 0
 176.666992188 44.1669921875 223.333007812 25 278 25 c 0
 332.666992188 25 379.333007812 44.1669921875 418 82.5 c 0
 456.666992188 120.833007812 476 167.333007812 476 222 c 0
 476 276.666992188 456.666992188 323.333007812 418 362 c 0
 379.333007812 400.666992188 332.666992188 420 278 420 c 0
 223.333007812 420 176.666992188 400.666992188 138 362 c 0
 99.3330078125 323.333007812 80 276.666992188 80 222 c 0
164 561 m 0
 164 529.666992188 175.166992188 503 197.5 481 c 0
 219.833007812 459 246.5 448 277.5 448 c 0
 308.5 448 335.166992188 459 357.5 481 c 0
 379.833007812 503 391 529.666992188 391 561 c 0
 391 592.333007812 380 619 358 641 c 0
 336 663 309.333007812 674.333007812 278 675 c 1
 246.666992188 674.333007812 219.833007812 663 197.5 641 c 0
 175.166992188 619 164 592.333007812 164 561 c 0
EndSplineSet
EndChar

StartChar: nine
Encoding: 57 57 36
Width: 642
Flags: MW
HStem: 0 25<208.333 210 208.333 212> 247 25<265.667 315.333> 675 25<264 318>
VStem: 66 25<445.667 501.333 445.667 504.333> 495 28<389.667 476.333>
LayerCount: 2
Fore
SplineSet
519 492 m 1
 521.666992188 475.333007812 523 447.666992188 523 409 c 0
 523 370.333007812 516.666992188 326.166992188 504 276.5 c 0
 491.333007812 226.833007812 472.666992188 181.5 448 140.5 c 0
 423.333007812 99.5 390.666992188 66.3330078125 350 41 c 0
 309.333007812 15.6669921875 263.333007812 2 212 0 c 0
 203.333007812 0 199 4.3330078125 199 13 c 0
 198.333007812 15.6669921875 199.166992188 18.3330078125 201.5 21 c 0
 203.833007812 23.6669921875 206.666992188 25 210 25 c 0
 306 29.6669921875 380 75.6669921875 432 163 c 1
 466 222.333007812 486.666992188 290.666992188 494 368 c 1
 475.333007812 331.333007812 448 302 412 280 c 0
 376 258 336.666992188 247 294 247 c 0
 231.333007812 247 177.666992188 269 133 313 c 0
 88.3330078125 357 66 410.333007812 66 473 c 0
 66 535.666992188 88.3330078125 589.166992188 133 633.5 c 0
 177.666992188 677.833007812 230.333007812 700 291 700 c 0
 351.666992188 700 403.5 680 446.5 640 c 0
 489.5 600 513.666992188 550.666992188 519 492 c 1
494 488 m 2
 494 493 l 1
 488.666992188 544.333007812 467 587.5 429 622.5 c 0
 391 657.5 345 675 291 675 c 0
 237 675 190.166992188 655.333007812 150.5 616 c 0
 110.833007812 576.666992188 91 529.166992188 91 473.5 c 0
 91 417.833007812 110.833007812 370.333007812 150.5 331 c 0
 190.166992188 291.666992188 237.833007812 272 293.5 272 c 0
 349.166992188 272 396.666992188 291.666992188 436 331 c 0
 475.333007812 370.333007812 495 417.666992188 495 473 c 0
 495 479.666992188 494.666992188 484.666992188 494 488 c 2
EndSplineSet
EndChar

StartChar: a
Encoding: 97 97 37
Width: 619
Flags: MW
HStem: 0 25<242.667 293> 464 26<242.667 293 239 299.333>
VStem: 40 25<214.667 275.333 214.667 278.667> 477 25<13 135 135 135 214.667 275.333 355 477>
LayerCount: 2
Fore
SplineSet
477 477 m 2
 477 485.666992188 481.166992188 490 489.5 490 c 0
 497.833007812 490 502 485.666992188 502 477 c 2
 502 13 l 2
 502 4.3330078125 497.833007812 0 489.5 0 c 0
 481.166992188 0 477 4.3330078125 477 13 c 2
 477 135 l 1
 457.666992188 94.3330078125 429.5 61.6669921875 392.5 37 c 0
 355.5 12.3330078125 315 0 271 0 c 0
 207 0 152.5 24 107.5 72 c 0
 62.5 120 40 177.666992188 40 245 c 0
 40 312.333007812 62.5 370 107.5 418 c 0
 152.5 466 207 490 271 490 c 0
 315 490 355.5 477.666992188 392.5 453 c 0
 429.5 428.333007812 457.666992188 395.666992188 477 355 c 1
 477 477 l 2
271 25 m 0
 327.666992188 25 376.166992188 46.5 416.5 89.5 c 0
 456.833007812 132.5 477 184.333007812 477 245 c 0
 477 305.666992188 456.833007812 357.333007812 416.5 400 c 0
 376.166992188 442.666992188 327.666992188 464 271 464 c 0
 214.333007812 464 165.833007812 442.666992188 125.5 400 c 0
 85.1669921875 357.333007812 65 305.666992188 65 245 c 0
 65 184.333007812 85.1669921875 132.5 125.5 89.5 c 0
 165.833007812 46.5 214.333007812 25 271 25 c 0
EndSplineSet
EndChar

StartChar: b
Encoding: 98 98 38
Width: 660
Flags: MW
HStem: 0 25<306.333 358.667 300.333 362> 465 25<306.333 359.667> 680 20G<101.667 107.333>
VStem: 93 25<13 134 215.667 246 246 255 355 685> 542 25<215.667 276.333>
LayerCount: 2
Fore
SplineSet
93 13 m 2
 93 685 l 2
 93 695 97.3330078125 700 106 700 c 0
 108.666992188 700 111.333007812 698.333007812 114 695 c 0
 116.666992188 691.666992188 118 688.333007812 118 685 c 2
 118 355 l 1
 138 395.666992188 166.833007812 428.333007812 204.5 453 c 0
 242.166992188 477.666992188 283.666992188 490 329 490 c 0
 395 490 451.166992188 466.166992188 497.5 418.5 c 0
 543.833007812 370.833007812 567 313.333007812 567 246 c 0
 567 178.666992188 543.833007812 120.833007812 497.5 72.5 c 0
 451.166992188 24.1669921875 395 0 329 0 c 0
 283.666992188 0 242.166992188 12.3330078125 204.5 37 c 0
 166.833007812 61.6669921875 138 94 118 134 c 1
 118 13 l 2
 118 9.6669921875 116.833007812 6.6669921875 114.5 4 c 0
 112.166992188 1.3330078125 109.333007812 0 106 0 c 0
 97.3330078125 0 93 4.3330078125 93 13 c 2
118 255 m 1
 118 246 l 2
 118 185.333007812 138.666992188 133.333007812 180 90 c 0
 221.333007812 46.6669921875 271.166992188 25 329.5 25 c 0
 387.833007812 25 437.833007812 46.6669921875 479.5 90 c 0
 521.166992188 133.333007812 542 185.333007812 542 246 c 0
 542 306.666992188 521.166992188 358.333007812 479.5 401 c 0
 437.833007812 443.666992188 388.333007812 465 331 465 c 0
 273.666992188 465 224.333007812 444.5 183 403.5 c 0
 141.666992188 362.5 120 313 118 255 c 1
EndSplineSet
EndChar

StartChar: c
Encoding: 99 99 39
Width: 571
Flags: MW
HStem: 0 25<310 335.333 278.333 339> 465 25<272.667 330.333>
VStem: 58 25<214.667 275.333 214.667 278.667>
LayerCount: 2
Fore
SplineSet
58 245 m 0
 58 312.333007812 82.6669921875 370 132 418 c 0
 181.333007812 466 238.166992188 490 302.5 490 c 0
 366.833007812 490 421.333007812 472.333007812 466 437 c 0
 471.333007812 431.666992188 471.833007812 425.833007812 467.5 419.5 c 0
 463.166992188 413.166992188 457.333007812 412.333007812 450 417 c 0
 408.666992188 449 359.166992188 465 301.5 465 c 0
 243.833007812 465 193 443.5 149 400.5 c 0
 105 357.5 83 305.666992188 83 245 c 0
 83 184.333007812 105 132.5 149 89.5 c 0
 193 46.5 246.666992188 25 310 25 c 0
 360.666992188 25 407.333007812 41.3330078125 450 74 c 0
 456 78 461.5 76.8330078125 466.5 70.5 c 0
 471.5 64.1669921875 471.333007812 58.3330078125 466 53 c 0
 420 17.6669921875 368 0 310 0 c 0
 240.666992188 0.6669921875 181.333007812 24.8330078125 132 72.5 c 0
 82.6669921875 120.166992188 58 177.666992188 58 245 c 0
EndSplineSet
EndChar

StartChar: d
Encoding: 100 100 40
Width: 660
Flags: MW
HStem: 0 25<268.333 320.667> 465 25<267.333 320.667 265 324.667> 680 20G<519.667 525.333>
VStem: 60 25<215.667 276.333 215.667 279.667> 509 25<13 134 134 134 246 255 255 255 355 685>
LayerCount: 2
Fore
SplineSet
534 13 m 2
 534 4.3330078125 529.666992188 0 521 0 c 0
 517.666992188 0 514.833007812 1.3330078125 512.5 4 c 0
 510.166992188 6.6669921875 509 9.6669921875 509 13 c 2
 509 134 l 1
 489 94 460.166992188 61.6669921875 422.5 37 c 0
 384.833007812 12.3330078125 343.333007812 0 298 0 c 0
 232 0 175.833007812 24.1669921875 129.5 72.5 c 0
 83.1669921875 120.833007812 60 178.666992188 60 246 c 0
 60 313.333007812 83.1669921875 370.833007812 129.5 418.5 c 0
 175.833007812 466.166992188 232 490 298 490 c 0
 343.333007812 490 384.833007812 477.666992188 422.5 453 c 0
 460.166992188 428.333007812 489 395.666992188 509 355 c 1
 509 685 l 2
 509 688.333007812 510.333007812 691.666992188 513 695 c 0
 515.666992188 698.333007812 518.333007812 700 521 700 c 0
 529.666992188 700 534 695 534 685 c 2
 534 13 l 2
509 246 m 2
 509 255 l 1
 507 313 485.333007812 362.5 444 403.5 c 0
 402.666992188 444.5 353.333007812 465 296 465 c 0
 238.666992188 465 189.166992188 443.666992188 147.5 401 c 0
 105.833007812 358.333007812 85 306.666992188 85 246 c 0
 85 185.333007812 105.833007812 133.333007812 147.5 90 c 0
 189.166992188 46.6669921875 239.166992188 25 297.5 25 c 0
 355.833007812 25 405.666992188 46.6669921875 447 90 c 0
 488.333007812 133.333007812 509 185.333007812 509 246 c 2
EndSplineSet
EndChar

StartChar: e
Encoding: 101 101 41
Width: 609
Flags: MW
HStem: 0 25<296 314.333 296 316> 248 24<84 506 84 519 83 506> 464 26<268.667 322.333>
VStem: 58 25<245 245>
LayerCount: 2
Fore
SplineSet
531 264 m 1
 531 260 l 1
 529.666992188 252 525.666992188 248 519 248 c 2
 83 248 l 1
 83 245 l 2
 83 185 103.833007812 133.5 145.5 90.5 c 0
 187.166992188 47.5 237.333007812 25.6669921875 296 25 c 0
 332.666992188 25 366.5 34 397.5 52 c 0
 428.5 70 453.333007812 94.3330078125 472 125 c 0
 476.517578125 131.77734375 482.236328125 132.770507812 489.154296875 127.981445312 c 0
 496.072265625 123.192382812 497.354492188 117.53125 493 111 c 0
 471.666992188 77.6669921875 443.5 50.8330078125 408.5 30.5 c 0
 373.5 10.1669921875 336 0 296 0 c 0
 230.666992188 0.6669921875 175 24.8330078125 129 72.5 c 0
 83 120.166992188 59.3330078125 177.666992188 58 245 c 1
 59.3330078125 313 83 370.833007812 129 418.5 c 0
 175 466.166992188 229.833007812 490 293.5 490 c 0
 357.166992188 490 411.5 468.333007812 456.5 425 c 0
 501.5 381.666992188 526.333007812 328 531 264 c 1
436 409 m 0
 396 445.666992188 349.166992188 464 295.5 464 c 0
 241.833007812 464 194.833007812 445.666992188 154.5 409 c 0
 114.166992188 372.333007812 90.6669921875 326.666992188 84 272 c 1
 506 272 l 1
 499.333007812 326.666992188 476 372.333007812 436 409 c 0
EndSplineSet
EndChar

StartChar: f
Encoding: 102 102 42
Width: 362
Flags: W
HStem: 1 21G<166.667 175.333> 468 26<73.6665 158 78 158 184 268> 468 233<73.6665 284.333 78 284.333 259 268 184 284.333>
VStem: 158 26<14 468 494 560>
LayerCount: 2
Fore
SplineSet
280 701 m 0xb0
 288.666992188 701 293 696.833007812 293 688.5 c 0
 293 680.166992188 288.666992188 676 280 676 c 0
 245.333007812 676 220.666992188 667.833007812 206 651.5 c 0
 191.333007812 635.166992188 184 604.666992188 184 560 c 2
 184 494 l 1
 268 494 l 2
 276 494 280 489.666992188 280 481 c 0
 280 472.333007812 276 468 268 468 c 2
 184 468 l 1
 184 14 l 2
 184 5.3330078125 179.666992188 1 171 1 c 0
 162.333007812 1 158 5.3330078125 158 14 c 2
 158 468 l 1
 78 468 l 2
 69.3330078125 468 65 472.333007812 65 481 c 0
 65 489.666992188 69.3330078125 494 78 494 c 2
 158 494 l 1xd0
 158 560 l 2
 158 610 167.833007812 646 187.5 668 c 0
 207.166992188 690 238 701 280 701 c 0xb0
EndSplineSet
EndChar

StartChar: g
Encoding: 103 103 43
Width: 660
Flags: MW
HStem: -204 25<275.667 291 275.667 323> 0 26<262.667 313> 465 25<262.667 313 259 319.333>
VStem: 60 25<214.667 275.333 214.667 278.667> 497 25<28 135 135 135 214.667 275.333 356 477>
LayerCount: 2
Fore
SplineSet
509 490 m 0
 517.666992188 490 522 485.666992188 522 477 c 2
 522 28 l 2
 522 -36 499.5 -90.6669921875 454.5 -136 c 0
 409.5 -181.333007812 355 -204 291 -204 c 0
 257 -204 223 -196 189 -180 c 1
 182.333007812 -175.333007812 180.666992188 -169.833007812 184 -163.5 c 0
 187.333007812 -157.166992188 193 -155 201 -157 c 1
 230.333007812 -171.666992188 260.333007812 -179 291 -179 c 0
 348.333007812 -177.666992188 397 -157 437 -117 c 0
 477 -77 497 -28.6669921875 497 28 c 2
 497 135 l 1
 478.333007812 95 450.333007812 62.5 413 37.5 c 0
 375.666992188 12.5 335 0 291 0 c 0
 227 0 172.5 24 127.5 72 c 0
 82.5 120 60 177.666992188 60 245 c 0
 60 312.333007812 82.5 370 127.5 418 c 0
 172.5 466 227 490 291 490 c 0
 335 490 375.666992188 477.666992188 413 453 c 0
 450.333007812 428.333007812 478.333007812 396 497 356 c 1
 497 477 l 2
 497 480.333007812 498.166992188 483.333007812 500.5 486 c 0
 502.833007812 488.666992188 505.666992188 490 509 490 c 0
497 245 m 0
 497 305.666992188 476.833007812 357.5 436.5 400.5 c 0
 396.166992188 443.5 347.666992188 465 291 465 c 0
 234.333007812 465 185.833007812 443.5 145.5 400.5 c 0
 105.166992188 357.5 85 305.666992188 85 245 c 0
 85 184.333007812 105.166992188 132.666992188 145.5 90 c 0
 185.833007812 47.3330078125 234.333007812 26 291 26 c 0
 347.666992188 26 396.166992188 47.3330078125 436.5 90 c 0
 476.833007812 132.666992188 497 184.333007812 497 245 c 0
EndSplineSet
EndChar

StartChar: h
Encoding: 104 104 44
Width: 613
Flags: MW
HStem: 0 21G<101.667 106 106 108 473.667 479.667> 464 26<273.667 316.667> 680 20G<101.333 109.667>
VStem: 93 25<11 13 13 298 387 687> 465 25<13 291>
LayerCount: 2
Fore
SplineSet
106 0 m 2
 97.3330078125 0 93 3.6669921875 93 11 c 2
 93 687 l 2
 93 695.666992188 97.1669921875 700 105.5 700 c 0
 113.833007812 700 118 695.666992188 118 687 c 2
 118 387 l 1
 135.333007812 418.333007812 159.5 443.333007812 190.5 462 c 0
 221.5 480.666992188 255.333007812 490 292 490 c 0
 346.666992188 490 393.333007812 470.666992188 432 432 c 0
 470.666992188 393.333007812 490 346.333007812 490 291 c 2
 490 13 l 2
 490 9.6669921875 488.833007812 6.6669921875 486.5 4 c 0
 484.166992188 1.3330078125 481.333007812 0 478 0 c 0
 469.333007812 0 465 4.3330078125 465 13 c 2
 465 291 l 2
 465 339 448.166992188 379.833007812 414.5 413.5 c 0
 380.833007812 447.166992188 340.333007812 464 293 464 c 0
 245.666992188 464 205.166992188 447.833007812 171.5 415.5 c 0
 137.833007812 383.166992188 120 344 118 298 c 1
 118 13 l 2
 118 4.3330078125 114.666992188 0 108 0 c 2
 106 0 l 2
EndSplineSet
EndChar

StartChar: i
Encoding: 105 105 45
Width: 281
Flags: MW
HStem: 0 21G<102.667 108.667> 628 20G<102.333 110.667>
VStem: 94 25<13 478 611 635>
LayerCount: 2
Fore
SplineSet
94 13 m 2
 94 478 l 2
 94 486 98.1669921875 490 106.5 490 c 0
 114.833007812 490 119 486 119 478 c 2
 119 13 l 2
 119 9.6669921875 117.833007812 6.6669921875 115.5 4 c 0
 113.166992188 1.3330078125 110.333007812 0 107 0 c 0
 98.3330078125 0 94 4.3330078125 94 13 c 2
94 611 m 2
 94 635 l 2
 94 643.666992188 98.1669921875 648 106.5 648 c 0
 114.833007812 648 119 643.666992188 119 635 c 2
 119 611 l 2
 119 607.666992188 117.833007812 604.833007812 115.5 602.5 c 0
 113.166992188 600.166992188 110.333007812 599 107 599 c 0
 98.3330078125 599 94 603 94 611 c 2
EndSplineSet
EndChar

StartChar: j
Encoding: 106 106 46
Width: 249
Flags: MW
HStem: -203 21G<3 17.6665> 630 20G<68.6665 74.6665>
VStem: 58 26<-126 478>
LayerCount: 2
Fore
SplineSet
7 -203 m 0
 -1 -203 -5 -198.833007812 -5 -190.5 c 0
 -5 -182.166992188 0.5 -178 11.5 -178 c 0
 22.5 -178 33 -173 43 -163 c 0
 53 -153 58 -140.666992188 58 -126 c 2
 58 478 l 2
 58 486 62 490 70 490 c 0
 73.3330078125 490 76.5 488.833007812 79.5 486.5 c 0
 82.5 484.166992188 84 481.333007812 84 478 c 2
 84 -126 l 2
 84 -147.333007812 76.5 -165.5 61.5 -180.5 c 0
 46.5 -195.5 28.3330078125 -203 7 -203 c 0
60 613 m 2
 60 637 l 2
 60 645.666992188 64.3330078125 650 73 650 c 0
 76.3330078125 650 79.5 648.666992188 82.5 646 c 0
 85.5 643.333007812 87 640.333007812 87 637 c 2
 87 613 l 2
 87 609.666992188 85.5 606.833007812 82.5 604.5 c 0
 79.5 602.166992188 76.3330078125 601 73 601 c 0
 64.3330078125 601 60 605 60 613 c 2
EndSplineSet
EndChar

StartChar: k
Encoding: 107 107 47
Width: 560
Flags: MW
HStem: 0 21G<101.667 107.667 446.667 451.333> 680 20G<101.667 107.667>
VStem: 93 25<13 133 168 687>
LayerCount: 2
Fore
SplineSet
93 13 m 2
 93 687 l 2
 93 695.666992188 97.3330078125 700 106 700 c 0
 109.333007812 700 112.166992188 698.666992188 114.5 696 c 0
 116.833007812 693.333007812 118 690.333007812 118 687 c 2
 118 168 l 1
 440 490 l 2
 445.333007812 495.333007812 451.166992188 495.166992188 457.5 489.5 c 0
 463.833007812 483.833007812 464 478 458 472 c 2
 255 269 l 1
 458 22 l 2
 461.333007812 18 461.833007812 13.3330078125 459.5 8 c 0
 457.166992188 2.6669921875 453.666992188 0 449 0 c 0
 444.333007812 0 441 1.6669921875 439 5 c 2
 236 250 l 1
 121 135 l 2
 119.666992188 133.666992188 118.666992188 133 118 133 c 2
 118 13 l 2
 118 9.6669921875 116.833007812 6.6669921875 114.5 4 c 0
 112.166992188 1.3330078125 109.333007812 0 106 0 c 0
 97.3330078125 0 93 4.3330078125 93 13 c 2
EndSplineSet
EndChar

StartChar: l
Encoding: 108 108 48
Width: 249
Flags: MW
HStem: 0 21G<108.333 116.667> 680 20G<108.333 116.667>
VStem: 100 25<13 687>
LayerCount: 2
Fore
SplineSet
100 687 m 2
 100 695.666992188 104.166992188 700 112.5 700 c 0
 120.833007812 700 125 695.666992188 125 687 c 2
 125 13 l 2
 125 4.3330078125 120.833007812 0 112.5 0 c 0
 104.166992188 0 100 4.3330078125 100 13 c 2
 100 687 l 2
EndSplineSet
EndChar

StartChar: m
Encoding: 109 109 49
Width: 951
Flags: MW
HStem: 0 21G<104 107 104 104 470 476 840.333 846> 465 25<274.667 313.333 638 682.333>
VStem: 93 26<13 292 292 294.667> 462 25<13 292 292 299> 829 25<13 292>
LayerCount: 2
Fore
SplineSet
486 9 m 2
 484 4 l 1
 481.333007812 1.3330078125 478 0 474 0 c 0
 466 0 462 4.3330078125 462 13 c 2
 462 292 l 2
 462 340 445.166992188 380.833007812 411.5 414.5 c 0
 377.833007812 448.166992188 337.666992188 465 291 465 c 0
 244.333007812 465 204.333007812 448.833007812 171 416.5 c 0
 137.666992188 384.166992188 120.333007812 345 119 299 c 1
 119 13 l 1
 116 4 l 1
 114 3 l 2
 112 1 109.666992188 0 107 0 c 2
 104 0 l 1
 96.6669921875 1.3330078125 93 5.6669921875 93 13 c 2
 93 292 l 2
 93 297.333007812 93.6669921875 305.333007812 95 316 c 1
 95 477 l 2
 95 485.666992188 99 490 107 490 c 0
 115 490 119 485.666992188 119 477 c 2
 119 388 l 1
 136.333007812 419.333007812 160.166992188 444.166992188 190.5 462.5 c 0
 220.833007812 480.833007812 255.333007812 490 294 490 c 0
 332.666992188 490 368.833007812 478.166992188 402.5 454.5 c 0
 436.166992188 430.833007812 460 400 474 362 c 1
 488 400 511.833007812 430.833007812 545.5 454.5 c 0
 579.166992188 478.166992188 617 490 659 490 c 0
 713 490 759 470.666992188 797 432 c 0
 835 393.333007812 854 346.666992188 854 292 c 2
 854 13 l 2
 854 4.3330078125 850 0 842 0 c 0
 838.666992188 0 835.666992188 1.3330078125 833 4 c 0
 830.333007812 6.6669921875 829 9.6669921875 829 13 c 2
 829 292 l 2
 829 340 812.333007812 380.833007812 779 414.5 c 0
 745.666992188 448.166992188 705.666992188 465 659 465 c 0
 612.333007812 465 572.333007812 448.833007812 539 416.5 c 0
 505.666992188 384.166992188 488.333007812 345 487 299 c 1
 487 13 l 2
 487 11 486.666992188 9.6669921875 486 9 c 2
EndSplineSet
EndChar

StartChar: n
Encoding: 110 110 50
Width: 613
Flags: MW
HStem: 0 21G<102 102 102 106 471.333 479.667> 465 25<272.667 314.667>
VStem: 93 25<11 13 13 292 388 478> 463 25<13 292>
LayerCount: 2
Fore
SplineSet
102 0 m 1
 100.666992188 1.3330078125 99.1669921875 2 97.5 2 c 0
 95.8330078125 2 95 3.3330078125 95 6 c 1
 93.6669921875 7.3330078125 93 9 93 11 c 2
 93 478 l 2
 93 486 97.1669921875 490 105.5 490 c 0
 113.833007812 490 118 486 118 478 c 2
 118 388 l 1
 135.333007812 418.666992188 159.333007812 443.333007812 190 462 c 0
 220.666992188 480.666992188 254.333007812 490 291 490 c 0
 345 490 391.333007812 470.666992188 430 432 c 0
 468.666992188 393.333007812 488 346.666992188 488 292 c 2
 488 13 l 2
 488 4.3330078125 483.833007812 0 475.5 0 c 0
 467.166992188 0 463 4.3330078125 463 13 c 2
 463 292 l 2
 463 340 446.166992188 380.833007812 412.5 414.5 c 0
 378.833007812 448.166992188 338.333007812 465 291 465 c 0
 243.666992188 465 203 448.166992188 169 414.5 c 0
 135 380.833007812 118 340 118 292 c 2
 118 13 l 2
 118 4.3330078125 114 0 106 0 c 2
 102 0 l 1
EndSplineSet
EndChar

StartChar: o
Encoding: 111 111 51
Width: 625
Flags: MW
HStem: 0 25<272.667 329.333 272.667 333> 465 25<272.667 329.333>
VStem: 70 25<214.667 275.333 214.667 278.667> 508 25<214.667 275.333>
LayerCount: 2
Fore
SplineSet
301 490 m 0
 365 490 419.666992188 466 465 418 c 0
 510.333007812 370 533 312.333007812 533 245 c 0
 533 177.666992188 510.333007812 120 465 72 c 0
 419.666992188 24 365 0 301 0 c 0
 237 0 182.5 24 137.5 72 c 0
 92.5 120 70 177.666992188 70 245 c 0
 70 312.333007812 92.5 370 137.5 418 c 0
 182.5 466 237 490 301 490 c 0
301 25 m 0
 357.666992188 25 406.333007812 46.5 447 89.5 c 0
 487.666992188 132.5 508 184.333007812 508 245 c 0
 508 305.666992188 487.666992188 357.5 447 400.5 c 0
 406.333007812 443.5 357.666992188 465 301 465 c 0
 244.333007812 465 195.833007812 443.5 155.5 400.5 c 0
 115.166992188 357.5 95 305.666992188 95 245 c 0
 95 184.333007812 115.166992188 132.5 155.5 89.5 c 0
 195.833007812 46.5 244.333007812 25 301 25 c 0
EndSplineSet
EndChar

StartChar: p
Encoding: 112 112 52
Width: 660
Flags: MW
HStem: -214 21G<101.333 109.667> 5 26<304.667 355.667 298.333 360> 465 25<304.667 356.667>
VStem: 93 25<-201 138 218 248 248 257 356 477> 537 26<217.667 277.333>
LayerCount: 2
Fore
SplineSet
93 -201 m 2
 93 477 l 2
 93 485.666992188 97.1669921875 490 105.5 490 c 0
 113.833007812 490 118 485.666992188 118 477 c 2
 118 356 l 1
 137.333007812 396.666992188 165.833007812 429.166992188 203.5 453.5 c 0
 241.166992188 477.833007812 282.333007812 490 327 490 c 0
 393 490 448.833007812 466.5 494.5 419.5 c 0
 540.166992188 372.5 563 315.333007812 563 248 c 0
 563 180.666992188 540.166992188 123.333007812 494.5 76 c 0
 448.833007812 28.6669921875 393 5 327 5 c 0
 282.333007812 5 241.166992188 17.1669921875 203.5 41.5 c 0
 165.833007812 65.8330078125 137.333007812 98 118 138 c 1
 118 -201 l 2
 118 -209.666992188 113.833007812 -214 105.5 -214 c 0
 97.1669921875 -214 93 -209.666992188 93 -201 c 2
118 257 m 1
 118 248 l 2
 118 188 138.5 136.833007812 179.5 94.5 c 0
 220.5 52.1669921875 269.666992188 31 327 31 c 0
 384.333007812 31 433.666992188 52.1669921875 475 94.5 c 0
 516.333007812 136.833007812 537 187.833007812 537 247.5 c 0
 537 307.166992188 516.333007812 358.333007812 475 401 c 0
 433.666992188 443.666992188 384.833007812 465 328.5 465 c 0
 272.166992188 465 223.5 444.666992188 182.5 404 c 0
 141.5 363.333007812 120 314.333007812 118 257 c 1
EndSplineSet
EndChar

StartChar: q
Encoding: 113 113 53
Width: 660
Flags: MW
HStem: -214 21G<513.333 521.667> 5 26<267.333 318.333> 465 25<266.333 318.333 263 322.667>
VStem: 60 26<217.667 277.333 217.667 281.667> 505 25<-201 138 138 138 248 257 257 257 356 477>
LayerCount: 2
Fore
SplineSet
530 -201 m 2
 530 -209.666992188 525.833007812 -214 517.5 -214 c 0
 509.166992188 -214 505 -209.666992188 505 -201 c 2
 505 138 l 1
 485.666992188 98 457.166992188 65.8330078125 419.5 41.5 c 0
 381.833007812 17.1669921875 340.666992188 5 296 5 c 0
 230 5 174.166992188 28.6669921875 128.5 76 c 0
 82.8330078125 123.333007812 60 180.666992188 60 248 c 0
 60 315.333007812 82.8330078125 372.5 128.5 419.5 c 0
 174.166992188 466.5 230 490 296 490 c 0
 340.666992188 490 381.833007812 477.833007812 419.5 453.5 c 0
 457.166992188 429.166992188 485.666992188 396.666992188 505 356 c 1
 505 477 l 2
 505 485.666992188 509.166992188 490 517.5 490 c 0
 525.833007812 490 530 485.666992188 530 477 c 2
 530 -201 l 2
505 248 m 2
 505 257 l 1
 503 314.333007812 481.5 363.333007812 440.5 404 c 0
 399.5 444.666992188 350.833007812 465 294.5 465 c 0
 238.166992188 465 189.333007812 443.666992188 148 401 c 0
 106.666992188 358.333007812 86 307.166992188 86 247.5 c 0
 86 187.833007812 106.666992188 136.833007812 148 94.5 c 0
 189.333007812 52.1669921875 238.666992188 31 296 31 c 0
 353.333007812 31 402.5 52.1669921875 443.5 94.5 c 0
 484.5 136.833007812 505 188 505 248 c 2
EndSplineSet
EndChar

StartChar: r
Encoding: 114 114 54
Width: 439
Flags: MW
HStem: 0 21G<102 110> 464 26<306 348.333>
VStem: 94 24<13 242 311 477>
LayerCount: 2
Fore
SplineSet
344 464 m 0
 245.333007812 464 170 390 118 242 c 1
 118 13 l 2
 118 4.3330078125 114 0 106 0 c 0
 98 0 94 4.3330078125 94 13 c 2
 94 242 l 2
 93.3330078125 243.333007812 93.3330078125 245.333007812 94 248 c 2
 94 477 l 2
 94 480.333007812 95.1669921875 483.333007812 97.5 486 c 0
 99.8330078125 488.666992188 102.666992188 490 106 490 c 0
 114 490 118 485.666992188 118 477 c 2
 118 311 l 1
 127.333007812 333 137.666992188 352.333007812 149 369 c 0
 203 449.666992188 268 490 344 490 c 0
 352.666992188 490 357 485.666992188 357 477 c 0
 357 468.333007812 352.666992188 464 344 464 c 0
EndSplineSet
EndChar

StartChar: s
Encoding: 115 115 55
Width: 492
Flags: MW
HStem: 0 25<237 273.333 237 277.333> 474 26<233.333 259 223 278>
VStem: 96 26<365.539 394 364.095 397.77> 413 26<125 153.733>
LayerCount: 2
Fore
SplineSet
251 0 m 0
 220.333007812 0 189.333007812 6.1669921875 158 18.5 c 0
 115.672851562 35.1611328125 85.3388671875 52.6611328125 67 71 c 0
 63 75 61.8330078125 79.3330078125 63.5 84 c 0
 65.1669921875 88.6669921875 68 91.6669921875 72 93 c 0
 76 94.3330078125 80 93.1669921875 84 89.5 c 0
 88 85.8330078125 95.5 80 106.5 72 c 0
 117.5 64 137.333007812 54.1669921875 166 42.5 c 0
 194.666992188 30.8330078125 223 25 251 25 c 0
 295.666992188 25 333.833007812 36.3330078125 365.5 59 c 0
 397.166992188 81.6669921875 413 109 413 141 c 0
 413 166.466796875 405.5 185.799804688 390.5 199 c 0
 373.482421875 213.975585938 356.311523438 224.21875 338.987304688 229.731445312 c 0
 315.487304688 237.208984375 291.447265625 243.7890625 266.868164062 249.473632812 c 0
 242.2890625 255.158203125 224.833007812 259.333007812 214.5 262 c 0
 204.166992188 264.666992188 189.833007812 269.833007812 171.5 277.5 c 0
 153.166992188 285.166992188 139.666992188 293 131 301 c 0
 107.666992188 322.538085938 96 349.422851562 96 381.654296875 c 0
 96 413.884765625 111.166992188 441.666992188 141.5 465 c 0
 171.833007812 488.333007812 205 500 241 500 c 0
 277 500 307.666992188 494.833007812 333 484.5 c 0
 369.015625 469.809570312 392.015625 454.975585938 402 440 c 0
 405.333007812 436.666992188 406 432.666992188 404 428 c 0
 402 423.333007812 398.833007812 420.5 394.5 419.5 c 0
 390.166992188 418.5 386.333007812 419.666992188 383 423 c 0
 349 457 305 474 251 474 c 0
 215.666992188 474 185.333007812 465 160 447 c 0
 134.666992188 429 122 407 122 381 c 0
 122 347.190429688 137.166992188 322.857421875 167.5 308 c 0
 192.1484375 295.927734375 220.560546875 286.2421875 252.736328125 278.9453125 c 0
 284.912109375 271.6484375 306.833007812 266.333007812 318.5 263 c 0
 330.166992188 259.666992188 344.833007812 254.5 362.5 247.5 c 0
 380.166992188 240.5 393.666992188 232.666992188 403 224 c 0
 427 201.713867188 439 172.4765625 439 136.286132812 c 0
 439 100.095703125 420.833007812 68.3330078125 384.5 41 c 0
 348.166992188 13.6669921875 303.666992188 0 251 0 c 0
EndSplineSet
EndChar

StartChar: t
Encoding: 116 116 56
Width: 400
Flags: MW
HStem: -1 21G<204.667 219.333> 465 25<50.6665 139 55 139 164 244> 679 20G<147.333 155.667>
VStem: 139 25<75 465 490 686>
LayerCount: 2
Fore
SplineSet
244 490 m 2
 252.666992188 490 257 485.833007812 257 477.5 c 0
 257 469.166992188 252.666992188 465 244 465 c 2
 164 465 l 1
 164 75 l 2
 164 61 169 49 179 39 c 0
 189 29 199.666992188 24 211 24 c 0
 222.333007812 24 228 19.8330078125 228 11.5 c 0
 228 3.1669921875 223.666992188 -1 215 -1 c 0
 194.333007812 -1 176.5 6.5 161.5 21.5 c 0
 146.5 36.5 139 54.3330078125 139 75 c 2
 139 465 l 1
 55 465 l 2
 46.3330078125 465 42 469.166992188 42 477.5 c 0
 42 485.833007812 46.3330078125 490 55 490 c 2
 139 490 l 1
 139 686 l 2
 139 694.666992188 143.166992188 699 151.5 699 c 0
 159.833007812 699 164 694.666992188 164 686 c 2
 164 490 l 1
 244 490 l 2
EndSplineSet
EndChar

StartChar: u
Encoding: 117 117 57
Width: 613
Flags: MW
HStem: 0 25<255.333 302.667 255.333 306.667> 470 20G<91.6665 97.6665 462.333 468.333>
VStem: 83 25<198 477> 451 26<198 477>
LayerCount: 2
Fore
SplineSet
83 477 m 2
 83 485.666992188 87.3330078125 490 96 490 c 0
 99.3330078125 490 102.166992188 488.666992188 104.5 486 c 0
 106.833007812 483.333007812 108 480.333007812 108 477 c 2
 108 198 l 2
 108 150 124.666992188 109.166992188 158 75.5 c 0
 191.333007812 41.8330078125 231.666992188 25 279 25 c 0
 326.333007812 25 366.833007812 41.8330078125 400.5 75.5 c 0
 434.166992188 109.166992188 451 150 451 198 c 2
 451 477 l 2
 451 480.333007812 452.333007812 483.333007812 455 486 c 0
 457.666992188 488.666992188 460.666992188 490 464 490 c 0
 472.666992188 490 477 485.666992188 477 477 c 2
 477 198 l 2
 477 143.333007812 457.666992188 96.6669921875 419 58 c 0
 380.333007812 19.3330078125 333.833007812 0 279.5 0 c 0
 225.166992188 0 178.833007812 19.3330078125 140.5 58 c 0
 102.166992188 96.6669921875 83 143.333007812 83 198 c 2
 83 477 l 2
EndSplineSet
EndChar

StartChar: v
Encoding: 118 118 58
Width: 582
Flags: MW
HStem: 0 21G<260 264 260 260>
LayerCount: 2
Fore
SplineSet
264 0 m 2
 260 0 l 1
 256 1.3330078125 253 4 251 8 c 2
 56 471 l 2
 54 475 54.5 478.833007812 57.5 482.5 c 0
 60.5 486.166992188 64.3330078125 487.833007812 69 487.5 c 0
 73.6669921875 487.166992188 77 484.666992188 79 480 c 2
 263 45 l 1
 447 480 l 2
 448.333007812 485.333007812 451.333007812 488 456 488 c 0
 460.666992188 488 464.666992188 486.166992188 468 482.5 c 0
 471.333007812 478.833007812 472 475 470 471 c 2
 275 9 l 2
 275 7 273.666992188 5 271 3 c 0
 268.333007812 1 266 0 264 0 c 2
EndSplineSet
EndChar

StartChar: w
Encoding: 119 119 59
Width: 861
Flags: W
HStem: 0 21G<264 265 265 271 555.333 557.667> 1 21G<549 551>
LayerCount: 2
Fore
SplineSet
568 8 m 2x80
 568 6 566.666992188 4.1669921875 564 2.5 c 0
 561.333007812 0.8330078125 558.833007812 0 556.5 0 c 0x80
 554.166992188 0 552.333007812 0.3330078125 551 1 c 0x40
 547 1 545 2.6669921875 545 6 c 1
 544.333007812 6 544 6.3330078125 544 7 c 2
 544 8 l 1
 412 322 l 1
 280 8 l 2
 278 3.3330078125 275 0.6669921875 271 0 c 2
 265 0 l 2
 263 0 260.833007812 1.1669921875 258.5 3.5 c 0
 256.166992188 5.8330078125 255 8 255 10 c 2
 61 471 l 2
 57 479 59.3330078125 484.333007812 68 487 c 1
 75.3330078125 491 81 489 85 481 c 2
 268 45 l 1
 399 357 l 2
 401 363 405 365.666992188 411 365 c 0
 417 364.333007812 421.666992188 361.666992188 425 357 c 1
 556 45 l 1
 740 481 l 2
 741.333007812 485.666992188 744.5 488 749.5 488 c 0
 754.5 488 758.5 486.333007812 761.5 483 c 0
 764.5 479.666992188 765 475.666992188 763 471 c 2
 568 8 l 2x80
EndSplineSet
EndChar

StartChar: x
Encoding: 120 120 60
Width: 570
Flags: MW
HStem: 0 21G<79.6665 83.3335 416.333 420.667>
LayerCount: 2
Fore
SplineSet
73 3 m 0
 66.3330078125 7 65.6669921875 12.6669921875 71 20 c 2
 235 245 l 1
 71 469 l 2
 65.6669921875 475 66.3330078125 480.666992188 73 486 c 1
 80.3330078125 490 86.3330078125 489 91 483 c 2
 251 265 l 1
 408 483 l 2
 411.333007812 486.333007812 415.5 487.666992188 420.5 487 c 0
 425.5 486.333007812 429 484.166992188 431 480.5 c 0
 433 476.833007812 432.666992188 473 430 469 c 2
 267 245 l 1
 430 20 l 2
 435.333007812 12.6669921875 434 7 426 3 c 1
 425.333007812 1 422.833007812 0 418.5 0 c 0
 414.166992188 0 410.666992188 1.6669921875 408 5 c 2
 251 223 l 1
 91 5 l 2
 88.3330078125 1.6669921875 85.1669921875 0 81.5 0 c 0
 77.8330078125 0 75 1 73 3 c 0
EndSplineSet
EndChar

StartChar: y
Encoding: 121 121 61
Width: 588
Flags: W
HStem: -202 25<197.667 241.333 197.667 245> 2 25<224.333 267> 469 20G<436 436> 470 20G<60.6665 66.6665 431 433 433 433.333>
VStem: 52 25<198 477> 418 25<28 102 102 102 191 477>
LayerCount: 2
Fore
SplineSet
418 479 m 2xdc
 418 481.888671875 419.333007812 484.444335938 422 486.666992188 c 0
 424.666992188 488.888671875 427.666992188 490 431 490 c 2
 433 490 l 2xdc
 433.666992188 490 434.166992188 489.833007812 434.5 489.5 c 2
 436 489 l 1xec
 440.666992188 484.333007812 443 480.333007812 443 477 c 2
 443 28 l 2
 443 -35.3330078125 420.666992188 -89.5 376 -134.5 c 0
 331.333007812 -179.5 277 -202 213 -202 c 0
 178.333007812 -202 145 -194 113 -178 c 0
 105 -174.666992188 103.333007812 -169 108 -161 c 1
 110.666992188 -153.666992188 115.666992188 -151.666992188 123 -155 c 0
 152.333007812 -169.666992188 182.333007812 -177 213 -177 c 0
 269.666992188 -177 318 -157 358 -117 c 0
 398 -77 418 -28.6669921875 418 28 c 2
 418 102 l 1
 402 71.3330078125 378.833007812 47 348.5 29 c 0
 318.166992188 11 285 2 249 2 c 0
 194.333007812 2 147.833007812 21.1669921875 109.5 59.5 c 0
 71.1669921875 97.8330078125 52 144 52 198 c 2
 52 477 l 2
 52 485.666992188 56.3330078125 490 65 490 c 0
 68.3330078125 490 71.1669921875 488.666992188 73.5 486 c 0
 75.8330078125 483.333007812 77 480.333007812 77 477 c 2
 77 198 l 2
 77 150.666992188 93.8330078125 110.333007812 127.5 77 c 0
 161.166992188 43.6669921875 201.166992188 27 247.5 27 c 0
 293.833007812 27 333.333007812 43 366 75 c 0
 398.666992188 107 416 145.666992188 418 191 c 1
 418 479 l 2xdc
EndSplineSet
EndChar

StartChar: z
Encoding: 122 122 62
Width: 554
Flags: MW
HStem: 0 25<73.3335 415 100 415 100 415> 464 26<72 412 76 390>
LayerCount: 2
Fore
SplineSet
428 479 m 1
 428 475 l 2
 428 474.333007812 427.833007812 473.833007812 427.5 473.5 c 0
 426.5 470.5 424.666992188 467.666992188 422 465 c 2
 100 25 l 1
 415 25 l 2
 423.666992188 25 428 20.8330078125 428 12.5 c 0
 428 4.1669921875 423.666992188 0 415 0 c 2
 76 0 l 2
 70.6669921875 0 66.6669921875 2.1669921875 64 6.5 c 0
 61.3330078125 10.8330078125 62 15.3330078125 66 20 c 2
 390 464 l 1
 76 464 l 2
 68 464 64 468.333007812 64 477 c 0
 64 485.666992188 68 490 76 490 c 2
 412 490 l 2
 420 490 425.333007812 486.333007812 428 479 c 1
EndSplineSet
EndChar

StartChar: exclam
Encoding: 33 33 63
Width: 252
Flags: MW
HStem: 0 21G<101.333 109.667> 680 20G<101.333 109.667>
VStem: 93 25<13 37 8.6665 41 167 687>
LayerCount: 2
Fore
SplineSet
93 687 m 2
 93 695.666992188 97.1669921875 700 105.5 700 c 0
 113.833007812 700 118 695.666992188 118 687 c 2
 118 167 l 2
 118 159 113.833007812 155 105.5 155 c 0
 97.1669921875 155 93 159 93 167 c 2
 93 687 l 2
93 37 m 2
 93 45 97.3330078125 49 106 49 c 0
 108.666992188 49 111.333007812 47.8330078125 114 45.5 c 0
 116.666992188 43.1669921875 118 40.3330078125 118 37 c 2
 118 13 l 2
 118 4.3330078125 113.833007812 0 105.5 0 c 0
 97.1669921875 0 93 4.3330078125 93 13 c 2
 93 37 l 2
EndSplineSet
EndChar

StartChar: parenleft
Encoding: 40 40 64
Width: 430
Flags: MW
HStem: -97 29<255.667 288> 674 29<286 288>
VStem: 71 29<247 359 247 360.667>
LayerCount: 2
Fore
SplineSet
286 -97 m 0
 211.333007812 -97 155.666992188 -56.3330078125 119 25 c 0
 87 95 71 187.666992188 71 303 c 0
 71 418.333007812 87 511.333007812 119 582 c 0
 155.666992188 663.333007812 211.333007812 703.666992188 286 703 c 0
 296 703 301 698.333007812 301 689 c 0
 301 685 299.5 681.5 296.5 678.5 c 0
 293.5 675.5 290 674 286 674 c 0
 224.666992188 674 178.333007812 640.166992188 147 572.5 c 0
 115.666992188 504.833007812 100 415 100 303 c 0
 100 191 115.833007812 101.166992188 147.5 33.5 c 0
 179.166992188 -34.1669921875 225.333007812 -68 286 -68 c 0
 296 -68 301 -72.6669921875 301 -82 c 0
 301 -86 299.5 -89.5 296.5 -92.5 c 0
 293.5 -95.5 290 -97 286 -97 c 0
EndSplineSet
EndChar

StartChar: parenright
Encoding: 41 41 65
Width: 430
Flags: MW
HStem: -97 29<73 105.333 70 112.333> 674 29<73 75 70 105.667>
VStem: 261 29<247 359>
LayerCount: 2
Fore
SplineSet
242 25 m 0
 205.333007812 -56.3330078125 149.666992188 -97 75 -97 c 0
 71 -97 67.5 -95.5 64.5 -92.5 c 0
 61.5 -89.5 60 -86 60 -82 c 0
 60 -72.6669921875 65 -68 75 -68 c 0
 135.666992188 -68 181.833007812 -34.1669921875 213.5 33.5 c 0
 245.166992188 101.166992188 261 191 261 303 c 0
 261 415 245.333007812 504.833007812 214 572.5 c 0
 182.666992188 640.166992188 136.333007812 674 75 674 c 0
 71 674 67.5 675.5 64.5 678.5 c 0
 61.5 681.5 60 685 60 689 c 0
 60 698.333007812 65 703 75 703 c 0
 149.666992188 703.666992188 205.333007812 663.333007812 242 582 c 0
 274 511.333007812 290 418.333007812 290 303 c 0
 290 187.666992188 274 95 242 25 c 0
EndSplineSet
EndChar

StartChar: plus
Encoding: 43 43 66
Width: 620
Flags: MW
HStem: 98 21G<305 313> 327 35<76 293 82 293 328 540> 571 20G<305 313>
VStem: 293 35<116 327 362 574>
LayerCount: 2
Fore
SplineSet
293 116 m 2
 293 327 l 1
 82 327 l 2
 70 327 64 332.833007812 64 344.5 c 0
 64 356.166992188 70 362 82 362 c 2
 293 362 l 1
 293 574 l 2
 293 585.333007812 299 591 311 591 c 0
 315 591 318.833007812 589.333007812 322.5 586 c 0
 326.166992188 582.666992188 328 578.666992188 328 574 c 2
 328 362 l 1
 540 362 l 2
 544 362 547.833007812 360.333007812 551.5 357 c 0
 555.166992188 353.666992188 557 349.666992188 557 345 c 0
 557 340.333007812 555.166992188 336.166992188 551.5 332.5 c 0
 547.833007812 328.833007812 544 327 540 327 c 2
 328 327 l 1
 328 116 l 2
 328 111.333007812 326.166992188 107.166992188 322.5 103.5 c 0
 318.833007812 99.8330078125 315 98 311 98 c 0
 299 98 293 104 293 116 c 2
EndSplineSet
EndChar

StartChar: less
Encoding: 60 60 67
Width: 620
Flags: MW
HStem: 0 21G<404.667 409.333>
LayerCount: 2
Fore
SplineSet
396 4 m 2
 66 337 l 2
 65.3330078125 337 64.3330078125 337.833007812 63 339.5 c 0
 61.6669921875 341.166992188 61 342.666992188 61 344 c 0
 59.5 347 60.1669921875 351.333007812 63 357 c 0
 65 359 176 471.333007812 396 694 c 0
 403.333007812 701.333007812 410.666992188 701.333007812 418 694 c 1
 422.666992188 686.666992188 422.666992188 679.333007812 418 672 c 1
 96 348 l 1
 418 25 l 1
 422.666992188 18.3330078125 422.666992188 11.3330078125 418 4 c 0
 415.333007812 1.3330078125 411.666992188 0 407 0 c 0
 402.333007812 0 398.666992188 1.3330078125 396 4 c 2
EndSplineSet
EndChar

StartChar: greater
Encoding: 62 62 68
Width: 620
Flags: MW
HStem: 0 21G<101.667 106.333>
LayerCount: 2
Fore
SplineSet
450 352 m 1
 450 344 l 2
 449.333007812 343.333007812 448.333007812 342 447 340 c 0
 445.666992188 338 335 226 115 4 c 0
 112.333007812 1.3330078125 108.666992188 0 104 0 c 0
 99.3330078125 0 95.6669921875 1.3330078125 93 4 c 0
 88.3330078125 11.3330078125 88.3330078125 18.3330078125 93 25 c 1
 414 348 l 1
 93 672 l 1
 88.3330078125 679.333007812 88.3330078125 686.666992188 93 694 c 1
 100.333007812 701.333007812 107.666992188 701.333007812 115 694 c 2
 444 360 l 1
 446 359 l 2
 446 358.333007812 446.166992188 358 446.5 358 c 0
 446.833007812 358 448 356 450 352 c 1
EndSplineSet
EndChar

StartChar: A
Encoding: 65 65 69
Width: 646
Flags: W
HStem: 2 21G<69 72> 3 21G<64 64.3335 580.667 581> 190 26<157 487 157 497 147 487> 680 20G
LayerCount: 2
Fore
SplineSet
581 3 m 0x70
 580.333007812 3 578.166992188 2.8330078125 574.5 2.5 c 0
 570.833007812 2.1669921875 567.333007812 5 564 11 c 1
 497 190 l 1
 147 190 l 1
 80 11 l 2
 78.6669921875 5 75 2 69 2 c 0xb0
 66.3330078125 2.6669921875 64.6669921875 3 64 3 c 0
 56.6669921875 6.3330078125 54.6669921875 12 58 20 c 2
 310 692 l 2
 312 698.666992188 316 701.666992188 322 701 c 0
 328 700.333007812 332.666992188 697.333007812 336 692 c 1
 588 20 l 2
 591.333007812 12.6669921875 589 7 581 3 c 0x70
322 654 m 1
 157 216 l 1
 487 216 l 1
 322 654 l 1
EndSplineSet
EndChar

StartChar: period
Encoding: 46 46 70
Width: 230
Flags: MW
HStem: -8 68<111.333 120.667>
VStem: 82 68<21.3335 30.6665>
LayerCount: 2
Fore
SplineSet
82 26 m 0
 82 35.3330078125 85.3330078125 43.3330078125 92 50 c 0
 98.6669921875 56.6669921875 106.666992188 60 116 60 c 0
 125.333007812 60 133.333007812 56.6669921875 140 50 c 0
 146.666992188 43.3330078125 150 35.3330078125 150 26 c 0
 150 16.6669921875 146.666992188 8.6669921875 140 2 c 0
 133.333007812 -4.6669921875 125.333007812 -8 116 -8 c 0
 106.666992188 -8 98.6669921875 -4.6669921875 92 2 c 0
 85.3330078125 8.6669921875 82 16.6669921875 82 26 c 0
EndSplineSet
EndChar

StartChar: question
Encoding: 63 63 71
Width: 534
Flags: MW
HStem: 0 21G<220 228> 277 24<236 236> 676 24<206.667 249.667>
VStem: 212 24<12 35 8 39 155 277> 410 25<462.667 514.333>
LayerCount: 2
Fore
SplineSet
212 155 m 2
 212 289 l 2
 212 297 216 301 224 301 c 0
 274.666992188 301 318.333007812 319.333007812 355 356 c 0
 391.666992188 392.666992188 410 436.833007812 410 488.5 c 0
 410 540.166992188 391.833007812 584.333007812 355.5 621 c 0
 319.166992188 657.666992188 275.333007812 676 224 676 c 0
 189.333007812 676 157.666992188 667.5 129 650.5 c 0
 100.333007812 633.5 77.6669921875 610.666992188 61 582 c 1
 55.556640625 575.196289062 49.8681640625 574.251953125 43.93359375 579.166992188 c 0
 37.9990234375 584.08203125 37.021484375 589.026367188 41 594 c 1
 59 626.666992188 84.3330078125 652.5 117 671.5 c 0
 149.666992188 690.5 185.333007812 700 224 700 c 0
 281.333007812 700 330.833007812 679.333007812 372.5 638 c 0
 414.166992188 596.666992188 435 547.333007812 435 490 c 0
 435 432.666992188 415.5 383.666992188 376.5 343 c 0
 337.5 302.333007812 290.666992188 280.333007812 236 277 c 1
 236 155 l 2
 236 151.666992188 234.666992188 148.833007812 232 146.5 c 0
 229.333007812 144.166992188 226.666992188 143 224 143 c 0
 216 143 212 147 212 155 c 2
212 12 m 2
 212 35 l 2
 212 43 216 47 224 47 c 0
 226.666992188 47 229.333007812 45.8330078125 232 43.5 c 0
 234.666992188 41.1669921875 236 38.3330078125 236 35 c 2
 236 12 l 2
 236 4 232 0 224 0 c 0
 216 0 212 4 212 12 c 2
EndSplineSet
EndChar

StartChar: equal
Encoding: 61 61 72
Width: 620
Flags: MW
HStem: 231 29<89 436 94 436> 439 27<89 436 94 436>
LayerCount: 2
Fore
SplineSet
79 244 m 0
 79 254.666992188 84 260 94 260 c 2
 436 260 l 2
 440 260 443.5 258.333007812 446.5 255 c 0
 449.5 251.666992188 451 248 451 244 c 0
 451 235.333007812 446 231 436 231 c 2
 94 231 l 2
 84 231 79 235.333007812 79 244 c 0
79 451 m 0
 79 461 84 466 94 466 c 2
 436 466 l 2
 440 466 443.5 464.5 446.5 461.5 c 0
 449.5 458.5 451 455.166992188 451 451.5 c 0
 451 447.833007812 449.5 444.833007812 446.5 442.5 c 0
 443.5 440.166992188 440 439 436 439 c 2
 94 439 l 2
 84 439 79 443 79 451 c 0
EndSplineSet
EndChar

StartChar: hyphen
Encoding: 45 45 73
Width: 408
Flags: MW
HStem: 340 20<72.6665 304 76 304>
LayerCount: 2
Fore
SplineSet
76 340 m 2
 69.3330078125 340 66 343.333007812 66 350 c 0
 66 356.666992188 69.3330078125 360 76 360 c 2
 304 360 l 2
 310 360 313 356.666992188 313 350 c 0
 313 343.333007812 310 340 304 340 c 2
 76 340 l 2
EndSplineSet
EndChar

StartChar: slash
Encoding: 47 47 74
Width: 422
Flags: MW
HStem: 0 21G<85.3335 90.6665>
LayerCount: 2
Fore
SplineSet
98 8 m 2
 96.6669921875 2.6669921875 93.3330078125 0 88 0 c 0
 82.6669921875 0 78.8330078125 2 76.5 6 c 0
 74.1669921875 10 74 14 76 18 c 2
 359 690 l 2
 360.333007812 693.333007812 362.666992188 695.666992188 366 697 c 0
 369.333007812 698.333007812 372.333007812 698.333007812 375 697 c 0
 383 694.333007812 385.666992188 689 383 681 c 2
 98 8 l 2
EndSplineSet
EndChar

StartChar: colon
Encoding: 58 58 75
Width: 240
Flags: MW
HStem: -4 93<115.333 124.667> 421 93<115.333 124.667>
VStem: 87 66<29 56 24.3335 60.6665 454 481>
LayerCount: 2
Fore
SplineSet
87 481 m 2
 87 490.333007812 90.1669921875 498.166992188 96.5 504.5 c 0
 102.833007812 510.833007812 110.666992188 514 120 514 c 0
 129.333007812 514 137.166992188 510.833007812 143.5 504.5 c 0
 149.833007812 498.166992188 153 490.333007812 153 481 c 2
 153 454 l 2
 153 444.666992188 149.833007812 436.833007812 143.5 430.5 c 0
 137.166992188 424.166992188 129.333007812 421 120 421 c 0
 110.666992188 421 102.833007812 424.166992188 96.5 430.5 c 0
 90.1669921875 436.833007812 87 444.666992188 87 454 c 2
 87 481 l 2
87 56 m 2
 87 65.3330078125 90.1669921875 73.1669921875 96.5 79.5 c 0
 102.833007812 85.8330078125 110.666992188 89 120 89 c 0
 129.333007812 89 137.166992188 85.8330078125 143.5 79.5 c 0
 149.833007812 73.1669921875 153 65.3330078125 153 56 c 2
 153 29 l 2
 153 19.6669921875 149.833007812 11.8330078125 143.5 5.5 c 0
 137.166992188 -0.8330078125 129.333007812 -4 120 -4 c 0
 110.666992188 -4 102.833007812 -0.8330078125 96.5 5.5 c 0
 90.1669921875 11.8330078125 87 19.6669921875 87 29 c 2
 87 56 l 2
EndSplineSet
EndChar

StartChar: semicolon
Encoding: 59 59 76
Width: 240
Flags: MW
HStem: -105 21G<70.6665 82.3335> 421 93<115.333 124.667>
VStem: 87 66<35 56 5.3335 60.6665 454 481>
LayerCount: 2
Fore
SplineSet
87 481 m 2
 87 490.333007812 90.1669921875 498.166992188 96.5 504.5 c 0
 102.833007812 510.833007812 110.666992188 514 120 514 c 0
 129.333007812 514 137.166992188 510.833007812 143.5 504.5 c 0
 149.833007812 498.166992188 153 490.333007812 153 481 c 2
 153 454 l 2
 153 444.666992188 149.833007812 436.833007812 143.5 430.5 c 0
 137.166992188 424.166992188 129.333007812 421 120 421 c 0
 110.666992188 421 102.833007812 424.166992188 96.5 430.5 c 0
 90.1669921875 436.833007812 87 444.666992188 87 454 c 2
 87 481 l 2
59 -90 m 0
 59 -84.6669921875 61.6669921875 -80.3330078125 67 -77 c 0
 101 -58.3330078125 116.666992188 -32.6669921875 114 0 c 1
 96 4.6669921875 87 16.3330078125 87 35 c 2
 87 56 l 2
 87 65.3330078125 90.1669921875 73.1669921875 96.5 79.5 c 0
 102.833007812 85.8330078125 110.666992188 89 120 89 c 0
 129.333007812 89 137.166992188 85.8330078125 143.5 79.5 c 0
 149.833007812 73.1669921875 153 65.3330078125 153 56 c 2
 153 31 l 2
 153 -20.3330078125 143.166992188 -55.8330078125 123.5 -75.5 c 0
 103.833007812 -95.1669921875 88.1669921875 -105 76.5 -105 c 0
 64.8330078125 -105 59 -100 59 -90 c 0
EndSplineSet
EndChar

StartChar: comma
Encoding: 44 44 77
Width: 230
Flags: MW
HStem: -105 21G<65.6665 77.3335> 69 20G<110.333 119.667>
VStem: 82 66<35 56 5.3335 60.6665>
LayerCount: 2
Fore
SplineSet
54 -90 m 0
 54 -84.6669921875 56.6669921875 -80.3330078125 62 -77 c 0
 96 -58.3330078125 111.666992188 -32.6669921875 109 0 c 1
 91 4.6669921875 82 16.3330078125 82 35 c 2
 82 56 l 2
 82 65.3330078125 85.1669921875 73.1669921875 91.5 79.5 c 0
 97.8330078125 85.8330078125 105.666992188 89 115 89 c 0
 124.333007812 89 132.166992188 85.8330078125 138.5 79.5 c 0
 144.833007812 73.1669921875 148 65.3330078125 148 56 c 2
 148 31 l 2
 148 -20.3330078125 138.166992188 -55.8330078125 118.5 -75.5 c 0
 98.8330078125 -95.1669921875 83.1669921875 -105 71.5 -105 c 0
 59.8330078125 -105 54 -100 54 -90 c 0
EndSplineSet
EndChar

StartChar: quotesingle
Encoding: 39 39 78
Width: 230
Flags: MW
HStem: 442 21G<78.3335 87.6665> 682 20G<128 147 147 152.333>
LayerCount: 2
Fore
SplineSet
70 461 m 2
 100 676 l 2
 102.666992188 693.333007812 112 702 128 702 c 2
 147 702 l 2
 157.666992188 702 163 696.333007812 163 685 c 0
 163 684.333007812 161.333007812 676.333007812 158 661 c 2
 101 460 l 2
 97 448 91.3330078125 442 84 442 c 0
 72.6669921875 442 68 448.333007812 70 461 c 2
EndSplineSet
EndChar

StartChar: quotedbl
Encoding: 34 34 79
Width: 410
Flags: MW
HStem: 442 21G<78.3335 87.6665 258.333 267.667> 682 20G<128 147 147 152.333 308 327 327 332.333>
LayerCount: 2
Fore
SplineSet
250 461 m 2
 280 676 l 2
 282.666992188 693.333007812 292 702 308 702 c 2
 327 702 l 2
 337.666992188 702 343 696.333007812 343 685 c 0
 343 684.333007812 341.333007812 676.333007812 338 661 c 2
 281 460 l 2
 277 448 271.333007812 442 264 442 c 0
 252.666992188 442 248 448.333007812 250 461 c 2
70 461 m 2
 100 676 l 2
 102.666992188 693.333007812 112 702 128 702 c 2
 147 702 l 2
 157.666992188 702 163 696.333007812 163 685 c 0
 163 684.333007812 161.333007812 676.333007812 158 661 c 2
 101 460 l 2
 97 448 91.3330078125 442 84 442 c 0
 72.6669921875 442 68 448.333007812 70 461 c 2
EndSplineSet
EndChar

StartChar: underscore
Encoding: 95 95 80
Width: 600
Flags: MW
HStem: -160 34<-9.3335 332 -2 332>
LayerCount: 2
Fore
SplineSet
-2 -160 m 2
 -16.6669921875 -160 -24 -154.333007812 -24 -143 c 0
 -24 -131.666992188 -16.6669921875 -126 -2 -126 c 2
 332 -126 l 2
 346.666992188 -126 354 -131.666992188 354 -143 c 0
 354 -154.333007812 346.666992188 -160 332 -160 c 2
 -2 -160 l 2
EndSplineSet
EndChar

StartChar: asterisk
Encoding: 42 42 81
Width: 430
Flags: W
HStem: 402 21G<212 218> 686 20G<212 218>
VStem: 76 155 199 155
LayerCount: 2
Fore
SplineSet
195 424 m 2xd0
 203 533 l 1
 112 471 l 2
 106 467 100.5 465 95.5 465 c 0
 90.5 465 86 467.166992188 82 471.5 c 0
 78 475.833007812 76 481.5 76 488.5 c 0
 76 495.5 80.6669921875 501 90 505 c 2
 193 554 l 1
 90 603 l 2
 80.6669921875 607.666992188 76 614 76 622 c 0xe0
 76 634.666992188 82.6669921875 641.666992188 96 643 c 0
 100.666992188 643 106 641 112 637 c 2
 203 575 l 1
 195 684 l 2
 194.333007812 690 196 695.166992188 200 699.5 c 0
 204 703.833007812 209 706 215 706 c 0
 221 706 226 703.833007812 230 699.5 c 0
 234 695.166992188 235.666992188 690 235 684 c 2
 227 575 l 1
 318 637 l 2
 324 641 329.5 643 334.5 643 c 0
 339.5 643 344 640.833007812 348 636.5 c 0
 352 632.166992188 354 626.5 354 619.5 c 0
 354 612.5 349.333007812 607 340 603 c 2
 237 554 l 1
 340 505 l 2
 349.333007812 501 354 495.5 354 488.5 c 0
 354 481.5 352 475.833007812 348 471.5 c 0
 344 467.166992188 339.5 465 334.5 465 c 0
 329.5 465 324 467 318 471 c 2
 227 533 l 1
 235 424 l 2
 235.666992188 418 234 412.833007812 230 408.5 c 0
 226 404.166992188 221 402 215 402 c 0
 209 402 204 404.166992188 200 408.5 c 0
 196 412.833007812 194.333007812 418 195 424 c 2xd0
EndSplineSet
EndChar

StartChar: at
Encoding: 64 64 82
Width: 980
Flags: W
HStem: 0 26<358.333 417> 117 77 168 26<383 418.333> 507 24<383 423> 675 26<358.667 448.333>
VStem: 53 26<305.667 395.333 305.667 398.333> 231 26<329 372 329 375.333> 550 24<181 184 184 257 257 257 329 350> 728 26<323.667 395>
LayerCount: 2
Fore
SplineSet
630 118 m 1xbf80
 611 117 l 2xdf80
 593.666992188 117 579.166992188 123.333007812 567.5 136 c 0
 555.833007812 148.666992188 550 163.666992188 550 181 c 2
 550 257 l 1
 534.666992188 229.666992188 514 208 488 192 c 0
 462 176 433.666992188 168 403 168 c 0
 356.333007812 168 316 186 282 222 c 0
 248 258 231 300.833007812 231 350.5 c 0
 231 400.166992188 247.833007812 442.666992188 281.5 478 c 0
 315.166992188 513.333007812 355.666992188 531 403 531 c 0
 450.333007812 531 490.666992188 513.333007812 524 478 c 0
 557.333007812 442.666992188 574 400 574 350 c 2
 574 184 l 2
 574 173.333007812 577.5 163.833007812 584.5 155.5 c 0
 591.5 147.166992188 599.166992188 143 607.5 143 c 0
 615.833007812 143 621.333007812 144 624 146 c 1
 646.666992188 150 668 166 688 194 c 1
 693 203 l 1
 716.333007812 248.333007812 728 297.333007812 728 350 c 0
 728 440 696.333007812 516.666992188 633 580 c 0
 569.666992188 643.333007812 493.166992188 675 403.5 675 c 0
 313.833007812 675 237.333007812 643.333007812 174 580 c 0
 110.666992188 516.666992188 79 440.166992188 79 350.5 c 0
 79 260.833007812 110.666992188 184.333007812 174 121 c 0
 237.333007812 57.6669921875 313.666992188 26 403 26 c 0
 432.333007812 26 459 29.3330078125 483 36 c 0
 491 37.3330078125 496.666992188 34.3330078125 500 27 c 1
 501.333007812 19 498 13.3330078125 490 10 c 1
 460 3.3330078125 431 0 403 0 c 0
 306.333007812 0 223.833007812 34.1669921875 155.5 102.5 c 0
 87.1669921875 170.833007812 53 253.333007812 53 350 c 0
 53 446.666992188 87.1669921875 529.333007812 155.5 598 c 0
 223.833007812 666.666992188 306.333007812 701 403 701 c 0
 499.666992188 701 582.333007812 666.833007812 651 598.5 c 0
 719.666992188 530.166992188 754 447.333007812 754 350 c 0
 754 293.333007812 741 240 715 190 c 0
 707.84765625 175.694335938 696.05859375 161.28515625 679.635742188 146.770507812 c 0
 663.211914062 132.256835938 646.666992188 122.666992188 630 118 c 1xbf80
300 461 m 0
 271.333007812 430.333007812 257 393.5 257 350.5 c 0
 257 307.5 271.333007812 270.666992188 300 240 c 0
 328.666992188 209.333007812 363 194 403 194 c 0xbf80
 443 194 477.5 209.333007812 506.5 240 c 0
 535.5 270.666992188 550 307.5 550 350.5 c 0
 550 393.5 535.5 430.333007812 506.5 461 c 0
 477.5 491.666992188 443 507 403 507 c 0
 363 507 328.666992188 491.666992188 300 461 c 0
EndSplineSet
EndChar

StartChar: backslash
Encoding: 92 92 83
Width: 448
Flags: MW
HStem: 1 21G<354.333 358.667>
LayerCount: 2
Fore
SplineSet
364 2 m 0
 363.333007812 1.3330078125 360.833007812 1 356.5 1 c 0
 352.166992188 1 349.333007812 3.6669921875 348 9 c 2
 63 682 l 2
 60.3330078125 690 63 695.333007812 71 698 c 0
 73.6669921875 699.333007812 76.6669921875 699.333007812 80 698 c 0
 83.3330078125 696.666992188 85.6669921875 694.333007812 87 691 c 2
 370 19 l 2
 373.333007812 11 371.333007812 5.3330078125 364 2 c 0
EndSplineSet
EndChar

StartChar: quotedblleft
Encoding: 256 8220 84
Width: 410
Flags: MW
HStem: 509 194<105.333 159.333 147.667 294.667>
VStem: 77 66<542 563 537.333 567 537.333 592.667> 257 66<542 563 537.333 567 537.333 592.667>
LayerCount: 2
Fore
SplineSet
351 688 m 0
 351 682.666992188 348.333007812 678.333007812 343 675 c 0
 309 656.333007812 293.333007812 630.666992188 296 598 c 1
 314 593.333007812 323 581.666992188 323 563 c 2
 323 542 l 2
 323 532.666992188 319.833007812 524.833007812 313.5 518.5 c 0
 307.166992188 512.166992188 299.333007812 509 290 509 c 0
 280.666992188 509 272.833007812 512.166992188 266.5 518.5 c 0
 260.166992188 524.833007812 257 532.666992188 257 542 c 2
 257 567 l 2
 257 618.333007812 266.833007812 653.833007812 286.5 673.5 c 0
 306.166992188 693.166992188 321.833007812 703 333.5 703 c 0
 345.166992188 703 351 698 351 688 c 0
171 688 m 0
 171 682.666992188 168.333007812 678.333007812 163 675 c 0
 129 656.333007812 113.333007812 630.666992188 116 598 c 1
 134 593.333007812 143 581.666992188 143 563 c 2
 143 542 l 2
 143 532.666992188 139.833007812 524.833007812 133.5 518.5 c 0
 127.166992188 512.166992188 119.333007812 509 110 509 c 0
 100.666992188 509 92.8330078125 512.166992188 86.5 518.5 c 0
 80.1669921875 524.833007812 77 532.666992188 77 542 c 2
 77 567 l 2
 77 618.333007812 86.8330078125 653.833007812 106.5 673.5 c 0
 126.166992188 693.166992188 141.833007812 703 153.5 703 c 0
 165.166992188 703 171 698 171 688 c 0
EndSplineSet
EndChar

StartChar: quotedblright
Encoding: 257 8221 85
Width: 410
Flags: MW
HStem: 510 194<70.6665 124.667 115.333 262.333>
VStem: 87 66<650 671 620.333 675.333> 267 66<650 671 620.333 675.333>
LayerCount: 2
Fore
SplineSet
59 525 m 0
 59 530.333007812 61.6669921875 534.666992188 67 538 c 0
 101 556.666992188 116.666992188 582.333007812 114 615 c 1
 96 619.666992188 87 631.333007812 87 650 c 2
 87 671 l 2
 87 679.666992188 90.1669921875 687.333007812 96.5 694 c 0
 102.833007812 700.666992188 110.666992188 704 120 704 c 0
 129.333007812 704 137.166992188 700.666992188 143.5 694 c 0
 149.833007812 687.333007812 153 679.666992188 153 671 c 2
 153 646 l 2
 153 594.666992188 143.166992188 559.166992188 123.5 539.5 c 0
 103.833007812 519.833007812 88.1669921875 510 76.5 510 c 0
 64.8330078125 510 59 515 59 525 c 0
239 525 m 0
 239 530.333007812 241.666992188 534.666992188 247 538 c 0
 281 556.666992188 296.666992188 582.333007812 294 615 c 1
 276 619.666992188 267 631.333007812 267 650 c 2
 267 671 l 2
 267 679.666992188 270.166992188 687.333007812 276.5 694 c 0
 282.833007812 700.666992188 290.666992188 704 300 704 c 0
 309.333007812 704 317.166992188 700.666992188 323.5 694 c 0
 329.833007812 687.333007812 333 679.666992188 333 671 c 2
 333 646 l 2
 333 594.666992188 323.166992188 559.166992188 303.5 539.5 c 0
 283.833007812 519.833007812 268.166992188 510 256.5 510 c 0
 244.833007812 510 239 515 239 525 c 0
EndSplineSet
EndChar

StartChar: quoteleft
Encoding: 259 8216 87
Width: 230
Flags: MW
HStem: 509 21G<105.333 114.667> 683 20G<147.667 159.333>
VStem: 77 66<542 563 537.333 567 537.333 592.667>
LayerCount: 2
Fore
SplineSet
171 688 m 0
 171 682.666992188 168.333007812 678.333007812 163 675 c 0
 129 656.333007812 113.333007812 630.666992188 116 598 c 1
 134 593.333007812 143 581.666992188 143 563 c 2
 143 542 l 2
 143 532.666992188 139.833007812 524.833007812 133.5 518.5 c 0
 127.166992188 512.166992188 119.333007812 509 110 509 c 0
 100.666992188 509 92.8330078125 512.166992188 86.5 518.5 c 0
 80.1669921875 524.833007812 77 532.666992188 77 542 c 2
 77 567 l 2
 77 618.333007812 86.8330078125 653.833007812 106.5 673.5 c 0
 126.166992188 693.166992188 141.833007812 703 153.5 703 c 0
 165.166992188 703 171 698 171 688 c 0
EndSplineSet
EndChar

StartChar: quoteright
Encoding: 260 8217 88
Width: 230
Flags: MW
HStem: 510 21G<70.6665 82.3335> 684 20G<115.333 124.667>
VStem: 87 66<650 671 620.333 675.333>
LayerCount: 2
Fore
SplineSet
59 525 m 0
 59 530.333007812 61.6669921875 534.666992188 67 538 c 0
 101 556.666992188 116.666992188 582.333007812 114 615 c 1
 96 619.666992188 87 631.333007812 87 650 c 2
 87 671 l 2
 87 679.666992188 90.1669921875 687.333007812 96.5 694 c 0
 102.833007812 700.666992188 110.666992188 704 120 704 c 0
 129.333007812 704 137.166992188 700.666992188 143.5 694 c 0
 149.833007812 687.333007812 153 679.666992188 153 671 c 2
 153 646 l 2
 153 594.666992188 143.166992188 559.166992188 123.5 539.5 c 0
 103.833007812 519.833007812 88.1669921875 510 76.5 510 c 0
 64.8330078125 510 59 515 59 525 c 0
EndSplineSet
EndChar

StartChar: tilde
Encoding: 261 732 90
Width: 500
Flags: W
HStem: 590 21G<115.667 124.333> 602 37<307.333 323.333 307.333 332> 641 36<177.333 190.667 177.333 191> 679 20G<374.667 382>
LayerCount: 2
Fore
SplineSet
137 602 m 0x70
 133 594 127.666992188 590 121 590 c 0xb0
 110.333007812 590 105 594.333007812 105 603 c 0
 105 604.333007812 106.833007812 610.833007812 110.5 622.5 c 0
 114.166992188 634.166992188 124 646.166992188 140 658.5 c 0
 156 670.833007812 170.666992188 677 184 677 c 0
 197.333007812 677 219.333007812 670.666992188 250 658 c 0
 280.666992188 645.333007812 301.666992188 639 313 639 c 0
 333.666992188 639 350.333007812 653.333007812 363 682 c 1
 363 687.333007812 364.5 691.5 367.5 694.5 c 0
 370.5 697.5 373.333007812 699 376 699 c 0
 388 699 394 693.333007812 394 682 c 0
 394 678 393.333007812 674 392 670 c 0
 377.333007812 624.666992188 351 602 313 602 c 0
 301 602 279.666992188 608.5 249 621.5 c 0
 218.333007812 634.5 197 641 185 641 c 0
 164.333007812 641 148.333007812 628 137 602 c 0x70
EndSplineSet
EndChar

StartChar: asciitilde
Encoding: 126 126 91
Width: 460
Flags: W
HStem: 241 21G<95.6665 104.333> 253 37<287.333 303.333 287.333 312> 292 36<157.333 170.667 157.333 171> 330 20G<354.667 362>
LayerCount: 2
Fore
SplineSet
117 253 m 0x70
 113 245 107.666992188 241 101 241 c 0xb0
 90.3330078125 241 85 245.333007812 85 254 c 0
 85 255.333007812 86.8330078125 261.833007812 90.5 273.5 c 0
 94.1669921875 285.166992188 104 297.166992188 120 309.5 c 0
 136 321.833007812 150.666992188 328 164 328 c 0
 177.333007812 328 199.333007812 321.666992188 230 309 c 0
 260.666992188 296.333007812 281.666992188 290 293 290 c 0
 313.666992188 290 330.333007812 304.333007812 343 333 c 1
 343 338.333007812 344.5 342.5 347.5 345.5 c 0
 350.5 348.5 353.333007812 350 356 350 c 0
 368 350 374 344.333007812 374 333 c 0
 374 329 373.333007812 325 372 321 c 0
 357.333007812 275.666992188 331 253 293 253 c 0
 281 253 259.666992188 259.5 229 272.5 c 0
 198.333007812 285.5 177 292 165 292 c 0
 144.333007812 292 128.333007812 279 117 253 c 0x70
EndSplineSet
EndChar

StartChar: circumflex
Encoding: 262 710 92
Width: 500
Flags: MW
HStem: 700 20G<246 254 254 258.333>
LayerCount: 2
Fore
SplineSet
249 694 m 1
 180 618 l 2
 168 606 159.666992188 600 155 600 c 0
 145.783203125 601.123046875 141.116210938 601.790039062 141 602 c 0
 141 606 142.666992188 610 146 614 c 2
 218 702 l 2
 228 714 237.333007812 720 246 720 c 2
 254 720 l 2
 262.666992188 720 272 714 282 702 c 2
 354 614 l 2
 357.333007812 610 359 606 359 602 c 0
 359 599.333007812 357.333007812 598.333007812 354 599 c 0
 350.666992188 599.666992188 347.166992188 600 343.5 600 c 0
 339.833007812 600 331.666992188 606.333007812 319 619 c 2
 249 694 l 1
EndSplineSet
EndChar

StartChar: grave
Encoding: 96 96 93
Width: 500
Flags: MW
HStem: 703 20G<177.333 188.667>
LayerCount: 2
Fore
SplineSet
274 612 m 2
 276.666992188 608 278 604 278 600 c 0
 278 596 274.166992188 595.666992188 266.5 599 c 0
 258.833007812 602.333007812 252.333007812 607 247 613 c 2
 176 690 l 2
 167.333007812 698.666992188 164 704.666992188 166 708 c 1
 166 718 171.666992188 723 183 723 c 0
 194.333007812 723 204 717 212 705 c 2
 274 612 l 2
EndSplineSet
EndChar

StartChar: acute
Encoding: 180 180 94
Width: 500
Flags: MW
HStem: 703 20G<287.333 295.667>
LayerCount: 2
Fore
SplineSet
232 613 m 2
 226.666992188 607 220.166992188 602.333007812 212.5 599 c 0
 204.833007812 595.666992188 201 596 201 600 c 0
 201 604 202.333007812 608 205 612 c 2
 267 705 l 2
 275 717 283.166992188 723 291.5 723 c 0
 299.833007812 723 305.166992188 722.166992188 307.5 720.5 c 0
 311.166992188 717.880859375 313 713.713867188 313 708 c 1
 315 704.666992188 311.666992188 698.666992188 303 690 c 2
 232 613 l 2
EndSplineSet
EndChar

StartChar: Eacute
Encoding: 201 201 96
Width: 593
Flags: W
HStem: 0 25<112 489 129 489 129 489> 338 25<129 446 129 446> 675 25<129 489 129 129> 675 248<337.333 345.667 337.333 489 129 345.667>
VStem: 104 25<25 338 363 675>
LayerCount: 2
Fore
SplineSet
489 0 m 2xe8
 116 0 l 2
 108 0 104 4.3330078125 104 13 c 2
 104 687 l 2
 104 694.333007812 108 698.666992188 116 700 c 1
 489 700 l 2
 497 700 501 695.833007812 501 687.5 c 0
 501 679.166992188 497 675 489 675 c 2
 129 675 l 1
 129 363 l 1
 446 363 l 2
 454 363 458 358.833007812 458 350.5 c 0
 458 342.166992188 454 338 446 338 c 2
 129 338 l 1
 129 25 l 1
 489 25 l 2
 497 25 501 20.8330078125 501 12.5 c 0
 501 4.1669921875 497 0 489 0 c 2xe8
282 813 m 2
 276.666992188 807 270.166992188 802.333007812 262.5 799 c 0
 254.833007812 795.666992188 251 796 251 800 c 0
 251 804 252.333007812 808 255 812 c 2
 317 905 l 2
 325 917 333.166992188 923 341.5 923 c 0xd8
 349.833007812 923 355.166992188 922.166992188 357.5 920.5 c 0
 361.166992188 917.880859375 363 913.713867188 363 908 c 1
 365 904.666992188 361.666992188 898.666992188 353 890 c 2
 282 813 l 2
EndSplineSet
EndChar

StartChar: Igrave
Encoding: 204 204 98
Width: 348
Flags: MW
HStem: 0 21G<201.333 209.667> 680 20G<201.333 209.667> 903 20G<162.333 173.667>
VStem: 193 25<8.6665 687 13 687>
LayerCount: 2
Fore
SplineSet
193 13 m 2
 193 4.3330078125 197.166992188 0 205.5 0 c 0
 213.833007812 0 218 4.3330078125 218 13 c 2
 218 687 l 2
 218 695.666992188 213.833007812 700 205.5 700 c 0
 197.166992188 700 193 695.666992188 193 687 c 2
 193 13 l 2
259 812 m 2
 261.666992188 808 263 804 263 800 c 0
 263 796 259.166992188 795.666992188 251.5 799 c 0
 243.833007812 802.333007812 237.333007812 807 232 813 c 2
 161 890 l 2
 152.333007812 898.666992188 149 904.666992188 151 908 c 1
 151 918 156.666992188 923 168 923 c 0
 179.333007812 923 189 917 197 905 c 2
 259 812 l 2
EndSplineSet
EndChar

StartChar: Iacute
Encoding: 205 205 99
Width: 274
Flags: MW
HStem: 0 21G<136.333 144.667> 680 20G<136.333 144.667> 903 20G<169.333 177.667>
VStem: 128 25<13 687>
LayerCount: 2
Fore
SplineSet
128 687 m 2
 128 695.666992188 132.166992188 700 140.5 700 c 0
 148.833007812 700 153 695.666992188 153 687 c 2
 153 13 l 2
 153 4.3330078125 148.833007812 0 140.5 0 c 0
 132.166992188 0 128 4.3330078125 128 13 c 2
 128 687 l 2
114 813 m 2
 108.666992188 807 102.166992188 802.333007812 94.5 799 c 0
 86.8330078125 795.666992188 83 796 83 800 c 0
 83 804 84.3330078125 808 87 812 c 2
 149 905 l 2
 157 917 165.166992188 923 173.5 923 c 0
 181.833007812 923 187.166992188 922.166992188 189.5 920.5 c 0
 193.166992188 917.880859375 195 913.713867188 195 908 c 1
 197 904.666992188 193.666992188 898.666992188 185 890 c 2
 114 813 l 2
EndSplineSet
EndChar

StartChar: Icircumflex
Encoding: 206 206 100
Width: 274
Flags: MW
HStem: 0 21G<106.333 114.667> 680 20G<106.333 114.667> 900 20G<106 114 114 118.333>
VStem: 98 25<8.6665 687 13 687>
LayerCount: 2
Fore
SplineSet
98 13 m 2
 98 4.3330078125 102.166992188 0 110.5 0 c 0
 118.833007812 0 123 4.3330078125 123 13 c 2
 123 687 l 2
 123 695.666992188 118.833007812 700 110.5 700 c 0
 102.166992188 700 98 695.666992188 98 687 c 2
 98 13 l 2
109 894 m 1
 40 818 l 2
 28 806 19.6669921875 800 15 800 c 0
 5.783203125 801.123046875 1.1162109375 801.790039062 1 802 c 0
 1 806 2.6669921875 810 6 814 c 2
 78 902 l 2
 88 914 97.3330078125 920 106 920 c 2
 114 920 l 2
 122.666992188 920 132 914 142 902 c 2
 214 814 l 2
 217.333007812 810 219 806 219 802 c 1
 215.370117188 800.0703125 210.962890625 799.25390625 205.778320312 799.552734375 c 0
 200.592773438 799.850585938 191.666992188 806.333007812 179 819 c 2
 109 894 l 1
EndSplineSet
EndChar

StartChar: Ntilde
Encoding: 209 209 101
Width: 790
Flags: MW
HStem: 0 21G<115.333 121 599 606> 802 37<418.667 434.333 418.667 443> 841 36<288.667 302> 879 20G<485.667 493>
VStem: 104 25<11.3335 648 13 648 13 685> 589 25<8.6665 682 52 52 52 682>
LayerCount: 2
Fore
SplineSet
589 9 m 2
 589 8.3330078125 589.333007812 8 590 8 c 0
 592 2.6669921875 596 0 602 0 c 0
 610 0 614 4.3330078125 614 13 c 2
 614 682 l 2
 614 690.666992188 610 695 602 695 c 0
 598.666992188 695 595.666992188 693.666992188 593 691 c 0
 590.333007812 688.333007812 589 685.333007812 589 682 c 2
 589 52 l 1
 127 694 l 2
 122.333007812 699.333007812 116.333007812 700 109 696 c 1
 105.666992188 692.666992188 104 689 104 685 c 2
 104 13 l 2
 104 9.6669921875 105.333007812 6.6669921875 108 4 c 0
 110.666992188 1.3330078125 113.666992188 0 117 0 c 0
 125 0 129 4.3330078125 129 13 c 2
 129 648 l 1
 589 9 l 2
248 802 m 0
 244 794 238.666992188 790 232 790 c 0
 221.333007812 790 216 794.333007812 216 803 c 0
 216 804.333007812 217.833007812 810.833007812 221.5 822.5 c 0
 225.166992188 834.166992188 235 846.166992188 251 858.5 c 0
 267 870.833007812 281.833007812 877 295.5 877 c 0
 309.166992188 877 331.333007812 870.666992188 362 858 c 0
 392.666992188 845.333007812 413.333007812 839 424 839 c 0
 444.666992188 839 461.333007812 853.333007812 474 882 c 1
 474 887.333007812 475.5 891.5 478.5 894.5 c 0
 481.5 897.5 484.333007812 899 487 899 c 0
 499 899 505 893.333007812 505 882 c 0
 505 878 504.333007812 874 503 870 c 0
 488.333007812 824.666992188 462 802 424 802 c 0
 412 802 390.666992188 808.5 360 821.5 c 0
 329.333007812 834.5 308 841 296 841 c 0
 275.333007812 841 259.333007812 828 248 802 c 0
EndSplineSet
EndChar

StartChar: Oacute
Encoding: 211 211 103
Width: 850
Flags: W
HStem: -13 27<414 414> 684 26<371 457> 684 239<444.333 452.667 444.333 457>
VStem: 73 27<349 349> 728 28<349 349>
LayerCount: 2
Fore
SplineSet
173 604.5 m 0xd8
 239 674.833007812 319.166992188 710 413.5 710 c 0
 507.833007812 710 588.166992188 674.833007812 654.5 604.5 c 0
 720.833007812 534.166992188 754.666992188 449 756 349 c 1
 754.666992188 248.333007812 721 162.833007812 655 92.5 c 0
 589 22.1669921875 508.666992188 -13 414 -13 c 0
 319.333007812 -13 239 22.1669921875 173 92.5 c 0
 107 162.833007812 73.6669921875 248.333007812 73 349 c 1
 73.6669921875 449 107 534.166992188 173 604.5 c 0xd8
414 14 m 1
 500 15.3330078125 573.666992188 48.5 635 113.5 c 0
 696.333007812 178.5 727.333007812 257 728 349 c 1
 727.333007812 441.666992188 696.333007812 520.666992188 635 586 c 0
 573.666992188 651.333007812 500 684 414 684 c 0
 328 684 254.166992188 651.333007812 192.5 586 c 0
 130.833007812 520.666992188 100 441.833007812 100 349.5 c 0
 100 257.166992188 130.666992188 178.5 192 113.5 c 0
 253.333007812 48.5 327.333007812 15.3330078125 414 14 c 1
389 813 m 2
 383.666992188 807 377.166992188 802.333007812 369.5 799 c 0
 361.833007812 795.666992188 358 796 358 800 c 0
 358 804 359.333007812 808 362 812 c 2
 424 905 l 2
 432 917 440.166992188 923 448.5 923 c 0xb8
 456.833007812 923 462.166992188 922.166992188 464.5 920.5 c 0
 468.166992188 917.880859375 470 913.713867188 470 908 c 1
 472 904.666992188 468.666992188 898.666992188 460 890 c 2
 389 813 l 2
EndSplineSet
EndChar

StartChar: Otilde
Encoding: 213 213 105
Width: 850
Flags: MW
HStem: -13 27<414 414> 684 26<371 457> 802 37<473.333 489.333 473.333 498> 841 36<343.333 356.667 343.333 357> 879 20G<540.667 548>
VStem: 73 27<349 349> 728 28<349 349>
LayerCount: 2
Fore
SplineSet
73 349 m 1
 73.6669921875 248.333007812 107 162.833007812 173 92.5 c 0
 239 22.1669921875 319.333007812 -13 414 -13 c 0
 508.666992188 -13 589 22.1669921875 655 92.5 c 0
 721 162.833007812 754.666992188 248.333007812 756 349 c 1
 754.666992188 449 720.833007812 534.166992188 654.5 604.5 c 0
 588.166992188 674.833007812 507.833007812 710 413.5 710 c 0
 319.166992188 710 239 674.833007812 173 604.5 c 0
 107 534.166992188 73.6669921875 449 73 349 c 1
192 113.5 m 0
 130.666992188 178.5 100 257.166992188 100 349.5 c 0
 100 441.833007812 130.833007812 520.666992188 192.5 586 c 0
 254.166992188 651.333007812 328 684 414 684 c 0
 500 684 573.666992188 651.333007812 635 586 c 0
 696.333007812 520.666992188 727.333007812 441.666992188 728 349 c 1
 727.333007812 257 696.333007812 178.5 635 113.5 c 0
 573.666992188 48.5 500 15.3330078125 414 14 c 1
 327.333007812 15.3330078125 253.333007812 48.5 192 113.5 c 0
303 802 m 0
 299 794 293.666992188 790 287 790 c 0
 276.333007812 790 271 794.333007812 271 803 c 0
 271 804.333007812 272.833007812 810.833007812 276.5 822.5 c 0
 280.166992188 834.166992188 290 846.166992188 306 858.5 c 0
 322 870.833007812 336.666992188 877 350 877 c 0
 363.333007812 877 385.333007812 870.666992188 416 858 c 0
 446.666992188 845.333007812 467.666992188 839 479 839 c 0
 499.666992188 839 516.333007812 853.333007812 529 882 c 1
 529 887.333007812 530.5 891.5 533.5 894.5 c 0
 536.5 897.5 539.333007812 899 542 899 c 0
 554 899 560 893.333007812 560 882 c 0
 560 878 559.333007812 874 558 870 c 0
 543.333007812 824.666992188 517 802 479 802 c 0
 467 802 445.666992188 808.5 415 821.5 c 0
 384.333007812 834.5 363 841 351 841 c 0
 330.333007812 841 314.333007812 828 303 802 c 0
EndSplineSet
EndChar

StartChar: Ugrave
Encoding: 217 217 106
Width: 760
Flags: MW
HStem: 0 25<373 373> 680 20G<101.333 109.667 636.667 642.667> 903 20G<275.333 286.667>
VStem: 93 25<242 687 281 687> 628 26<281 687 281 687>
LayerCount: 2
Fore
SplineSet
93 281 m 2
 93 203 120.333007812 136.666992188 175 82 c 0
 229.666992188 27.3330078125 295.666992188 0 373 0 c 0
 450.333007812 0 516.5 27.3330078125 571.5 82 c 0
 626.5 136.666992188 654 203 654 281 c 2
 654 687 l 2
 654 690.333007812 652.666992188 693.333007812 650 696 c 0
 647.333007812 698.666992188 644.333007812 700 641 700 c 0
 632.333007812 700 628 695.666992188 628 687 c 2
 628 281 l 2
 627.333007812 210.333007812 602.166992188 150.333007812 552.5 101 c 0
 502.833007812 51.6669921875 443 26.3330078125 373 25 c 1
 302.333007812 26.3330078125 242.166992188 51.6669921875 192.5 101 c 0
 142.833007812 150.333007812 118 210.333007812 118 281 c 2
 118 687 l 2
 118 695.666992188 113.833007812 700 105.5 700 c 0
 97.1669921875 700 93 695.666992188 93 687 c 2
 93 281 l 2
372 812 m 2
 374.666992188 808 376 804 376 800 c 0
 376 796 372.166992188 795.666992188 364.5 799 c 0
 356.833007812 802.333007812 350.333007812 807 345 813 c 2
 274 890 l 2
 265.333007812 898.666992188 262 904.666992188 264 908 c 1
 264 918 269.666992188 923 281 923 c 0
 292.333007812 923 302 917 310 905 c 2
 372 812 l 2
EndSplineSet
EndChar

StartChar: Uacute
Encoding: 218 218 107
Width: 760
Flags: MW
HStem: 0 25<373 373> 680 20G<101.333 109.667 636.667 642.667> 903 20G<385.333 393.667>
VStem: 93 25<281 687> 628 26<281 687>
LayerCount: 2
Fore
SplineSet
93 281 m 2
 93 687 l 2
 93 695.666992188 97.1669921875 700 105.5 700 c 0
 113.833007812 700 118 695.666992188 118 687 c 2
 118 281 l 2
 118 210.333007812 142.833007812 150.333007812 192.5 101 c 0
 242.166992188 51.6669921875 302.333007812 26.3330078125 373 25 c 1
 443 26.3330078125 502.833007812 51.6669921875 552.5 101 c 0
 602.166992188 150.333007812 627.333007812 210.333007812 628 281 c 2
 628 687 l 2
 628 695.666992188 632.333007812 700 641 700 c 0
 644.333007812 700 647.333007812 698.666992188 650 696 c 0
 652.666992188 693.333007812 654 690.333007812 654 687 c 2
 654 281 l 2
 654 203 626.5 136.666992188 571.5 82 c 0
 516.5 27.3330078125 450.333007812 0 373 0 c 0
 295.666992188 0 229.666992188 27.3330078125 175 82 c 0
 120.333007812 136.666992188 93 203 93 281 c 2
330 813 m 2
 324.666992188 807 318.166992188 802.333007812 310.5 799 c 0
 302.833007812 795.666992188 299 796 299 800 c 0
 299 804 300.333007812 808 303 812 c 2
 365 905 l 2
 373 917 381.166992188 923 389.5 923 c 0
 397.833007812 923 403.166992188 922.166992188 405.5 920.5 c 0
 409.166992188 917.880859375 411 913.713867188 411 908 c 1
 413 904.666992188 409.666992188 898.666992188 401 890 c 2
 330 813 l 2
EndSplineSet
EndChar

StartChar: Ucircumflex
Encoding: 219 219 108
Width: 760
Flags: MW
HStem: 0 25<373 373> 680 20G<101.333 109.667 636.667 642.667> 900 20G<335 343 343 347.333>
VStem: 93 25<242 687 281 687> 628 26<281 687 281 687>
LayerCount: 2
Fore
SplineSet
93 281 m 2
 93 203 120.333007812 136.666992188 175 82 c 0
 229.666992188 27.3330078125 295.666992188 0 373 0 c 0
 450.333007812 0 516.5 27.3330078125 571.5 82 c 0
 626.5 136.666992188 654 203 654 281 c 2
 654 687 l 2
 654 690.333007812 652.666992188 693.333007812 650 696 c 0
 647.333007812 698.666992188 644.333007812 700 641 700 c 0
 632.333007812 700 628 695.666992188 628 687 c 2
 628 281 l 2
 627.333007812 210.333007812 602.166992188 150.333007812 552.5 101 c 0
 502.833007812 51.6669921875 443 26.3330078125 373 25 c 1
 302.333007812 26.3330078125 242.166992188 51.6669921875 192.5 101 c 0
 142.833007812 150.333007812 118 210.333007812 118 281 c 2
 118 687 l 2
 118 695.666992188 113.833007812 700 105.5 700 c 0
 97.1669921875 700 93 695.666992188 93 687 c 2
 93 281 l 2
338 894 m 1
 269 818 l 2
 257 806 248.666992188 800 244 800 c 0
 234.783203125 801.123046875 230.116210938 801.790039062 230 802 c 0
 230 806 231.666992188 810 235 814 c 2
 307 902 l 2
 317 914 326.333007812 920 335 920 c 2
 343 920 l 2
 351.666992188 920 361 914 371 902 c 2
 443 814 l 2
 446.333007812 810 448 806 448 802 c 0
 448 799.333007812 446.333007812 798.333007812 443 799 c 0
 439.666992188 799.666992188 436.166992188 800 432.5 800 c 0
 428.833007812 800 420.666992188 806.333007812 408 819 c 2
 338 894 l 1
EndSplineSet
EndChar

StartChar: Yacute
Encoding: 221 221 109
Width: 716
Flags: MW
HStem: 0 21G<312.333 320.667> 903 20G<368.333 376.667>
VStem: 304 25<13 342>
LayerCount: 2
Fore
SplineSet
304 13 m 2
 304 342 l 1
 59 679 l 1
 52.595703125 685.404296875 53.2626953125 690.836914062 61.0009765625 695.297851562 c 0
 68.73828125 699.759765625 74.73828125 699.327148438 79 694 c 2
 317 367 l 1
 554 694 l 2
 557.333007812 697.333007812 561.5 698.5 566.5 697.5 c 0
 571.5 696.5 575 694.166992188 577 690.5 c 0
 579 686.833007812 578.666992188 683 576 679 c 2
 329 342 l 1
 329 13 l 2
 329 4.3330078125 324.833007812 0 316.5 0 c 0
 308.166992188 0 304 4.3330078125 304 13 c 2
313 813 m 2
 307.666992188 807 301.166992188 802.333007812 293.5 799 c 0
 285.833007812 795.666992188 282 796 282 800 c 0
 282 804 283.333007812 808 286 812 c 2
 348 905 l 2
 356 917 364.166992188 923 372.5 923 c 0
 380.833007812 923 386.166992188 922.166992188 388.5 920.5 c 0
 392.166992188 917.880859375 394 913.713867188 394 908 c 1
 396 904.666992188 392.666992188 898.666992188 384 890 c 2
 313 813 l 2
EndSplineSet
EndChar

StartChar: agrave
Encoding: 224 224 110
Width: 574
Flags: W
HStem: 0 25<265.667 316> 464 26<265.667 316 262 322.333> 464 234<251.333 322.333>
VStem: 63 25<214.667 275.333 214.667 278.667> 500 25<13 135 135 135 214.667 275.333 355 477>
LayerCount: 2
Fore
SplineSet
500 477 m 2xd8
 500 485.666992188 504.166992188 490 512.5 490 c 0
 520.833007812 490 525 485.666992188 525 477 c 2
 525 13 l 2
 525 4.3330078125 520.833007812 0 512.5 0 c 0
 504.166992188 0 500 4.3330078125 500 13 c 2
 500 135 l 1
 480.666992188 94.3330078125 452.5 61.6669921875 415.5 37 c 0
 378.5 12.3330078125 338 0 294 0 c 0
 230 0 175.5 24 130.5 72 c 0
 85.5 120 63 177.666992188 63 245 c 0
 63 312.333007812 85.5 370 130.5 418 c 0
 175.5 466 230 490 294 490 c 0
 338 490 378.5 477.666992188 415.5 453 c 0
 452.5 428.333007812 480.666992188 395.666992188 500 355 c 1
 500 477 l 2xd8
294 25 m 0
 350.666992188 25 399.166992188 46.5 439.5 89.5 c 0
 479.833007812 132.5 500 184.333007812 500 245 c 0
 500 305.666992188 479.833007812 357.333007812 439.5 400 c 0
 399.166992188 442.666992188 350.666992188 464 294 464 c 0
 237.333007812 464 188.833007812 442.666992188 148.5 400 c 0
 108.166992188 357.333007812 88 305.666992188 88 245 c 0
 88 184.333007812 108.166992188 132.5 148.5 89.5 c 0
 188.833007812 46.5 237.333007812 25 294 25 c 0
348 587 m 2
 350.666992188 583 352 579.166992188 352 575.5 c 0
 352 571.833007812 348.166992188 571.5 340.5 574.5 c 0
 332.833007812 577.5 326.333007812 582 321 588 c 2
 250 665 l 2
 241.333007812 673.666992188 238 679.666992188 240 683 c 1
 240 693 245.666992188 698 257 698 c 0xb8
 268.333007812 698 278 692 286 680 c 2
 348 587 l 2
EndSplineSet
EndChar

StartChar: aacute
Encoding: 225 225 111
Width: 574
Flags: W
HStem: 0 25<265.667 316> 464 26<265.667 316 262 322.333> 464 234<265.667 332.667>
VStem: 63 25<214.667 275.333 214.667 278.667> 500 25<13 135 135 135 214.667 275.333 355 477>
LayerCount: 2
Fore
SplineSet
500 477 m 2xd8
 500 485.666992188 504.166992188 490 512.5 490 c 0
 520.833007812 490 525 485.666992188 525 477 c 2
 525 13 l 2
 525 4.3330078125 520.833007812 0 512.5 0 c 0
 504.166992188 0 500 4.3330078125 500 13 c 2
 500 135 l 1
 480.666992188 94.3330078125 452.5 61.6669921875 415.5 37 c 0
 378.5 12.3330078125 338 0 294 0 c 0
 230 0 175.5 24 130.5 72 c 0
 85.5 120 63 177.666992188 63 245 c 0
 63 312.333007812 85.5 370 130.5 418 c 0
 175.5 466 230 490 294 490 c 0
 338 490 378.5 477.666992188 415.5 453 c 0
 452.5 428.333007812 480.666992188 395.666992188 500 355 c 1
 500 477 l 2xd8
294 25 m 0
 350.666992188 25 399.166992188 46.5 439.5 89.5 c 0
 479.833007812 132.5 500 184.333007812 500 245 c 0
 500 305.666992188 479.833007812 357.333007812 439.5 400 c 0
 399.166992188 442.666992188 350.666992188 464 294 464 c 0
 237.333007812 464 188.833007812 442.666992188 148.5 400 c 0
 108.166992188 357.333007812 88 305.666992188 88 245 c 0
 88 184.333007812 108.166992188 132.5 148.5 89.5 c 0
 188.833007812 46.5 237.333007812 25 294 25 c 0
269 588 m 2
 263.666992188 582 257.166992188 577.5 249.5 574.5 c 0
 241.833007812 571.5 238 571.833007812 238 575.5 c 0
 238 579.166992188 239.333007812 583 242 587 c 2
 304 680 l 2
 312 692 320.166992188 698 328.5 698 c 0xb8
 336.833007812 698 342.166992188 697.166992188 344.5 695.5 c 0
 348.166992188 692.880859375 350 688.713867188 350 683 c 1
 352 679.666992188 348.666992188 673.666992188 340 665 c 2
 269 588 l 2
EndSplineSet
EndChar

StartChar: acircumflex
Encoding: 226 226 112
Width: 574
Flags: MW
HStem: 0 25<265.667 316> 464 26<265.667 316 262 322.333> 673 20G<318 326 326 330.333>
VStem: 63 25<214.667 275.333 214.667 278.667> 500 25<13 135 135 135 214.667 275.333 355 477>
LayerCount: 2
Fore
SplineSet
500 477 m 2
 500 485.666992188 504.166992188 490 512.5 490 c 0
 520.833007812 490 525 485.666992188 525 477 c 2
 525 13 l 2
 525 4.3330078125 520.833007812 0 512.5 0 c 0
 504.166992188 0 500 4.3330078125 500 13 c 2
 500 135 l 1
 480.666992188 94.3330078125 452.5 61.6669921875 415.5 37 c 0
 378.5 12.3330078125 338 0 294 0 c 0
 230 0 175.5 24 130.5 72 c 0
 85.5 120 63 177.666992188 63 245 c 0
 63 312.333007812 85.5 370 130.5 418 c 0
 175.5 466 230 490 294 490 c 0
 338 490 378.5 477.666992188 415.5 453 c 0
 452.5 428.333007812 480.666992188 395.666992188 500 355 c 1
 500 477 l 2
294 25 m 0
 350.666992188 25 399.166992188 46.5 439.5 89.5 c 0
 479.833007812 132.5 500 184.333007812 500 245 c 0
 500 305.666992188 479.833007812 357.333007812 439.5 400 c 0
 399.166992188 442.666992188 350.666992188 464 294 464 c 0
 237.333007812 464 188.833007812 442.666992188 148.5 400 c 0
 108.166992188 357.333007812 88 305.666992188 88 245 c 0
 88 184.333007812 108.166992188 132.5 148.5 89.5 c 0
 188.833007812 46.5 237.333007812 25 294 25 c 0
321 667 m 1
 252 591 l 2
 240 579 231.666992188 573 227 573 c 0
 217.783203125 574.123046875 213.116210938 574.790039062 213 575 c 0
 213 579 214.666992188 583 218 587 c 2
 290 675 l 2
 300 687 309.333007812 693 318 693 c 2
 326 693 l 2
 334.666992188 693 344 687 354 675 c 2
 426 587 l 2
 429.333007812 583 431 579 431 575 c 0
 431 572.333007812 429.333007812 571.333007812 426 572 c 0
 422.666992188 572.666992188 419.166992188 573 415.5 573 c 0
 411.833007812 573 403.666992188 579.333007812 391 592 c 2
 321 667 l 1
EndSplineSet
EndChar

StartChar: atilde
Encoding: 227 227 113
Width: 574
Flags: MW
HStem: 0 25<265.667 316> 464 26<265.667 316 262 322.333> 582 37<353.333 369.333 353.333 378> 621 36<223.333 236.667 223.333 237> 659 20G<420.667 428>
VStem: 63 25<214.667 275.333 214.667 278.667> 500 25<13 135 135 135 214.667 275.333 355 477>
LayerCount: 2
Fore
SplineSet
500 477 m 2
 500 485.666992188 504.166992188 490 512.5 490 c 0
 520.833007812 490 525 485.666992188 525 477 c 2
 525 13 l 2
 525 4.3330078125 520.833007812 0 512.5 0 c 0
 504.166992188 0 500 4.3330078125 500 13 c 2
 500 135 l 1
 480.666992188 94.3330078125 452.5 61.6669921875 415.5 37 c 0
 378.5 12.3330078125 338 0 294 0 c 0
 230 0 175.5 24 130.5 72 c 0
 85.5 120 63 177.666992188 63 245 c 0
 63 312.333007812 85.5 370 130.5 418 c 0
 175.5 466 230 490 294 490 c 0
 338 490 378.5 477.666992188 415.5 453 c 0
 452.5 428.333007812 480.666992188 395.666992188 500 355 c 1
 500 477 l 2
294 25 m 0
 350.666992188 25 399.166992188 46.5 439.5 89.5 c 0
 479.833007812 132.5 500 184.333007812 500 245 c 0
 500 305.666992188 479.833007812 357.333007812 439.5 400 c 0
 399.166992188 442.666992188 350.666992188 464 294 464 c 0
 237.333007812 464 188.833007812 442.666992188 148.5 400 c 0
 108.166992188 357.333007812 88 305.666992188 88 245 c 0
 88 184.333007812 108.166992188 132.5 148.5 89.5 c 0
 188.833007812 46.5 237.333007812 25 294 25 c 0
183 582 m 0
 179 574 173.666992188 570 167 570 c 0
 156.333007812 570 151 574.333007812 151 583 c 0
 151 584.333007812 152.833007812 590.833007812 156.5 602.5 c 0
 160.166992188 614.166992188 170 626.166992188 186 638.5 c 0
 202 650.833007812 216.666992188 657 230 657 c 0
 243.333007812 657 265.333007812 650.666992188 296 638 c 0
 326.666992188 625.333007812 347.666992188 619 359 619 c 0
 379.666992188 619 396.333007812 633.333007812 409 662 c 1
 409 667.333007812 410.5 671.5 413.5 674.5 c 0
 416.5 677.5 419.333007812 679 422 679 c 0
 434 679 440 673.333007812 440 662 c 0
 440 658 439.333007812 654 438 650 c 0
 423.333007812 604.666992188 397 582 359 582 c 0
 347 582 325.666992188 588.5 295 601.5 c 0
 264.333007812 614.5 243 621 231 621 c 0
 210.333007812 621 194.333007812 608 183 582 c 0
EndSplineSet
EndChar

StartChar: eacute
Encoding: 233 233 115
Width: 609
Flags: W
HStem: 0 25<296 314.333 296 316> 248 24<84 506 84 519 83 506> 464 26<268.667 322.333> 464 234<268.667 331.667>
VStem: 58 25<245 245>
LayerCount: 2
Fore
SplineSet
531 264 m 1xe8
 531 260 l 1
 529.666992188 252 525.666992188 248 519 248 c 2
 83 248 l 1
 83 245 l 2
 83 185 103.833007812 133.5 145.5 90.5 c 0
 187.166992188 47.5 237.333007812 25.6669921875 296 25 c 0
 332.666992188 25 366.5 34 397.5 52 c 0
 428.5 70 453.333007812 94.3330078125 472 125 c 0
 476.517578125 131.77734375 482.236328125 132.770507812 489.154296875 127.981445312 c 0
 496.072265625 123.192382812 497.354492188 117.53125 493 111 c 0
 471.666992188 77.6669921875 443.5 50.8330078125 408.5 30.5 c 0
 373.5 10.1669921875 336 0 296 0 c 0
 230.666992188 0.6669921875 175 24.8330078125 129 72.5 c 0
 83 120.166992188 59.3330078125 177.666992188 58 245 c 1
 59.3330078125 313 83 370.833007812 129 418.5 c 0
 175 466.166992188 229.833007812 490 293.5 490 c 0
 357.166992188 490 411.5 468.333007812 456.5 425 c 0
 501.5 381.666992188 526.333007812 328 531 264 c 1xe8
436 409 m 0
 396 445.666992188 349.166992188 464 295.5 464 c 0
 241.833007812 464 194.833007812 445.666992188 154.5 409 c 0
 114.166992188 372.333007812 90.6669921875 326.666992188 84 272 c 1
 506 272 l 1
 499.333007812 326.666992188 476 372.333007812 436 409 c 0
268 588 m 2
 262.666992188 582 256.166992188 577.5 248.5 574.5 c 0
 240.833007812 571.5 237 571.833007812 237 575.5 c 0
 237 579.166992188 238.333007812 583 241 587 c 2
 303 680 l 2
 311 692 319.166992188 698 327.5 698 c 0xd8
 335.833007812 698 341.166992188 697.166992188 343.5 695.5 c 0
 347.166992188 692.880859375 349 688.713867188 349 683 c 1
 351 679.666992188 347.666992188 673.666992188 339 665 c 2
 268 588 l 2
EndSplineSet
EndChar

StartChar: ntilde
Encoding: 241 241 117
Width: 613
Flags: MW
HStem: 0 21G<103 107 107 111 472.333 480.667> 465 25<273.667 315.667> 582 37<349.333 365.333 349.333 374> 621 36<219.333 232.667 219.333 233> 659 20G<416.667 424>
VStem: 94 25<10 292 13 292 292 316 388 478> 464 25<8.6665 292 13 292>
LayerCount: 2
Fore
SplineSet
100 2 m 1
 101.333007812 0.6669921875 102.333007812 0 103 0 c 2
 107 0 l 2
 115 0 119 4.3330078125 119 13 c 2
 119 292 l 2
 119 340 136 380.833007812 170 414.5 c 0
 204 448.166992188 244.666992188 465 292 465 c 0
 339.333007812 465 379.833007812 448.166992188 413.5 414.5 c 0
 447.166992188 380.833007812 464 340 464 292 c 2
 464 13 l 2
 464 4.3330078125 468.166992188 0 476.5 0 c 0
 484.833007812 0 489 4.3330078125 489 13 c 2
 489 292 l 2
 489 346.666992188 469.666992188 393.333007812 431 432 c 0
 392.333007812 470.666992188 346 490 292 490 c 0
 255.333007812 490 221.666992188 480.666992188 191 462 c 0
 160.333007812 443.333007812 136.333007812 418.666992188 119 388 c 1
 119 478 l 2
 119 486 114.833007812 490 106.5 490 c 0
 98.1669921875 490 94 486 94 478 c 2
 94 11 l 2
 94 9 94.6669921875 7.3330078125 96 6 c 1
 96 3.3330078125 97.3330078125 2 100 2 c 1
179 582 m 0
 175 574 169.666992188 570 163 570 c 0
 152.333007812 570 147 574.333007812 147 583 c 0
 147 584.333007812 148.833007812 590.833007812 152.5 602.5 c 0
 156.166992188 614.166992188 166 626.166992188 182 638.5 c 0
 198 650.833007812 212.666992188 657 226 657 c 0
 239.333007812 657 261.333007812 650.666992188 292 638 c 0
 322.666992188 625.333007812 343.666992188 619 355 619 c 0
 375.666992188 619 392.333007812 633.333007812 405 662 c 1
 405 667.333007812 406.5 671.5 409.5 674.5 c 0
 412.5 677.5 415.333007812 679 418 679 c 0
 430 679 436 673.333007812 436 662 c 0
 436 658 435.333007812 654 434 650 c 0
 419.333007812 604.666992188 393 582 355 582 c 0
 343 582 321.666992188 588.5 291 601.5 c 0
 260.333007812 614.5 239 621 227 621 c 0
 206.333007812 621 190.333007812 608 179 582 c 0
EndSplineSet
EndChar

StartChar: ograve
Encoding: 242 242 118
Width: 640
Flags: W
HStem: 0 25<260.667 317.333 260.667 321> 465 25<260.667 317.333> 490 208<257 257.667 246.333 321>
VStem: 58 25<214.667 275.333 214.667 278.667> 496 25<214.667 275.333>
LayerCount: 2
Fore
SplineSet
58 245 m 0xd8
 58 177.666992188 80.5 120 125.5 72 c 0
 170.5 24 225 0 289 0 c 0
 353 0 407.666992188 24 453 72 c 0
 498.333007812 120 521 177.666992188 521 245 c 0
 521 312.333007812 498.333007812 370 453 418 c 0
 407.666992188 466 353 490 289 490 c 0
 225 490 170.5 466 125.5 418 c 0
 80.5 370 58 312.333007812 58 245 c 0xd8
83 245 m 0
 83 305.666992188 103.166992188 357.5 143.5 400.5 c 0
 183.833007812 443.5 232.333007812 465 289 465 c 0
 345.666992188 465 394.333007812 443.5 435 400.5 c 0
 475.666992188 357.5 496 305.666992188 496 245 c 0
 496 184.333007812 475.666992188 132.5 435 89.5 c 0
 394.333007812 46.5 345.666992188 25 289 25 c 0
 232.333007812 25 183.833007812 46.5 143.5 89.5 c 0
 103.166992188 132.5 83 184.333007812 83 245 c 0
343 587 m 2
 345.666992188 583 347 579.166992188 347 575.5 c 0
 347 571.833007812 343.166992188 571.5 335.5 574.5 c 0
 327.833007812 577.5 321.333007812 582 316 588 c 2
 245 665 l 2
 236.333007812 673.666992188 233 679.666992188 235 683 c 1
 235 693 240.666992188 698 252 698 c 0xb8
 263.333007812 698 273 692 281 680 c 2
 343 587 l 2
EndSplineSet
EndChar

StartChar: oacute
Encoding: 243 243 119
Width: 640
Flags: W
HStem: 0 25<260.667 317.333 260.667 321> 465 25<260.667 317.333> 465 233<260.667 325.667>
VStem: 58 25<214.667 275.333 214.667 278.667> 496 25<214.667 275.333>
LayerCount: 2
Fore
SplineSet
289 490 m 0xd8
 353 490 407.666992188 466 453 418 c 0
 498.333007812 370 521 312.333007812 521 245 c 0
 521 177.666992188 498.333007812 120 453 72 c 0
 407.666992188 24 353 0 289 0 c 0
 225 0 170.5 24 125.5 72 c 0
 80.5 120 58 177.666992188 58 245 c 0
 58 312.333007812 80.5 370 125.5 418 c 0
 170.5 466 225 490 289 490 c 0xd8
289 25 m 0
 345.666992188 25 394.333007812 46.5 435 89.5 c 0
 475.666992188 132.5 496 184.333007812 496 245 c 0
 496 305.666992188 475.666992188 357.5 435 400.5 c 0
 394.333007812 443.5 345.666992188 465 289 465 c 0
 232.333007812 465 183.833007812 443.5 143.5 400.5 c 0
 103.166992188 357.5 83 305.666992188 83 245 c 0
 83 184.333007812 103.166992188 132.5 143.5 89.5 c 0
 183.833007812 46.5 232.333007812 25 289 25 c 0
262 588 m 2
 256.666992188 582 250.166992188 577.5 242.5 574.5 c 0
 234.833007812 571.5 231 571.833007812 231 575.5 c 0
 231 579.166992188 232.333007812 583 235 587 c 2
 297 680 l 2
 305 692 313.166992188 698 321.5 698 c 0xb8
 329.833007812 698 335.166992188 697.166992188 337.5 695.5 c 0
 341.166992188 692.880859375 343 688.713867188 343 683 c 1
 345 679.666992188 341.666992188 673.666992188 333 665 c 2
 262 588 l 2
EndSplineSet
EndChar

StartChar: ocircumflex
Encoding: 244 244 120
Width: 640
Flags: MW
HStem: 0 25<260.667 317.333 260.667 321> 465 25<260.667 317.333> 673 20G<284 292 292 296.333>
VStem: 58 25<214.667 275.333 214.667 278.667> 496 25<214.667 275.333>
LayerCount: 2
Fore
SplineSet
58 245 m 0
 58 177.666992188 80.5 120 125.5 72 c 0
 170.5 24 225 0 289 0 c 0
 353 0 407.666992188 24 453 72 c 0
 498.333007812 120 521 177.666992188 521 245 c 0
 521 312.333007812 498.333007812 370 453 418 c 0
 407.666992188 466 353 490 289 490 c 0
 225 490 170.5 466 125.5 418 c 0
 80.5 370 58 312.333007812 58 245 c 0
83 245 m 0
 83 305.666992188 103.166992188 357.5 143.5 400.5 c 0
 183.833007812 443.5 232.333007812 465 289 465 c 0
 345.666992188 465 394.333007812 443.5 435 400.5 c 0
 475.666992188 357.5 496 305.666992188 496 245 c 0
 496 184.333007812 475.666992188 132.5 435 89.5 c 0
 394.333007812 46.5 345.666992188 25 289 25 c 0
 232.333007812 25 183.833007812 46.5 143.5 89.5 c 0
 103.166992188 132.5 83 184.333007812 83 245 c 0
287 667 m 1
 218 591 l 2
 206 579 197.666992188 573 193 573 c 0
 183.783203125 574.123046875 179.116210938 574.790039062 179 575 c 0
 179 579 180.666992188 583 184 587 c 2
 256 675 l 2
 266 687 275.333007812 693 284 693 c 2
 292 693 l 2
 300.666992188 693 310 687 320 675 c 2
 392 587 l 2
 395.333007812 583 397 579 397 575 c 0
 397 572.333007812 395.333007812 571.333007812 392 572 c 0
 388.666992188 572.666992188 385.166992188 573 381.5 573 c 0
 377.833007812 573 369.666992188 579.333007812 357 592 c 2
 287 667 l 1
EndSplineSet
EndChar

StartChar: otilde
Encoding: 245 245 121
Width: 640
Flags: MW
HStem: 0 25<260.667 317.333 260.667 321> 465 25<260.667 317.333> 582 37<347.667 363.333 347.667 372> 621 36<217.333 230.667 217.333 231> 659 20G<414.667 422>
VStem: 58 25<214.667 275.333 214.667 278.667> 496 25<214.667 275.333>
LayerCount: 2
Fore
SplineSet
58 245 m 0
 58 177.666992188 80.5 120 125.5 72 c 0
 170.5 24 225 0 289 0 c 0
 353 0 407.666992188 24 453 72 c 0
 498.333007812 120 521 177.666992188 521 245 c 0
 521 312.333007812 498.333007812 370 453 418 c 0
 407.666992188 466 353 490 289 490 c 0
 225 490 170.5 466 125.5 418 c 0
 80.5 370 58 312.333007812 58 245 c 0
83 245 m 0
 83 305.666992188 103.166992188 357.5 143.5 400.5 c 0
 183.833007812 443.5 232.333007812 465 289 465 c 0
 345.666992188 465 394.333007812 443.5 435 400.5 c 0
 475.666992188 357.5 496 305.666992188 496 245 c 0
 496 184.333007812 475.666992188 132.5 435 89.5 c 0
 394.333007812 46.5 345.666992188 25 289 25 c 0
 232.333007812 25 183.833007812 46.5 143.5 89.5 c 0
 103.166992188 132.5 83 184.333007812 83 245 c 0
177 582 m 0
 173 574 167.666992188 570 161 570 c 0
 150.333007812 570 145 574.333007812 145 583 c 0
 145 584.333007812 146.833007812 590.833007812 150.5 602.5 c 0
 154.166992188 614.166992188 164 626.166992188 180 638.5 c 0
 196 650.833007812 210.666992188 657 224 657 c 0
 237.333007812 657 259.5 650.666992188 290.5 638 c 0
 321.5 625.333007812 342.333007812 619 353 619 c 0
 373.666992188 619 390.333007812 633.333007812 403 662 c 1
 403 667.333007812 404.5 671.5 407.5 674.5 c 0
 410.5 677.5 413.333007812 679 416 679 c 0
 428 679 434 673.333007812 434 662 c 0
 434 658 433.333007812 654 432 650 c 0
 417.333007812 604.666992188 391 582 353 582 c 0
 341 582 319.666992188 588.5 289 601.5 c 0
 258.333007812 614.5 237 621 225 621 c 0
 204.333007812 621 188.333007812 608 177 582 c 0
EndSplineSet
EndChar

StartChar: uacute
Encoding: 250 250 123
Width: 613
Flags: MW
HStem: 0 25<255.333 302.667 255.333 306.667> 678 20G<314.333 322.667>
VStem: 83 25<198 477> 451 26<198 477>
LayerCount: 2
Fore
SplineSet
83 477 m 2
 83 485.666992188 87.3330078125 490 96 490 c 0
 99.3330078125 490 102.166992188 488.666992188 104.5 486 c 0
 106.833007812 483.333007812 108 480.333007812 108 477 c 2
 108 198 l 2
 108 150 124.666992188 109.166992188 158 75.5 c 0
 191.333007812 41.8330078125 231.666992188 25 279 25 c 0
 326.333007812 25 366.833007812 41.8330078125 400.5 75.5 c 0
 434.166992188 109.166992188 451 150 451 198 c 2
 451 477 l 2
 451 480.333007812 452.333007812 483.333007812 455 486 c 0
 457.666992188 488.666992188 460.666992188 490 464 490 c 0
 472.666992188 490 477 485.666992188 477 477 c 2
 477 198 l 2
 477 143.333007812 457.666992188 96.6669921875 419 58 c 0
 380.333007812 19.3330078125 333.833007812 0 279.5 0 c 0
 225.166992188 0 178.833007812 19.3330078125 140.5 58 c 0
 102.166992188 96.6669921875 83 143.333007812 83 198 c 2
 83 477 l 2
259 588 m 2
 253.666992188 582 247.166992188 577.5 239.5 574.5 c 0
 231.833007812 571.5 228 571.833007812 228 575.5 c 0
 228 579.166992188 229.333007812 583 232 587 c 2
 294 680 l 2
 302 692 310.166992188 698 318.5 698 c 0
 326.833007812 698 332.166992188 697.166992188 334.5 695.5 c 0
 338.166992188 692.880859375 340 688.713867188 340 683 c 1
 342 679.666992188 338.666992188 673.666992188 330 665 c 2
 259 588 l 2
EndSplineSet
EndChar

StartChar: Agrave
Encoding: 192 192 126
Width: 649
Flags: W
HStem: 2 21G<69 72> 3 21G<64 64.3335 580.667 581> 190 26<157 157 157 487> 680 20G 903 20G<264.333 275.667>
LayerCount: 2
Fore
SplineSet
64 3 m 0x78
 64.6669921875 3 66.3330078125 2.6669921875 69 2 c 0xb8
 75 2 78.6669921875 5 80 11 c 2
 147 190 l 1
 497 190 l 1
 564 11 l 1
 567.333007812 5 570.833007812 2.1669921875 574.5 2.5 c 0
 578.166992188 2.8330078125 580.333007812 3 581 3 c 0
 589 7 591.333007812 12.6669921875 588 20 c 2
 336 692 l 1
 332.666992188 697.333007812 328 700.333007812 322 701 c 0
 316 701.666992188 312 698.666992188 310 692 c 2
 58 20 l 2
 54.6669921875 12 56.6669921875 6.3330078125 64 3 c 0x78
157 216 m 1
 322 654 l 1
 487 216 l 1
 157 216 l 1
361 812 m 2
 363.666992188 808 365 804 365 800 c 0
 365 796 361.166992188 795.666992188 353.5 799 c 0
 345.833007812 802.333007812 339.333007812 807 334 813 c 2
 263 890 l 2
 254.333007812 898.666992188 251 904.666992188 253 908 c 1
 253 918 258.666992188 923 270 923 c 0
 281.333007812 923 291 917 299 905 c 2
 361 812 l 2
EndSplineSet
EndChar

StartChar: Aacute
Encoding: 193 193 127
Width: 646
Flags: W
HStem: 2 21G<69 72> 3 21G<64 64.3335 580.667 581> 190 26<157 487 157 497 147 487> 680 20G 903 20G<374.333 382.667>
LayerCount: 2
Fore
SplineSet
581 3 m 0x78
 580.333007812 3 578.166992188 2.8330078125 574.5 2.5 c 0
 570.833007812 2.1669921875 567.333007812 5 564 11 c 1
 497 190 l 1
 147 190 l 1
 80 11 l 2
 78.6669921875 5 75 2 69 2 c 0xb8
 66.3330078125 2.6669921875 64.6669921875 3 64 3 c 0
 56.6669921875 6.3330078125 54.6669921875 12 58 20 c 2
 310 692 l 2
 312 698.666992188 316 701.666992188 322 701 c 0
 328 700.333007812 332.666992188 697.333007812 336 692 c 1
 588 20 l 2
 591.333007812 12.6669921875 589 7 581 3 c 0x78
322 654 m 1
 157 216 l 1
 487 216 l 1
 322 654 l 1
319 813 m 2
 313.666992188 807 307.166992188 802.333007812 299.5 799 c 0
 291.833007812 795.666992188 288 796 288 800 c 0
 288 804 289.333007812 808 292 812 c 2
 354 905 l 2
 362 917 370.166992188 923 378.5 923 c 0
 386.833007812 923 392.166992188 922.166992188 394.5 920.5 c 0
 398.166992188 917.880859375 400 913.713867188 400 908 c 1
 402 904.666992188 398.666992188 898.666992188 390 890 c 2
 319 813 l 2
EndSplineSet
EndChar

StartChar: Acircumflex
Encoding: 194 194 128
Width: 664
Flags: W
HStem: 2 21G<70 73> 3 21G<65 65.3335 581.667 582> 190 26<158 158 158 488> 680 20G 900 20G<326 334 334 338.333>
LayerCount: 2
Fore
SplineSet
65 3 m 0x78
 65.6669921875 3 67.3330078125 2.6669921875 70 2 c 0xb8
 76 2 79.6669921875 5 81 11 c 2
 148 190 l 1
 498 190 l 1
 565 11 l 1
 568.333007812 5 571.833007812 2.1669921875 575.5 2.5 c 0
 579.166992188 2.8330078125 581.333007812 3 582 3 c 0
 590 7 592.333007812 12.6669921875 589 20 c 2
 337 692 l 1
 333.666992188 697.333007812 329 700.333007812 323 701 c 0
 317 701.666992188 313 698.666992188 311 692 c 2
 59 20 l 2
 55.6669921875 12 57.6669921875 6.3330078125 65 3 c 0x78
158 216 m 1
 323 654 l 1
 488 216 l 1
 158 216 l 1
329 894 m 1
 260 818 l 2
 248 806 239.666992188 800 235 800 c 0
 225.783203125 801.123046875 221.116210938 801.790039062 221 802 c 0
 221 806 222.666992188 810 226 814 c 2
 298 902 l 2
 308 914 317.333007812 920 326 920 c 2
 334 920 l 2
 342.666992188 920 352 914 362 902 c 2
 434 814 l 2
 437.333007812 810 439 806 439 802 c 0
 439 799.333007812 437.333007812 798.333007812 434 799 c 0
 430.666992188 799.666992188 427.166992188 800 423.5 800 c 0
 419.833007812 800 411.666992188 806.333007812 399 819 c 2
 329 894 l 1
EndSplineSet
EndChar

StartChar: Atilde
Encoding: 195 195 129
Width: 664
Flags: W
HStem: 2 21G<70 73> 3 21G<65 65.3335 581.667 582> 190 26<158 158 158 488> 680 20G 802 37<382.333 398.333 382.333 407> 841 36<252.333 265.667 252.333 266> 879 20G<449.667 457>
LayerCount: 2
Fore
SplineSet
65 3 m 0x7e
 65.6669921875 3 67.3330078125 2.6669921875 70 2 c 0xbe
 76 2 79.6669921875 5 81 11 c 2
 148 190 l 1
 498 190 l 1
 565 11 l 1
 568.333007812 5 571.833007812 2.1669921875 575.5 2.5 c 0
 579.166992188 2.8330078125 581.333007812 3 582 3 c 0
 590 7 592.333007812 12.6669921875 589 20 c 2
 337 692 l 1
 333.666992188 697.333007812 329 700.333007812 323 701 c 0
 317 701.666992188 313 698.666992188 311 692 c 2
 59 20 l 2
 55.6669921875 12 57.6669921875 6.3330078125 65 3 c 0x7e
158 216 m 1
 323 654 l 1
 488 216 l 1
 158 216 l 1
212 802 m 0
 208 794 202.666992188 790 196 790 c 0
 185.333007812 790 180 794.333007812 180 803 c 0
 180 804.333007812 181.833007812 810.833007812 185.5 822.5 c 0
 189.166992188 834.166992188 199 846.166992188 215 858.5 c 0
 231 870.833007812 245.666992188 877 259 877 c 0
 272.333007812 877 294.333007812 870.666992188 325 858 c 0
 355.666992188 845.333007812 376.666992188 839 388 839 c 0
 408.666992188 839 425.333007812 853.333007812 438 882 c 1
 438 887.333007812 439.5 891.5 442.5 894.5 c 0
 445.5 897.5 448.333007812 899 451 899 c 0
 463 899 469 893.333007812 469 882 c 0
 469 878 468.333007812 874 467 870 c 0
 452.333007812 824.666992188 426 802 388 802 c 0
 376 802 354.666992188 808.5 324 821.5 c 0
 293.333007812 834.5 272 841 260 841 c 0
 239.333007812 841 223.333007812 828 212 802 c 0
EndSplineSet
EndChar

StartChar: divide
Encoding: 247 247 130
Width: 620
Flags: W
HStem: 112 92<313.667 326.333> 112 216<313.667 326.333> 376 217<313.667 326.333 313.667 532> 501 92<313.667 326.333>
LayerCount: 2
Fore
SplineSet
88 328 m 2x60
 532 328 l 2
 538.666992188 328 544.333007812 330.333007812 549 335 c 0
 553.666992188 339.666992188 556 345.333007812 556 352 c 0
 556 358.666992188 553.666992188 364.333007812 549 369 c 0
 544.333007812 373.666992188 538.666992188 376 532 376 c 2
 88 376 l 2
 81.3330078125 376 75.6669921875 373.666992188 71 369 c 0
 66.3330078125 364.333007812 64 358.666992188 64 352 c 0
 64 345.333007812 66.3330078125 339.666992188 71 335 c 0
 75.6669921875 330.333007812 81.3330078125 328 88 328 c 2x60
274 547 m 0
 274 559.666992188 278.5 570.5 287.5 579.5 c 0
 296.5 588.5 307.333007812 593 320 593 c 0x20
 332.666992188 593 343.5 588.5 352.5 579.5 c 0
 361.5 570.5 366 559.666992188 366 547 c 0
 366 534.333007812 361.5 523.5 352.5 514.5 c 0
 343.5 505.5 332.666992188 501 320 501 c 0x10
 307.333007812 501 296.5 505.5 287.5 514.5 c 0
 278.5 523.5 274 534.333007812 274 547 c 0
274 158 m 0
 274 170.666992188 278.5 181.5 287.5 190.5 c 0
 296.5 199.5 307.333007812 204 320 204 c 0
 332.666992188 204 343.5 199.5 352.5 190.5 c 0
 361.5 181.5 366 170.666992188 366 158 c 0
 366 145.333007812 361.5 134.5 352.5 125.5 c 0
 343.5 116.5 332.666992188 112 320 112 c 0x80
 307.333007812 112 296.5 116.5 287.5 125.5 c 0
 278.5 134.5 274 145.333007812 274 158 c 0
EndSplineSet
EndChar

StartChar: exclamdown
Encoding: 161 161 131
Width: 252
Flags: MW
HStem: 0 21G<101.333 109.667> 680 20G<101.333 109.667>
VStem: 93 25<13 533 663 687>
LayerCount: 2
Fore
SplineSet
93 533 m 2
 93 541 97.1669921875 545 105.5 545 c 0
 113.833007812 545 118 541 118 533 c 2
 118 13 l 2
 118 4.3330078125 113.833007812 0 105.5 0 c 0
 97.1669921875 0 93 4.3330078125 93 13 c 2
 93 533 l 2
93 687 m 2
 93 695.666992188 97.1669921875 700 105.5 700 c 0
 113.833007812 700 118 695.666992188 118 687 c 2
 118 663 l 2
 118 659.666992188 116.666992188 656.833007812 114 654.5 c 0
 111.333007812 652.166992188 108.666992188 651 106 651 c 0
 97.3330078125 651 93 655 93 663 c 2
 93 687 l 2
EndSplineSet
EndChar

StartChar: questiondown
Encoding: 191 191 132
Width: 534
Flags: MW
HStem: 0 24<221.667 264.667 221.667 268> 399 24<251 251 251 264.333> 680 20G<235 243>
VStem: 227 24<423 545 423 545 423 549 665 688> 425 25<185.667 237.333>
LayerCount: 2
Fore
SplineSet
227 545 m 2
 227 553 231 557 239 557 c 0
 242.333007812 557 245.166992188 555.833007812 247.5 553.5 c 0
 249.833007812 551.166992188 251 548.333007812 251 545 c 2
 251 423 l 1
 305.666992188 419.666992188 352.5 397.666992188 391.5 357 c 0
 430.5 316.333007812 450 267.333007812 450 210 c 0
 450 152.666992188 429.333007812 103.333007812 388 62 c 0
 346.666992188 20.6669921875 297 0 239 0 c 0
 200.333007812 0 164.666992188 9.5 132 28.5 c 0
 99.3330078125 47.5 74 73.3330078125 56 106 c 1
 50.779296875 112.525390625 51.7568359375 117.470703125 58.9326171875 120.833984375 c 0
 66.107421875 124.198242188 71.796875 123.25390625 76 118 c 0
 92.6669921875 89.3330078125 115.333007812 66.5 144 49.5 c 0
 172.666992188 32.5 204.333007812 24 239 24 c 0
 290.333007812 24 334.166992188 42.3330078125 370.5 79 c 0
 406.833007812 115.666992188 425 159.833007812 425 211.5 c 0
 425 263.166992188 406.666992188 307.333007812 370 344 c 0
 333.333007812 380.666992188 289.666992188 399 239 399 c 0
 231 399 227 403 227 411 c 2
 227 545 l 2
227 688 m 2
 227 696 231 700 239 700 c 0
 247 700 251 696 251 688 c 2
 251 665 l 2
 251 661.666992188 249.833007812 658.833007812 247.5 656.5 c 0
 245.166992188 654.166992188 242.333007812 653 239 653 c 0
 231 653 227 657 227 665 c 2
 227 688 l 2
EndSplineSet
EndChar

StartChar: Ydieresis
Encoding: 263 376 133
Width: 716
Flags: MW
HStem: 0 21G<312.333 320.667> 743 68<225.333 234.667 406.333 415.667>
VStem: 196 68<772.333 781.667> 377 68<772.333 781.667>
LayerCount: 2
Fore
SplineSet
196 777 m 0
 196 786.333007812 199.333007812 794.333007812 206 801 c 0
 212.666992188 807.666992188 220.666992188 811 230 811 c 0
 239.333007812 811 247.333007812 807.666992188 254 801 c 0
 260.666992188 794.333007812 264 786.333007812 264 777 c 0
 264 767.666992188 260.666992188 759.666992188 254 753 c 0
 247.333007812 746.333007812 239.333007812 743 230 743 c 0
 220.666992188 743 212.666992188 746.333007812 206 753 c 0
 199.333007812 759.666992188 196 767.666992188 196 777 c 0
377 777 m 0
 377 786.333007812 380.333007812 794.333007812 387 801 c 0
 393.666992188 807.666992188 401.666992188 811 411 811 c 0
 420.333007812 811 428.333007812 807.666992188 435 801 c 0
 441.666992188 794.333007812 445 786.333007812 445 777 c 0
 445 767.666992188 441.666992188 759.666992188 435 753 c 0
 428.333007812 746.333007812 420.333007812 743 411 743 c 0
 401.666992188 743 393.666992188 746.333007812 387 753 c 0
 380.333007812 759.666992188 377 767.666992188 377 777 c 0
304 13 m 2
 304 4.3330078125 308.166992188 0 316.5 0 c 0
 324.833007812 0 329 4.3330078125 329 13 c 2
 329 342 l 1
 576 679 l 2
 578.666992188 682.333007812 578.833007812 686.166992188 576.5 690.5 c 0
 574.166992188 694.833007812 570.833007812 697.333007812 566.5 698 c 0
 562.166992188 698.666992188 558 697.333007812 554 694 c 1
 317 367 l 1
 79 694 l 2
 73.416015625 700.98046875 67.462890625 701.44921875 61.1416015625 695.405273438 c 0
 54.8203125 689.361328125 54.1064453125 683.893554688 59 679 c 1
 304 342 l 1
 304 13 l 2
EndSplineSet
EndChar

StartChar: trademark
Encoding: 264 8482 134
Width: 690
Flags: MW
HStem: 399 21G<131.333 134.667 301.333 304.667 543.333 546.667> 680 20G<27 237 237 239 301.333 303.333 544.667 546.667>
VStem: 128 180<404 678>
LayerCount: 2
Fore
SplineSet
128 404 m 2
 128 690 l 1
 27 690 l 2
 23.6669921875 690 22 691.666992188 22 695 c 0
 22 698.333007812 23.6669921875 700 27 700 c 2
 237 700 l 2
 241 700 243 698.333007812 243 695 c 0
 243 691.666992188 241 690 237 690 c 2
 138 690 l 1
 138 404 l 2
 138 400.666992188 136.333007812 399 133 399 c 0
 129.666992188 399 128 400.666992188 128 404 c 2
540 404 m 2
 540 678 l 1
 430 525 l 1
 427.333007812 523.666992188 425.666992188 523 425 523 c 2
 423 523 l 2
 421.666992188 523 420.333007812 523.666992188 419 525 c 2
 308 678 l 1
 308 404 l 2
 308 400.666992188 306.333007812 399 303 399 c 0
 299.666992188 399 298 400.666992188 298 404 c 2
 298 694 l 2
 298 698 299.666992188 700 303 700 c 0
 303.666992188 700 304.388671875 699.790039062 305.166992188 699.370117188 c 0
 305.944335938 698.950195312 306.888671875 698.494140625 308 698 c 2
 425 537 l 1
 540 698 l 1
 542.666992188 699.333007812 544.333007812 700 545 700 c 0
 548.333007812 700 550 698 550 694 c 2
 550 404 l 2
 550 400.666992188 548.333007812 399 545 399 c 0
 541.666992188 399 540 400.666992188 540 404 c 2
EndSplineSet
EndChar

StartChar: degree
Encoding: 176 176 135
Width: 450
Flags: MW
HStem: 412 21G<202.333 244.667> 686 20G<202.333 242.667>
VStem: 74 22<558 560 541 581.667> 350 22<558 560 538 577>
LayerCount: 2
Fore
SplineSet
329.5 455 m 0
 301.166992188 426.333007812 265.833007812 412 223.5 412 c 0
 181.166992188 412 145.666992188 426.333007812 117 455 c 0
 88.3330078125 483.666992188 74 518 74 558 c 2
 74 560 l 2
 74 603.333007812 88.6669921875 638.5 118 665.5 c 0
 147.333007812 692.5 182.166992188 706 222.5 706 c 0
 262.833007812 706 297.833007812 691.833007812 327.5 663.5 c 0
 357.166992188 635.166992188 372 600.666992188 372 560 c 2
 372 558 l 2
 372 518 357.833007812 483.666992188 329.5 455 c 0
223 431 m 0
 259 431 289.166992188 443.666992188 313.5 469 c 0
 337.833007812 494.333007812 350 524 350 558 c 2
 350 560 l 2
 350 594 337.666992188 623.833007812 313 649.5 c 0
 288.333007812 675.166992188 258.333007812 688 223 688 c 0
 187.666992188 688 157.666992188 675.166992188 133 649.5 c 0
 108.333007812 623.833007812 96 594 96 560 c 2
 96 558 l 2
 96 524 108.166992188 494.333007812 132.5 469 c 0
 156.833007812 443.666992188 187 431 223 431 c 0
EndSplineSet
EndChar

StartChar: registered
Encoding: 174 174 136
Width: 416
Flags: W
HStem: 360 162<183.333 209 148 231.667> 531 108<148 210 148 210> 648 62<141.667 232.667 184.333 210> 681 20G<185.333 231.667>
VStem: 34 105<534 535 535 559> 148 117<426 593 522 593 578 593 578 639 578 639> 272 110<511 595>
LayerCount: 2
Fore
SplineSet
331 411.5 m 0xee
 297 377.166992188 255.833007812 360 207.5 360 c 0
 159.166992188 360 118.166992188 377 84.5 411 c 0
 50.8330078125 445 34 486 34 534 c 2
 34 535 l 2
 34 583 51 624.166992188 85 658.5 c 0
 119 692.833007812 160.166992188 710 208.5 710 c 0
 256.833007812 710 297.833007812 693 331.5 659 c 0
 365.166992188 625 382 584 382 536 c 2
 382 535 l 2
 382 487 365 445.833007812 331 411.5 c 0xee
91 417 m 0
 122.333007812 385 161.166992188 369 207.5 369 c 0
 253.833007812 369 292.833007812 385.166992188 324.5 417.5 c 0
 356.166992188 449.833007812 372 489 372 535 c 2
 372 536 l 2
 372 582 356.333007812 621 325 653 c 0
 293.666992188 685 254.833007812 701 208.5 701 c 0xde
 162.166992188 701 123.166992188 684.833007812 91.5 652.5 c 0
 59.8330078125 620.166992188 44 581 44 535 c 2
 44 534 l 2
 44 488 59.6669921875 449 91 417 c 0
260 471 m 0
 260 440.333007812 266.333007812 425 279 425 c 0
 282.333007812 425 284 426.666992188 284 430 c 1
 282.666992188 432 281 433 279 433 c 0
 272.333007812 433 269 442.666992188 269 462 c 0
 269 481.333007812 264.833007812 495.833007812 256.5 505.5 c 0
 248.166992188 515.166992188 238.333007812 521.333007812 227 524 c 1
 240.333007812 528 251.166992188 535.5 259.5 546.5 c 0
 267.833007812 557.5 272 571 272 587 c 0
 272 603 266 617.166992188 254 629.5 c 0
 242 641.833007812 227.333007812 648 210 648 c 2
 143 648 l 2xee
 140.333007812 648 139 646.666992188 139 644 c 2
 139 426 l 2
 139 422.666992188 140.5 421 143.5 421 c 0
 146.5 421 148 422.666992188 148 426 c 2
 148 522 l 1
 209 522 l 1
 243 513.333007812 260 496.333007812 260 471 c 0
148 531 m 1
 148 639 l 1
 210 639 l 2
 225.333007812 639 238.333007812 633.833007812 249 623.5 c 0
 259.666992188 613.166992188 265 600.5 265 585.5 c 0
 265 570.5 259.666992188 557.666992188 249 547 c 0
 238.333007812 536.333007812 225.333007812 531 210 531 c 2
 148 531 l 1
EndSplineSet
EndChar

StartChar: copyright
Encoding: 169 169 137
Width: 830
Flags: MW
HStem: -12 28<367 461 367 464.333> 166 40<400.333 438.667 400.333 441.333> 505 40<397 434> 684 28<369 463>
VStem: 53 30<348 350 302 399.667> 237 44<354 355 355 356 356 357 334.667 381.667> 747 30<350 352 300.333 398>
LayerCount: 2
Fore
SplineSet
414 -12 m 0
 313.333007812 -12 228 23.1669921875 158 93.5 c 0
 88 163.833007812 53 248.666992188 53 348 c 2
 53 350 l 2
 53 449.333007812 88.3330078125 534.5 159 605.5 c 0
 229.666992188 676.5 315.333007812 712 416 712 c 0
 516.666992188 712 602 676.833007812 672 606.5 c 0
 742 536.166992188 777 451.333007812 777 352 c 2
 777 350 l 2
 777 250.666992188 741.666992188 165.5 671 94.5 c 0
 600.333007812 23.5 514.666992188 -12 414 -12 c 0
414 16 m 0
 508 16 587 48.5 651 113.5 c 0
 715 178.5 747 257.333007812 747 350 c 2
 747 352 l 2
 747 444 715.333007812 522.333007812 652 587 c 0
 588.666992188 651.666992188 510 684 416 684 c 0
 322 684 243 651.5 179 586.5 c 0
 115 521.5 83 442.666992188 83 350 c 2
 83 348 l 2
 83 256 114.666992188 177.666992188 178 113 c 0
 241.333007812 48.3330078125 320 16 414 16 c 0
553 220 m 0
 511.666992188 184 466.166992188 166 416.5 166 c 0
 366.833007812 166 324.5 184.333007812 289.5 221 c 0
 254.5 257.666992188 237 302 237 354 c 2
 237 356 l 2
 237 407.333007812 254.666992188 451.666992188 290 489 c 0
 325.333007812 526.333007812 367.833007812 545 417.5 545 c 0
 467.166992188 545 511 528.333007812 549 495 c 0
 555 490.333007812 558 484.666992188 558 478 c 0
 558 471.333007812 555.833007812 466 551.5 462 c 0
 547.166992188 458 542.333007812 456 537 456 c 0
 531.666992188 456 526 458.333007812 520 463 c 0
 487.333007812 491 452.5 505 415.5 505 c 0
 378.5 505 346.833007812 490.5 320.5 461.5 c 0
 294.166992188 432.5 281 397.666992188 281 357 c 2
 281 355 l 2
 281 314.333007812 294.5 279.333007812 321.5 250 c 0
 348.5 220.666992188 381.166992188 206 419.5 206 c 0
 457.833007812 206 493.333007812 220.666992188 526 250 c 1
 531.333007812 253.333007812 536.333007812 255 541 255 c 0
 545.666992188 255 550 253 554 249 c 0
 558 245 560 240 560 234 c 0
 560 228 557.666992188 223.333007812 553 220 c 0
EndSplineSet
EndChar

StartChar: dieresis
Encoding: 168 168 138
Width: 500
Flags: MW
HStem: 603 68<162.333 171.667 344.333 353.667>
VStem: 133 67<632.333 641.667> 315 68<632.333 641.667>
LayerCount: 2
Fore
SplineSet
133 637 m 0
 133 646.333007812 136.333007812 654.333007812 143 661 c 0
 149.666992188 667.666992188 157.666992188 671 167 671 c 0
 176.333007812 671 184.166992188 667.666992188 190.5 661 c 0
 196.833007812 654.333007812 200 646.333007812 200 637 c 0
 200 627.666992188 196.833007812 619.666992188 190.5 613 c 0
 184.166992188 606.333007812 176.333007812 603 167 603 c 0
 157.666992188 603 149.666992188 606.333007812 143 613 c 0
 136.333007812 619.666992188 133 627.666992188 133 637 c 0
315 637 m 0
 315 646.333007812 318.333007812 654.333007812 325 661 c 0
 331.666992188 667.666992188 339.666992188 671 349 671 c 0
 358.333007812 671 366.333007812 667.666992188 373 661 c 0
 379.666992188 654.333007812 383 646.333007812 383 637 c 0
 383 627.666992188 379.666992188 619.666992188 373 613 c 0
 366.333007812 606.333007812 358.333007812 603 349 603 c 0
 339.666992188 603 331.666992188 606.333007812 325 613 c 0
 318.333007812 619.666992188 315 627.666992188 315 637 c 0
EndSplineSet
EndChar

StartChar: ellipsis
Encoding: 265 8230 139
Width: 680
Flags: MW
HStem: -13 86<119 131 330 342 541 553>
VStem: 82 86<24 36> 293 86<24 36> 504 86<24 36>
LayerCount: 2
Fore
SplineSet
82 30 m 0
 82 42 86.1669921875 52.1669921875 94.5 60.5 c 0
 102.833007812 68.8330078125 113 73 125 73 c 0
 137 73 147.166992188 68.8330078125 155.5 60.5 c 0
 163.833007812 52.1669921875 168 42 168 30 c 0
 168 18 163.833007812 7.8330078125 155.5 -0.5 c 0
 147.166992188 -8.8330078125 137 -13 125 -13 c 0
 113 -13 102.833007812 -8.8330078125 94.5 -0.5 c 0
 86.1669921875 7.8330078125 82 18 82 30 c 0
293 30 m 0
 293 42 297.166992188 52.1669921875 305.5 60.5 c 0
 313.833007812 68.8330078125 324 73 336 73 c 0
 348 73 358.166992188 68.8330078125 366.5 60.5 c 0
 374.833007812 52.1669921875 379 42 379 30 c 0
 379 18 374.833007812 7.8330078125 366.5 -0.5 c 0
 358.166992188 -8.8330078125 348 -13 336 -13 c 0
 324 -13 313.833007812 -8.8330078125 305.5 -0.5 c 0
 297.166992188 7.8330078125 293 18 293 30 c 0
504 30 m 0
 504 42 508.166992188 52.1669921875 516.5 60.5 c 0
 524.833007812 68.8330078125 535 73 547 73 c 0
 559 73 569.166992188 68.8330078125 577.5 60.5 c 0
 585.833007812 52.1669921875 590 42 590 30 c 0
 590 18 585.833007812 7.8330078125 577.5 -0.5 c 0
 569.166992188 -8.8330078125 559 -13 547 -13 c 0
 535 -13 524.833007812 -8.8330078125 516.5 -0.5 c 0
 508.166992188 7.8330078125 504 18 504 30 c 0
EndSplineSet
EndChar

StartChar: quotedblbase
Encoding: 266 8222 140
Width: 410
Flags: MW
HStem: -105 194<65.6665 119.667 110.333 257.333>
VStem: 82 66<35 56 5.3335 60.6665> 262 66<35 56 5.3335 60.6665>
LayerCount: 2
Fore
SplineSet
54 -90 m 0
 54 -84.6669921875 56.6669921875 -80.3330078125 62 -77 c 0
 96 -58.3330078125 111.666992188 -32.6669921875 109 0 c 1
 91 4.6669921875 82 16.3330078125 82 35 c 2
 82 56 l 2
 82 65.3330078125 85.1669921875 73.1669921875 91.5 79.5 c 0
 97.8330078125 85.8330078125 105.666992188 89 115 89 c 0
 124.333007812 89 132.166992188 85.8330078125 138.5 79.5 c 0
 144.833007812 73.1669921875 148 65.3330078125 148 56 c 2
 148 31 l 2
 148 -20.3330078125 138.166992188 -55.8330078125 118.5 -75.5 c 0
 98.8330078125 -95.1669921875 83.1669921875 -105 71.5 -105 c 0
 59.8330078125 -105 54 -100 54 -90 c 0
234 -90 m 0
 234 -84.6669921875 236.666992188 -80.3330078125 242 -77 c 0
 276 -58.3330078125 291.666992188 -32.6669921875 289 0 c 1
 271 4.6669921875 262 16.3330078125 262 35 c 2
 262 56 l 2
 262 65.3330078125 265.333007812 73.1669921875 272 79.5 c 0
 278.666992188 85.8330078125 286.333007812 89 295 89 c 0
 303.666992188 89 311.333007812 85.8330078125 318 79.5 c 0
 324.666992188 73.1669921875 328 65.3330078125 328 56 c 2
 328 31 l 2
 328 -20.3330078125 318.166992188 -55.8330078125 298.5 -75.5 c 0
 278.833007812 -95.1669921875 263.166992188 -105 251.5 -105 c 0
 239.833007812 -105 234 -100 234 -90 c 0
EndSplineSet
EndChar

StartChar: ae
Encoding: 230 230 141
Width: 954
Flags: MW
HStem: 0 25<254 304.333> 247 24<521 942 521 955 520 942> 465 26<254 304.333 250 311>
VStem: 51 25<214.667 275.333 214.667 278.667> 489 25<13 135 135 135 356 478>
LayerCount: 2
Fore
SplineSet
967 263 m 1
 967 259 l 1
 965.666992188 251 961.666992188 247 955 247 c 2
 520 247 l 1
 520 244 l 2
 520 184.666992188 540.666992188 133.5 582 90.5 c 0
 623.333007812 47.5 673.333007812 25.6669921875 732 25 c 0
 768.666992188 25 802.5 34 833.5 52 c 0
 864.5 70 889.333007812 94.3330078125 908 125 c 0
 912.0390625 133.078125 918.706054688 133.245117188 928 125.5 c 0
 932.872070312 121.440429688 933.205078125 116.606445312 929 111 c 0
 907.666992188 77.6669921875 879.5 50.8330078125 844.5 30.5 c 0
 809.5 10.1669921875 770 0.1669921875 726 0.5 c 0
 682 0.8330078125 640.333007812 15 601 43 c 0
 561.666992188 71 532.666992188 107 514 151 c 1
 514 13 l 2
 514 4.3330078125 509.833007812 0 501.5 0 c 0
 493.166992188 0 489 4.3330078125 489 13 c 2
 489 135 l 1
 469.666992188 94.3330078125 441.5 61.6669921875 404.5 37 c 0
 367.5 12.3330078125 326.666992188 0 282 0 c 0
 218 0 163.5 24 118.5 72 c 0
 73.5 120 51 177.666992188 51 245 c 0
 51 312.333007812 73.5 370.166992188 118.5 418.5 c 0
 163.5 466.833007812 218 491 282 491 c 0
 326.666992188 491 367.5 478.666992188 404.5 454 c 0
 441.5 429.333007812 469.666992188 396.666992188 489 356 c 1
 489 478 l 2
 489 486.666992188 493.166992188 491 501.5 491 c 0
 509.833007812 491 514 486.666992188 514 478 c 2
 514 338 l 1
 532 383.333007812 560.666992188 419.833007812 600 447.5 c 0
 639.333007812 475.166992188 683.333007812 489 732 489 c 0
 794 489 847.5 467.333007812 892.5 424 c 0
 937.5 380.666992188 962.333007812 327 967 263 c 1
136.5 89.5 m 0
 176.833007812 46.5 225.5 25 282.5 25 c 0
 339.5 25 388.166992188 46.5 428.5 89.5 c 0
 468.833007812 132.5 489 184.333007812 489 245 c 0
 489 305.666992188 468.833007812 357.5 428.5 400.5 c 0
 388.166992188 443.5 339.5 465 282.5 465 c 0
 225.5 465 176.833007812 443.5 136.5 400.5 c 0
 96.1669921875 357.5 76 305.666992188 76 245 c 0
 76 184.333007812 96.1669921875 132.5 136.5 89.5 c 0
521 271 m 1
 942 271 l 1
 935.333007812 325.666992188 912 371.333007812 872 408 c 0
 832 444.666992188 785.166992188 463 731.5 463 c 0
 677.833007812 463 631 444.666992188 591 408 c 0
 551 371.333007812 527.666992188 325.666992188 521 271 c 1
EndSplineSet
EndChar

StartChar: oe
Encoding: 267 339 142
Width: 1055
Flags: W
HStem: 0 25<260.667 314.667> 247 24<526 947 526 960 525 947> 465 24 470 20G<257 314.667>
VStem: 58 25<214.667 275.333 214.667 278.667> 496 29<214.667 244 244 247 214.333 275.333>
LayerCount: 2
Fore
SplineSet
849.5 30.5 m 0xec
 814.5 10.1669921875 774 0.1669921875 728 0.5 c 0
 682 0.8330078125 638.166992188 17.3330078125 596.5 50 c 0
 554.833007812 82.6669921875 526.333007812 124 511 174 c 1
 496.333007812 123.333007812 468.5 81.6669921875 427.5 49 c 0
 386.5 16.3330078125 340.333007812 0 289 0 c 0
 225 0 170.5 24 125.5 72 c 0
 80.5 120 58 177.666992188 58 245 c 0
 58 312.333007812 80.5 370 125.5 418 c 0
 170.5 466 225 490 289 490 c 0xdc
 340.333007812 490 386.5 473.666992188 427.5 441 c 0
 468.5 408.333007812 496.333007812 366.666992188 511 316 c 1
 526.333007812 366.666992188 554.666992188 408.166992188 596 440.5 c 0
 637.333007812 472.833007812 686.666992188 489 744 489 c 0
 801.333007812 489 852.5 467.333007812 897.5 424 c 0
 942.5 380.666992188 967.333007812 327 972 263 c 1
 972 259 l 1
 970.666992188 251 966.666992188 247 960 247 c 2
 525 247 l 1
 525 244 l 2
 525 184.666992188 545.666992188 133.5 587 90.5 c 0
 628.333007812 47.5 678.333007812 25.6669921875 737 25 c 0
 773.666992188 25 807.5 34 838.5 52 c 0
 869.5 70 894.333007812 94.3330078125 913 125 c 0
 917.0390625 133.078125 923.706054688 133.245117188 933 125.5 c 0
 937.872070312 121.440429688 938.205078125 116.606445312 934 111 c 0
 912.666992188 77.6669921875 884.5 50.8330078125 849.5 30.5 c 0xec
83 245 m 0
 83 184.333007812 103.166992188 132.5 143.5 89.5 c 0
 183.833007812 46.5 232.333007812 25 289 25 c 0
 345.666992188 25 394.333007812 46.5 435 89.5 c 0
 475.666992188 132.5 496 184.333007812 496 245 c 0
 496 305.666992188 475.666992188 357.5 435 400.5 c 0
 394.333007812 443.5 345.666992188 465 289 465 c 0
 232.333007812 465 183.833007812 443.5 143.5 400.5 c 0
 103.166992188 357.5 83 305.666992188 83 245 c 0
877 408 m 0
 837 444.666992188 790.166992188 463 736.5 463 c 0
 682.833007812 463 636 444.666992188 596 408 c 0
 556 371.333007812 532.666992188 325.666992188 526 271 c 1
 947 271 l 1
 940.333007812 325.666992188 917 371.333007812 877 408 c 0
EndSplineSet
EndChar

StartChar: aring
Encoding: 229 229 143
Width: 574
Flags: MW
HStem: 0 25<253.667 304> 464 26<253.667 304 250 310.333> 570 22<275 291 275 295> 707 22<275 291>
VStem: 51 25<214.667 275.333 214.667 278.667> 202 24<641.667 651 641.667 662.667> 340 24<649 650 650 651 639 657.333> 488 25<13 135 135 135 214.667 275.333 355 477>
LayerCount: 2
Fore
SplineSet
341 593.5 m 0
 325.666992188 577.833007812 306.5 570 283.5 570 c 0
 260.5 570 241.166992188 577.833007812 225.5 593.5 c 0
 209.833007812 609.166992188 202 628 202 650 c 2
 202 651 l 2
 202 674.333007812 210 693.166992188 226 707.5 c 0
 242 721.833007812 261 729 283 729 c 0
 305 729 324 721.5 340 706.5 c 0
 356 691.5 364 673 364 651 c 2
 364 650 l 2
 364 628 356.333007812 609.166992188 341 593.5 c 0
283 592 m 0
 299 592 312.5 597.833007812 323.5 609.5 c 0
 334.5 621.166992188 340 634.333007812 340 649 c 2
 340 650 l 2
 340 664.666992188 334.5 677.833007812 323.5 689.5 c 0
 312.5 701.166992188 299 707 283 707 c 0
 267 707 253.5 701.166992188 242.5 689.5 c 0
 231.5 677.833007812 226 664.666992188 226 650 c 2
 226 649 l 2
 226 634.333007812 231.5 621.166992188 242.5 609.5 c 0
 253.5 597.833007812 267 592 283 592 c 0
488 477 m 2
 488 485.666992188 492.166992188 490 500.5 490 c 0
 508.833007812 490 513 485.666992188 513 477 c 2
 513 13 l 2
 513 4.3330078125 508.833007812 0 500.5 0 c 0
 492.166992188 0 488 4.3330078125 488 13 c 2
 488 135 l 1
 468.666992188 94.3330078125 440.5 61.6669921875 403.5 37 c 0
 366.5 12.3330078125 326 0 282 0 c 0
 218 0 163.5 24 118.5 72 c 0
 73.5 120 51 177.666992188 51 245 c 0
 51 312.333007812 73.5 370 118.5 418 c 0
 163.5 466 218 490 282 490 c 0
 326 490 366.5 477.666992188 403.5 453 c 0
 440.5 428.333007812 468.666992188 395.666992188 488 355 c 1
 488 477 l 2
282 25 m 0
 338.666992188 25 387.166992188 46.5 427.5 89.5 c 0
 467.833007812 132.5 488 184.333007812 488 245 c 0
 488 305.666992188 467.833007812 357.333007812 427.5 400 c 0
 387.166992188 442.666992188 338.666992188 464 282 464 c 0
 225.333007812 464 176.833007812 442.666992188 136.5 400 c 0
 96.1669921875 357.333007812 76 305.666992188 76 245 c 0
 76 184.333007812 96.1669921875 132.5 136.5 89.5 c 0
 176.833007812 46.5 225.333007812 25 282 25 c 0
EndSplineSet
EndChar

StartChar: AE
Encoding: 198 198 144
Width: 1045
Flags: MW
HStem: 0 29<523.333 969 531 969 531 969> 206 27<205 501 205 501 188 501> 337 32<531 919 531 919> 672 28<531 964 531 531>
VStem: 501 30<29 206 206 206 233 337 369 672>
LayerCount: 2
Fore
SplineSet
42 19 m 1
 52.6669921875 41 185.666992188 262.666992188 441 684 c 0
 447.666992188 694.666992188 456.333007812 700 467 700 c 2
 964 700 l 2
 980 700 988 695.333007812 988 686 c 0
 988 676.666992188 980 672 964 672 c 2
 531 672 l 1
 531 369 l 1
 919 369 l 2
 935 369 943 363.666992188 943 353 c 0
 943 342.333007812 935 337 919 337 c 2
 531 337 l 1
 531 29 l 1
 969 29 l 2
 985 29 993 24.1669921875 993 14.5 c 0
 993 4.8330078125 985 0 969 0 c 2
 527 0 l 2
 519.666992188 0 513.5 2.6669921875 508.5 8 c 0
 503.5 13.3330078125 501 19.3330078125 501 26 c 2
 501 206 l 1
 188 206 l 1
 68 8 l 2
 63.3330078125 0.6669921875 56.826171875 -2.3564453125 48.4775390625 -1.068359375 c 0
 40.12890625 0.2197265625 37.9697265625 6.9091796875 42 19 c 1
205 233 m 1
 501 233 l 1
 501 673 l 1
 469 673 l 1
 205 233 l 1
EndSplineSet
EndChar

StartChar: Scaron
Encoding: 268 352 145
Width: 640
Flags: MW
HStem: -5 25<305.667 359.667 305.667 365.667> 678 26<300.667 360.074 297 366.333>
VStem: 110 26<519.545 557.333 519.545 561.564> 566 25<168.667 211.889>
LayerCount: 2
Fore
SplineSet
268 869 m 2
 337 793 l 1
 407 868 l 2
 419.666992188 880.666992188 428.666992188 887 434 887 c 0
 442.600585938 885.813476562 446.934570312 885.146484375 447 885 c 0
 447 881 445.333007812 877 442 873 c 2
 370 785 l 2
 360 773 350.666992188 767 342 767 c 2
 334 767 l 2
 325.333007812 767 316 773 306 785 c 2
 234 873 l 2
 230.666992188 877 229 880.333007812 229 883 c 0
 229 885.666992188 229.5 887.166992188 230.5 887.5 c 0
 231.5 887.833007812 233.5 887.833007812 236.5 887.5 c 0
 239.5 887.166992188 242.5 887 245.5 887 c 0
 248.5 887 256 881 268 869 c 2
117 59 m 0
 92.7333984375 73.93359375 77.1669921875 84.8330078125 70.2998046875 91.7001953125 c 0
 63.43359375 98.56640625 60.8330078125 104.333007812 62.5 109 c 0
 64.1669921875 113.666992188 67 116.666992188 71 118 c 0
 75 119.333007812 79.3330078125 117.833007812 84 113.5 c 0
 88.6669921875 109.166992188 99.1669921875 101 115.5 89 c 0
 131.833007812 77 160.833007812 62.5 202.5 45.5 c 0
 244.166992188 28.5 285.333007812 20 326 20 c 0
 393.333007812 20 450.166992188 36.6669921875 496.5 70 c 0
 542.833007812 103.333007812 566 144.333007812 566 193 c 0
 566 230.77734375 555 259.444335938 533 279 c 0
 521 289.666992188 509.666992188 298.5 499 305.5 c 0
 488.333007812 312.5 472.833007812 319.333007812 452.5 326 c 0
 428.12109375 333.993164062 397.776367188 342.32421875 361.465820312 350.995117188 c 0
 325.155273438 359.665039062 300.333007812 365.833007812 287 369.5 c 0
 273.666992188 373.166992188 256 378.666992188 234 386 c 0
 212 393.333007812 195.166992188 401 183.5 409 c 0
 171.833007812 417 159.5 427 146.5 439 c 0
 122.166992188 461.461914062 110 494.91015625 110 539.345703125 c 0
 110 583.782226562 131.166992188 622.333007812 173.5 655 c 0
 215.833007812 687.666992188 267 704 327 704 c 0
 393.1484375 704 451.981445312 686.166992188 503.5 650.5 c 0
 522.690429688 637.213867188 534.857421875 626.713867188 540 619 c 1
 545.333007812 613 545 607 539 601 c 1
 531.666992188 596.333007812 525.666992188 596.666992188 521 602 c 0
 470.333007812 652.666992188 405.666992188 678 327 678 c 0
 274.333007812 678 229.333007812 664.333007812 192 637 c 0
 154.666992188 609.666992188 136 576.666992188 136 538 c 0
 136 501.090820312 150.166992188 469.7578125 178.5 444 c 0
 198.701171875 425.634765625 234.368164062 409.634765625 285.5 396 c 0
 300.5 392 321.833007812 386.833007812 349.5 380.5 c 0
 377.166992188 374.166992188 397.833007812 369.166992188 411.5 365.5 c 0
 425.166992188 361.833007812 443.166992188 356.333007812 465.5 349 c 0
 487.833007812 341.666992188 505 333.833007812 517 325.5 c 0
 529 317.166992188 541.5 306.833007812 554.5 294.5 c 0
 578.833007812 271.4140625 591 237.581054688 591 193 c 0
 591 137.666992188 565.5 90.8330078125 514.5 52.5 c 0
 463.5 14.1669921875 401.833007812 -5 329.5 -5 c 0
 257.166992188 -5 186.333007812 16.3330078125 117 59 c 0
EndSplineSet
EndChar

StartChar: scaron
Encoding: 269 353 146
Width: 497
Flags: MW
HStem: 0 25<237 273.333 237 277.333> 474 26<233.333 259 223 278>
VStem: 96 26<365.539 394 364.095 397.77> 413 26<125 153.733>
LayerCount: 2
Fore
SplineSet
180 644 m 2
 249 568 l 1
 319 643 l 2
 331.666992188 655.666992188 340.666992188 662 346 662 c 0
 354.600585938 660.813476562 358.934570312 660.146484375 359 660 c 0
 359 656 357.333007812 652 354 648 c 2
 282 560 l 2
 272 548 262.666992188 542 254 542 c 2
 246 542 l 2
 237.333007812 542 228 548 218 560 c 2
 146 648 l 2
 142.666992188 652 141 655.333007812 141 658 c 0
 141 660.666992188 141.5 662.166992188 142.5 662.5 c 0
 143.5 662.833007812 145.5 662.833007812 148.5 662.5 c 0
 151.5 662.166992188 154.5 662 157.5 662 c 0
 160.5 662 168 656 180 644 c 2
251 0 m 0
 220.333007812 0 189.333007812 6.1669921875 158 18.5 c 0
 115.672851562 35.1611328125 85.3388671875 52.6611328125 67 71 c 0
 63 75 61.8330078125 79.3330078125 63.5 84 c 0
 65.1669921875 88.6669921875 68 91.6669921875 72 93 c 0
 76 94.3330078125 80 93.1669921875 84 89.5 c 0
 88 85.8330078125 95.5 80 106.5 72 c 0
 117.5 64 137.333007812 54.1669921875 166 42.5 c 0
 194.666992188 30.8330078125 223 25 251 25 c 0
 295.666992188 25 333.833007812 36.3330078125 365.5 59 c 0
 397.166992188 81.6669921875 413 109 413 141 c 0
 413 166.466796875 405.5 185.799804688 390.5 199 c 0
 373.482421875 213.975585938 356.311523438 224.21875 338.987304688 229.731445312 c 0
 315.487304688 237.208984375 291.447265625 243.7890625 266.868164062 249.473632812 c 0
 242.2890625 255.158203125 224.833007812 259.333007812 214.5 262 c 0
 204.166992188 264.666992188 189.833007812 269.833007812 171.5 277.5 c 0
 153.166992188 285.166992188 139.666992188 293 131 301 c 0
 107.666992188 322.538085938 96 349.422851562 96 381.654296875 c 0
 96 413.884765625 111.166992188 441.666992188 141.5 465 c 0
 171.833007812 488.333007812 205 500 241 500 c 0
 277 500 307.666992188 494.833007812 333 484.5 c 0
 369.015625 469.809570312 392.015625 454.975585938 402 440 c 0
 405.333007812 436.666992188 406 432.666992188 404 428 c 0
 402 423.333007812 398.833007812 420.5 394.5 419.5 c 0
 390.166992188 418.5 386.333007812 419.666992188 383 423 c 0
 349 457 305 474 251 474 c 0
 215.666992188 474 185.333007812 465 160 447 c 0
 134.666992188 429 122 407 122 381 c 0
 122 347.190429688 137.166992188 322.857421875 167.5 308 c 0
 192.1484375 295.927734375 220.560546875 286.2421875 252.736328125 278.9453125 c 0
 284.912109375 271.6484375 306.833007812 266.333007812 318.5 263 c 0
 330.166992188 259.666992188 344.833007812 254.5 362.5 247.5 c 0
 380.166992188 240.5 393.666992188 232.666992188 403 224 c 0
 427 201.713867188 439 172.4765625 439 136.286132812 c 0
 439 100.095703125 420.833007812 68.3330078125 384.5 41 c 0
 348.166992188 13.6669921875 303.666992188 0 251 0 c 0
EndSplineSet
EndChar

StartChar: bracketleft
Encoding: 91 91 147
Width: 430
Flags: MW
HStem: -130 24<123 124 124 356> 676 24<124 356 124 356 123 356>
VStem: 98 25<-104 674 674 676 -106 677.333>
LayerCount: 2
Fore
SplineSet
98 -104 m 2
 98 674 l 2
 98 680.666992188 100.666992188 686.666992188 106 692 c 0
 111.333007812 697.333007812 117.333007812 700 124 700 c 2
 356 700 l 2
 368 700 374 695.333007812 374 686 c 0
 374 679.333007812 368 676 356 676 c 2
 123 676 l 1
 123 -106 l 1
 356 -106 l 2
 368 -106 374 -110.333007812 374 -119 c 0
 374 -126.333007812 368 -130 356 -130 c 2
 124 -130 l 2
 117.333007812 -130 111.333007812 -127.333007812 106 -122 c 0
 100.666992188 -116.666992188 98 -110.666992188 98 -104 c 2
EndSplineSet
EndChar

StartChar: bracketright
Encoding: 93 93 148
Width: 430
Flags: MW
HStem: -130 24<67 306 73 305> 676 24<67 305 73 305 305 306>
VStem: 306 25<-106 -104 -104 674>
LayerCount: 2
Fore
SplineSet
331 674 m 2
 331 -104 l 2
 331 -110.666992188 328.5 -116.666992188 323.5 -122 c 0
 318.5 -127.333007812 312.333007812 -130 305 -130 c 2
 73 -130 l 2
 61 -130 55 -126.333007812 55 -119 c 0
 55 -110.333007812 61 -106 73 -106 c 2
 306 -106 l 1
 306 676 l 1
 73 676 l 2
 61 676 55 679.333007812 55 686 c 0
 55 695.333007812 61 700 73 700 c 2
 305 700 l 2
 312.333007812 700 318.5 697.333007812 323.5 692 c 0
 328.5 686.666992188 331 680.666992188 331 674 c 2
EndSplineSet
EndChar

StartChar: braceleft
Encoding: 123 123 149
Width: 480
Flags: MW
HStem: 268 38<71 103.333>
VStem: 205 29<62 68 68 141 141 143 433 506>
LayerCount: 2
Fore
SplineSet
406 -139 m 0
 326.666992188 -123 273.333007812 -99.5 246 -68.5 c 0
 218.666992188 -37.5 205 6 205 62 c 2
 205 141 l 2
 205 183.666992188 196.166992188 215.5 178.5 236.5 c 0
 160.833007812 257.5 127.666992188 268 79 268 c 0
 63 268 55 274.333007812 55 287 c 0
 55 299.666992188 63 306 79 306 c 0
 127.666992188 306 160.833007812 316.5 178.5 337.5 c 0
 196.166992188 358.5 205 390.333007812 205 433 c 2
 205 512 l 2
 205 568 218.666992188 611.5 246 642.5 c 0
 273.333007812 673.5 326.666992188 697 406 713 c 0
 420 715.666992188 427 712.666992188 427 704 c 0
 427 698 423 693.666992188 415 691 c 0
 344.333007812 672.333007812 296.5 649.666992188 271.5 623 c 0
 246.5 596.333007812 234 557.333007812 234 506 c 2
 234 431 l 2
 234 389 225.166992188 357 207.5 335 c 0
 189.833007812 313 164 297 130 287 c 1
 166 275 192.333007812 258.5 209 237.5 c 0
 225.666992188 216.5 234 185 234 143 c 2
 234 68 l 2
 234 16.6669921875 246.5 -22.3330078125 271.5 -49 c 0
 296.5 -75.6669921875 344.333007812 -98.3330078125 415 -117 c 0
 423 -119.666992188 427 -124.666992188 427 -132 c 0
 427 -139.333007812 420 -141.666992188 406 -139 c 0
EndSplineSet
EndChar

StartChar: braceright
Encoding: 125 125 150
Width: 480
Flags: MW
HStem: 268 38<376.667 409>
VStem: 246 29<68 141 431 433 433 506 506 512>
LayerCount: 2
Fore
SplineSet
74 -139 m 0
 60 -141.666992188 53 -139.333007812 53 -132 c 0
 53 -124.666992188 57 -119.666992188 65 -117 c 0
 135.666992188 -98.3330078125 183.5 -75.6669921875 208.5 -49 c 0
 233.5 -22.3330078125 246 16.6669921875 246 68 c 2
 246 143 l 2
 246 185 254.333007812 216.5 271 237.5 c 0
 287.666992188 258.5 314 275 350 287 c 1
 316 297 290.166992188 313 272.5 335 c 0
 254.833007812 357 246 389 246 431 c 2
 246 506 l 2
 246 557.333007812 233.5 596.333007812 208.5 623 c 0
 183.5 649.666992188 135.666992188 672.333007812 65 691 c 0
 57 693.666992188 53 698 53 704 c 0
 53 712.666992188 60 715.666992188 74 713 c 0
 153.333007812 697 206.666992188 673.5 234 642.5 c 0
 261.333007812 611.5 275 568 275 512 c 2
 275 433 l 2
 275 390.333007812 283.833007812 358.5 301.5 337.5 c 0
 319.166992188 316.5 352.333007812 306 401 306 c 0
 417 306 425 299.666992188 425 287 c 0
 425 274.333007812 417 268 401 268 c 0
 352.333007812 268 319.166992188 257.5 301.5 236.5 c 0
 283.833007812 215.5 275 183.666992188 275 141 c 2
 275 62 l 2
 275 6 261.333007812 -37.5 234 -68.5 c 0
 206.666992188 -99.5 153.333007812 -123 74 -139 c 0
EndSplineSet
EndChar

StartChar: dollar
Encoding: 36 36 151
Width: 632
Flags: MW
HStem: -49 21G<316.222 322> -3 23<308 308 308 330> 683 23<308 308 308 330> 735 20G<318 322>
VStem: 85 23<506.333 530> 308 22<-34.3335 -27 -27 -3 20 352 379 683 706 733> 556 23
LayerCount: 2
Fore
SplineSet
505 313 m 0
 554.333007812 280.333007812 578.833007812 238 578.5 186 c 0
 578.166992188 134 553.666992188 89.8330078125 505 53.5 c 0
 456.333007812 17.1669921875 398 -1.6669921875 330 -3 c 1
 330 -27 l 2
 330 -41.6669921875 326 -49 318 -49 c 0
 314.444335938 -49 312.22265625 -48.3330078125 311.333007812 -47 c 0
 310.444335938 -45.6669921875 309.666992188 -44.6669921875 309 -44 c 0
 308.333007812 -43.3330078125 308 -42.1669921875 308 -40.5 c 2
 308 -3 l 1
 224 2.3330078125 143.666992188 36 67 98 c 0
 63.6669921875 100.666992188 62.3330078125 104.333007812 63 109 c 0
 63.6669921875 113.666992188 65.8330078125 116.666992188 69.5 118 c 0
 73.1669921875 119.333007812 77 118.666992188 81 116 c 0
 153.666992188 57.3330078125 229.333007812 25.3330078125 308 20 c 1
 308 356 l 1
 243.333007812 368.666992188 192 387.666992188 154 413 c 0
 108 443.666992188 85 482.666992188 85 530 c 0
 85.6669921875 577.333007812 107.5 617.666992188 150.5 651 c 0
 193.5 684.333007812 246 702.666992188 308 706 c 1
 308 733 l 2
 308 734.033203125 308.209960938 737.82421875 308.630859375 744.374023438 c 0
 309.051757812 750.922851562 312.174804688 754.46484375 318 755 c 0
 326 755 330 747.666992188 330 733 c 2
 330 706 l 1
 356.666992188 705.333007812 384 700.166992188 412 690.5 c 0
 440 680.833007812 462 671.333007812 478 662 c 0
 494 652.666992188 514 640 538 624 c 0
 541.333007812 622 542.833007812 618.833007812 542.5 614.5 c 0
 542.166992188 610.166992188 540.5 607 537.5 605 c 0
 534.5 603 530.666992188 603 526 605 c 0
 502 621 482.333007812 633.333007812 467 642 c 0
 451.666992188 650.666992188 431.166992188 659.5 405.5 668.5 c 0
 379.833007812 677.5 354.666992188 682.333007812 330 683 c 1
 330 375 l 1
 406 359.666992188 464.333007812 339 505 313 c 0
308 683 m 1
 256 680.333007812 209.666992188 665 169 637 c 0
 128.333007812 609 108 574.5 108 533.5 c 0
 108 458.036132812 174.666992188 406.536132812 308 379 c 1
 308 683 l 1
330 20 m 1
 388 20.6669921875 440.166992188 36.6669921875 486.5 68 c 0
 532.833007812 99.3330078125 556 137.5 556 182.5 c 0
 556 227.5 534.666992188 264.666992188 492 294 c 0
 456.666992188 318 402.666992188 337.333007812 330 352 c 1
 330 20 l 1
EndSplineSet
EndChar

StartChar: bar
Encoding: 124 124 152
Width: 286
Flags: MW
HStem: -132 21G<129.667 139.333> 782 20G<129.667 139.333>
VStem: 121 29<-110 780>
LayerCount: 2
Fore
SplineSet
121 -110 m 2
 121 780 l 2
 121 794.666992188 125.333007812 802 134 802 c 0
 144.666992188 802 150 794.666992188 150 780 c 2
 150 -110 l 2
 150 -124.666992188 144.666992188 -132 134 -132 c 0
 125.333007812 -132 121 -124.666992188 121 -110 c 2
EndSplineSet
EndChar

StartChar: percent
Encoding: 270 37 153
Width: 824
Flags: W
HStem: -8 21G 680 20G<660.667 664.889> 688 20G<187 232>
VStem: 55 24<527 529 529 531 505.333 553.333> 339 24<527 529 529 531 504.667 552.667> 461 23<169 171 171 173 147.667 195.333> 746 23<169 171 171 173 146.667 194.333>
LayerCount: 2
Fore
SplineSet
319.5 403 m 0xbe
 290.5 367.666992188 253.5 350 208.5 350 c 0
 163.5 350 126.666992188 367.5 98 402.5 c 0
 69.3330078125 437.5 55 479 55 527 c 2
 55 529 l 2
 55 577.666992188 69.5 619.666992188 98.5 655 c 0
 127.5 690.333007812 164.5 708 209.5 708 c 0
 254.5 708 291.333007812 690.5 320 655.5 c 0
 348.666992188 620.5 363 579 363 531 c 2
 363 529 l 2
 363 480.333007812 348.5 438.333007812 319.5 403 c 0xbe
154.5 13 m 2
 165 30 l 1
 652 693 l 2
 655.333007812 697.666992188 658.833007812 700 662.5 700 c 0xde
 667.27734375 700 670.22265625 698.333007812 671.333007812 695 c 0
 672.444335938 691.666992188 668.333007812 683.333007812 659 670 c 2
 172 8 l 2
 168.666992188 4.6669921875 165.333007812 3 162 3 c 0
 158.666992188 3 156.333007812 4.1669921875 155 6.5 c 0
 153.666992188 8.8330078125 153.5 11 154.5 13 c 2
725.5 45 m 0
 696.5 9.6669921875 659.5 -8 614.5 -8 c 0
 569.5 -8 532.666992188 9.5 504 44.5 c 0
 475.333007812 79.5 461 121 461 169 c 2
 461 171 l 2
 461 219.666992188 475.5 261.666992188 504.5 297 c 0
 533.5 332.333007812 570.5 350 615.5 350 c 0
 660.5 350 697.333007812 332.5 726 297.5 c 0
 754.666992188 262.5 769 221 769 173 c 2
 769 171 l 2
 769 122.333007812 754.5 80.3330078125 725.5 45 c 0
118 410 m 0
 144 378 175 362 211 362 c 0
 247 362 277.333007812 377.833007812 302 409.5 c 0
 326.666992188 441.166992188 339 480.333007812 339 527 c 2
 339 529 l 2
 339 576.333007812 326 616 300 648 c 0
 274 680 243.166992188 696 207.5 696 c 0
 171.833007812 696 141.5 679.833007812 116.5 647.5 c 0
 91.5 615.166992188 79 576.333007812 79 531 c 2
 79 529 l 2
 79 481.666992188 92 442 118 410 c 0
524 53 m 0
 550.666992188 21 581.666992188 5 617 5 c 0
 652.333007812 5 682.666992188 20.8330078125 708 52.5 c 0
 733.333007812 84.1669921875 746 123 746 169 c 2
 746 171 l 2
 746 217.666992188 732.666992188 257 706 289 c 0
 679.333007812 321 648.333007812 337 613 337 c 0
 577.666992188 337 547.333007812 320.833007812 522 288.5 c 0
 496.666992188 256.166992188 484 217.666992188 484 173 c 2
 484 171 l 2
 484 124.333007812 497.333007812 85 524 53 c 0
EndSplineSet
EndChar

StartChar: sterling
Encoding: 163 163 154
Width: 644
Flags: W
HStem: -7 24<79 561> 311 25<83.0542 156 90 156 181 485 485 493> 680 23<359 408.476>
VStem: 66 115<-3 311 18 326.667> 156 25<18 311 18 311 336 464 464 465>
LayerCount: 2
Fore
SplineSet
509 322 m 0xe8
 509 314.666992188 506 311 500 311 c 2
 181 311 l 1
 181 18 l 1
 561 17 l 1
 575.614257812 14.16796875 583.614257812 10.16796875 585 5 c 1
 585 -1 583.166992188 -4.5 579.5 -5.5 c 0
 575.833007812 -6.5 569.666992188 -7 561 -7 c 2
 79 -7 l 2
 70.3330078125 -7 66 -5 66 -1 c 0xf0
 66 5 70 8.3330078125 78 9 c 2
 156 18 l 1
 156 311 l 1xe8
 90 311 l 2
 76.1083984375 311 68.634765625 312.306640625 67.5810546875 314.920898438 c 0
 66.52734375 317.534179688 66 319.893554688 66 322 c 0xf0
 66 331.333007812 74 336 90 336 c 2
 156 336 l 1
 156 464 l 2
 156 534.666992188 175.166992188 592.166992188 213.5 636.5 c 0
 251.833007812 680.833007812 304.333007812 703 371 703 c 0
 451.666992188 703 518.333007812 672 571 610 c 0
 575.666992188 604 578 597.666992188 578 591 c 0
 578 584.333007812 576.5 581 573.5 581 c 2
 560 582 l 2
 555.619140625 582 550.690429688 585.833007812 545.213867188 593.5 c 0
 504.0234375 651.166992188 445.952148438 680 371 680 c 0
 347 680 322.666992188 675.166992188 298 665.5 c 0
 273.333007812 655.833007812 253.333007812 643.333007812 238 628 c 0
 222.666992188 612.666992188 209.333007812 589.5 198 558.5 c 0
 186.666992188 527.5 181 496.333007812 181 465 c 2
 181 336 l 1
 485 336 l 2
 501 336 509 331.333007812 509 322 c 0xe8
EndSplineSet
EndChar

StartChar: yen
Encoding: 165 165 155
Width: 686
Flags: W
HStem: 0 21G<311.333 319.667> 177 29<140 303 145 303 145 328 328 487> 330 27<140 292 145 292 145 303 339 487>
VStem: 130 198<8.6665 195.333> 303 25<13 177 206 330> 303 199<13 192 177 192 185.667 330 185.667 330>
LayerCount: 2
Fore
SplineSet
303 13 m 2xe8
 303 177 l 1xe8
 145 177 l 2
 135 177 130 181.333007812 130 190 c 0xf0
 130 200.666992188 135 206 145 206 c 2
 303 206 l 1
 303 330 l 1xe8
 145 330 l 2
 135 330 130 334 130 342 c 0xf0
 130 352 135 357 145 357 c 2
 292 357 l 1
 58 679 l 1
 51.595703125 685.404296875 52.2626953125 690.836914062 60.0009765625 695.297851562 c 0
 67.73828125 699.759765625 73.73828125 699.327148438 78 694 c 2
 316 367 l 1
 553 694 l 2
 556.333007812 697.333007812 560.5 698.5 565.5 697.5 c 0
 570.5 696.5 574 694.166992188 576 690.5 c 0
 578 686.833007812 577.666992188 683 575 679 c 2
 339 357 l 1
 487 357 l 2
 491 357 494.5 355.5 497.5 352.5 c 0
 500.5 349.5 502 346.166992188 502 342.5 c 0xe4
 502 338.833007812 500.5 335.833007812 497.5 333.5 c 0
 494.5 331.166992188 491 330 487 330 c 2
 328 330 l 1
 328 206 l 1xe8
 487 206 l 2
 491 206 494.5 204.333007812 497.5 201 c 0
 500.5 197.666992188 502 194 502 190 c 0xe4
 502 181.333007812 497 177 487 177 c 2
 328 177 l 1
 328 13 l 2xf0
 328 4.3330078125 323.833007812 0 315.5 0 c 0
 307.166992188 0 303 4.3330078125 303 13 c 2xe8
EndSplineSet
EndChar

StartChar: Oslash
Encoding: 216 216 156
Width: 850
Flags: MW
HStem: -13 27<414 414> 684 26<371 457>
VStem: 73 27<349 349> 728 28<349 349>
LayerCount: 2
Fore
SplineSet
101 32 m 2
 705 658 l 2
 707 660.666992188 709.833007812 662.166992188 713.5 662.5 c 0
 717.166992188 662.833007812 720.333007812 661.666992188 723 659 c 0
 729.666992188 653.666992188 730.333007812 647.666992188 725 641 c 2
 118 14 l 2
 114.666992188 10 111 8.5 107 9.5 c 0
 103 10.5 101 12 101 14 c 1
 95 18.6669921875 95 24.6669921875 101 32 c 2
173 604.5 m 0
 239 674.833007812 319.166992188 710 413.5 710 c 0
 507.833007812 710 588.166992188 674.833007812 654.5 604.5 c 0
 720.833007812 534.166992188 754.666992188 449 756 349 c 1
 754.666992188 248.333007812 721 162.833007812 655 92.5 c 0
 589 22.1669921875 508.666992188 -13 414 -13 c 0
 319.333007812 -13 239 22.1669921875 173 92.5 c 0
 107 162.833007812 73.6669921875 248.333007812 73 349 c 1
 73.6669921875 449 107 534.166992188 173 604.5 c 0
414 14 m 1
 500 15.3330078125 573.666992188 48.5 635 113.5 c 0
 696.333007812 178.5 727.333007812 257 728 349 c 1
 727.333007812 441.666992188 696.333007812 520.666992188 635 586 c 0
 573.666992188 651.333007812 500 684 414 684 c 0
 328 684 254.166992188 651.333007812 192.5 586 c 0
 130.833007812 520.666992188 100 441.833007812 100 349.5 c 0
 100 257.166992188 130.666992188 178.5 192 113.5 c 0
 253.333007812 48.5 327.333007812 15.3330078125 414 14 c 1
EndSplineSet
EndChar

StartChar: oslash
Encoding: 248 248 157
Width: 640
Flags: MW
HStem: 0 25<260.667 317.333 260.667 321> 465 25<260.667 317.333>
VStem: 58 25<214.667 275.333 214.667 278.667> 496 25<214.667 275.333>
LayerCount: 2
Fore
SplineSet
81 8 m 2
 500 469 l 2
 505.666992188 474.666992188 511.583007812 474.75 517.75 469.25 c 0
 523.916992188 463.75 524.333007812 458 519 452 c 2
 97 -10 l 1
 94.7646484375 -15.2158203125 89.09765625 -15.548828125 80 -11 c 1
 74 -5 74.3330078125 1.3330078125 81 8 c 2
289 490 m 0
 353 490 407.666992188 466 453 418 c 0
 498.333007812 370 521 312.333007812 521 245 c 0
 521 177.666992188 498.333007812 120 453 72 c 0
 407.666992188 24 353 0 289 0 c 0
 225 0 170.5 24 125.5 72 c 0
 80.5 120 58 177.666992188 58 245 c 0
 58 312.333007812 80.5 370 125.5 418 c 0
 170.5 466 225 490 289 490 c 0
289 25 m 0
 345.666992188 25 394.333007812 46.5 435 89.5 c 0
 475.666992188 132.5 496 184.333007812 496 245 c 0
 496 305.666992188 475.666992188 357.5 435 400.5 c 0
 394.333007812 443.5 345.666992188 465 289 465 c 0
 232.333007812 465 183.833007812 443.5 143.5 400.5 c 0
 103.166992188 357.5 83 305.666992188 83 245 c 0
 83 184.333007812 103.166992188 132.5 143.5 89.5 c 0
 183.833007812 46.5 232.333007812 25 289 25 c 0
EndSplineSet
EndChar

StartChar: Eth
Encoding: 208 208 158
Width: 812
Flags: MW
HStem: 0 25<173.667 312 190 312 190 312> 343 20<61.6665 165 65 165 190 293> 675 25<190 312 190 190>
VStem: 165 25<25 25 25 343 363 675> 637 25<351 351>
LayerCount: 2
Fore
SplineSet
165 13 m 2
 165 343 l 1
 65 343 l 2
 58.3330078125 343 55 346.333007812 55 353 c 0
 55 359.666992188 58.3330078125 363 65 363 c 2
 165 363 l 1
 165 687 l 2
 165 695.666992188 169.333007812 700 178 700 c 2
 312 700 l 2
 408.666992188 700 491.166992188 665.833007812 559.5 597.5 c 0
 627.833007812 529.166992188 662 446.666992188 662 350 c 0
 662 253.333007812 627.833007812 170.833007812 559.5 102.5 c 0
 491.166992188 34.1669921875 408.666992188 0 312 0 c 2
 178 0 l 2
 169.333007812 0 165 4.3330078125 165 13 c 2
190 25 m 1
 312 25 l 1
 402 26.3330078125 478.5 58.5 541.5 121.5 c 0
 604.5 184.5 636.333007812 261 637 351 c 1
 636.333007812 440.333007812 604.5 516.666992188 541.5 580 c 0
 478.5 643.333007812 402 675 312 675 c 2
 190 675 l 1
 190 363 l 1
 293 363 l 2
 299 363 302 359.666992188 302 353 c 0
 302 346.333007812 299 343 293 343 c 2
 190 343 l 1
 190 25 l 1
EndSplineSet
EndChar

StartChar: multiply
Encoding: 215 215 159
Width: 620
Flags: MW
HStem: 142 21G<120.667 127.333 491.333 498.667> 542 20G<121.333 128.667 492.667 499.333>
LayerCount: 2
Fore
SplineSet
512 520 m 2
 343 353 l 1
 511 187 l 2
 517 181 520 174.333007812 520 167 c 0
 520 159.666992188 517.666992188 153.666992188 513 149 c 0
 508.333007812 144.333007812 502.333007812 142 495 142 c 0
 487.666992188 142 481 145 475 151 c 2
 309 319 l 1
 142 150 l 2
 136.666992188 144.666992188 130.666992188 142 124 142 c 0
 117.333007812 142 111.666992188 144.333007812 107 149 c 0
 102.333007812 153.666992188 100 159.333007812 100 166 c 0
 100 172.666992188 102.666992188 178.666992188 108 184 c 2
 277 351 l 1
 109 517 l 2
 103 523 100 529.666992188 100 537 c 0
 100 544.333007812 102.333007812 550.333007812 107 555 c 0
 111.666992188 559.666992188 117.666992188 562 125 562 c 0
 132.333007812 562 139 559 145 553 c 2
 311 385 l 1
 478 554 l 2
 483.333007812 559.333007812 489.333007812 562 496 562 c 0
 502.666992188 562 508.333007812 559.666992188 513 555 c 0
 517.666992188 550.333007812 520 544.666992188 520 538 c 0
 520 531.333007812 517.333007812 525.333007812 512 520 c 2
EndSplineSet
EndChar

StartChar: guilsinglright
Encoding: 271 8250 160
Width: 311
Flags: MW
HStem: 46 21G<83.6665 91.3335>
LayerCount: 2
Fore
SplineSet
76 450 m 0
 76.6669921875 455.333007812 81 458.666992188 89 460 c 0
 97 461.333007812 102.333007812 460 105 456 c 2
 242 277 l 2
 248.666992188 268.333007812 252 261 252 255 c 0
 252 249 248.666992188 241.666992188 242 233 c 2
 105 55 l 2
 101 49 95.1669921875 46 87.5 46 c 0
 79.8330078125 46 75.1669921875 47.8330078125 73.5 51.5 c 0
 70.2255859375 58.7041015625 72.392578125 66.8701171875 80 76 c 2
 221 254 l 1
 80 434 l 2
 76.6669921875 438 75.3330078125 443.333007812 76 450 c 0
EndSplineSet
EndChar

StartChar: asciicircum
Encoding: 94 94 161
Width: 500
Flags: MW
HStem: 329 20G<285 291>
LayerCount: 2
Fore
SplineSet
93 173 m 0
 87.6669921875 173.666992188 84.3330078125 178 83 186 c 0
 81.6669921875 194 83 199.333007812 87 202 c 2
 266 339 l 2
 274.666992188 345.666992188 282 349 288 349 c 0
 294 349 301.333007812 345.666992188 310 339 c 2
 488 202 l 2
 494 198 497 192.166992188 497 184.5 c 0
 497 176.833007812 495.166992188 172.166992188 491.5 170.5 c 0
 484.295898438 167.225585938 476.129882812 169.392578125 467 177 c 2
 289 318 l 1
 109 177 l 2
 105 173.666992188 99.6669921875 172.333007812 93 173 c 0
EndSplineSet
EndChar

StartChar: guilsinglleft
Encoding: 272 8249 162
Width: 311
Flags: MW
HStem: 46 21G<215.667 223.333>
LayerCount: 2
Fore
SplineSet
231 450 m 0
 231.666992188 443.333007812 230.333007812 438 227 434 c 2
 86 254 l 1
 227 76 l 2
 234.607421875 66.8701171875 237.176757812 59.587890625 234.706054688 54.1533203125 c 0
 232.235351562 48.7177734375 227.166992188 46 219.5 46 c 0
 211.833007812 46 206 49 202 55 c 2
 65 233 l 2
 58.3330078125 241.666992188 55 249 55 255 c 0
 55 261 58.3330078125 268.333007812 65 277 c 2
 202 456 l 2
 204.666992188 460 210 461.333007812 218 460 c 0
 226 458.666992188 230.333007812 455.333007812 231 450 c 0
EndSplineSet
EndChar

StartChar: endash
Encoding: 273 8211 163
Width: 528
Flags: MW
HStem: 280 37<92 436 92 436>
LayerCount: 2
Fore
SplineSet
92 280 m 2
 83.3330078125 279.333007812 76.8330078125 280.833007812 72.5 284.5 c 0
 68.1669921875 288.166992188 66 292.333007812 66 297 c 0
 66 310.333007812 74.6669921875 317 92 317 c 2
 436 317 l 2
 453.333007812 317 462 310.333007812 462 297 c 0
 462 285.666992188 453.333007812 280 436 280 c 2
 92 280 l 2
EndSplineSet
EndChar

StartChar: emdash
Encoding: 274 8212 164
Width: 898
Flags: MW
HStem: 280 37<92 521 92 521>
LayerCount: 2
Fore
SplineSet
92 280 m 2
 83.3330078125 279.333007812 76.8330078125 280.833007812 72.5 284.5 c 0
 68.1669921875 288.166992188 66 292.333007812 66 297 c 0
 66 310.333007812 74.6669921875 317 92 317 c 2
 521 317 l 2
 538.333007812 317 547 310.333007812 547 297 c 0
 547 285.666992188 538.333007812 280 521 280 c 2
 92 280 l 2
EndSplineSet
EndChar

StartChar: cent
Encoding: 162 162 165
Width: 581
Flags: W
HStem: -11 21G<155.667 161.333> 0 25<296.333 342> 464 25<281.667 322.333>
VStem: 62 25<226.333 274.333 226.333 277.667>
LayerCount: 2
Fore
SplineSet
167 -3 m 1x70
 167 -8.3330078125 164.166992188 -11 158.5 -11 c 0xb0
 152.833007812 -11 148.666992188 -9.1669921875 146 -5.5 c 0
 143.333007812 -1.8330078125 143 2 145 6 c 2
 166 47 l 1
 134 69.6669921875 108.666992188 98.3330078125 90 133 c 0
 71.3330078125 167.666992188 62 204.666992188 62 244 c 0
 62 311.333007812 86.5 369 135.5 417 c 0
 184.5 465 243.666992188 489 313 489 c 0
 334.333007812 489 357.333007812 485.666992188 382 479 c 1
 402 518 l 2
 403.333007812 521.333007812 405.666992188 523.666992188 409 525 c 0
 412.333007812 526.333007812 415.5 526.5 418.5 525.5 c 0
 421.5 524.5 423.833007812 522.333007812 425.5 519 c 0
 427.166992188 515.666992188 427.666992188 512.666992188 427 510 c 2
 407 471 l 1
 427.666992188 463 448.333007812 451.333007812 469 436 c 1
 474.333007812 430.666992188 474.833007812 424.833007812 470.5 418.5 c 0
 466.166992188 412.166992188 460.333007812 411.333007812 453 416 c 0
 433.666992188 430 414.666992188 440.666992188 396 448 c 1
 197 56 l 1
 232.333007812 35.3330078125 273.166992188 25 319.5 25 c 0
 365.833007812 25 410.333007812 41.3330078125 453 74 c 0
 459 78 464.5 76.8330078125 469.5 70.5 c 0
 474.5 64.1669921875 474.333007812 58.3330078125 469 53 c 0
 423 17.6669921875 371 0 313 0 c 0
 268.333007812 0 226 11.3330078125 186 34 c 1
 167 -3 l 1x70
313 464 m 0
 250.333007812 464 197 442.5 153 399.5 c 0
 109 356.5 87 304.666992188 87 244 c 0
 87 208.666992188 95 175.666992188 111 145 c 0
 127 114.333007812 149 89 177 69 c 1
 371 456 l 1
 351 461.333007812 331.666992188 464 313 464 c 0
EndSplineSet
EndChar

StartChar: cedilla
Encoding: 184 184 167
Width: 500
Flags: MW
HStem: -142 21G<201.333 210.667> -10 20G<252 295 295 295>
LayerCount: 2
Fore
SplineSet
295 10 m 1
 230 -122 l 2
 223.333007812 -135.333007812 215.333007812 -142 206 -142 c 0
 196.666992188 -142 188.333007812 -139.333007812 181 -134 c 0
 173.666992188 -128.666992188 170 -123.666992188 170 -119 c 0
 170 -114.333007812 171.666992188 -109 175 -103 c 2
 252 10 l 1
 295 10 l 1
EndSplineSet
EndChar

StartChar: ccedilla
Encoding: 231 231 169
Width: 571
Flags: W
HStem: -142 167<242.333 335.333> 0 25<310 335.333 278.333 339> 465 25<272.667 330.333>
VStem: 58 25<214.667 275.333 214.667 278.667>
LayerCount: 2
Fore
SplineSet
58 245 m 0x70
 58 312.333007812 82.6669921875 370 132 418 c 0
 181.333007812 466 238.166992188 490 302.5 490 c 0
 366.833007812 490 421.333007812 472.333007812 466 437 c 0
 471.333007812 431.666992188 471.833007812 425.833007812 467.5 419.5 c 0
 463.166992188 413.166992188 457.333007812 412.333007812 450 417 c 0
 408.666992188 449 359.166992188 465 301.5 465 c 0
 243.833007812 465 193 443.5 149 400.5 c 0
 105 357.5 83 305.666992188 83 245 c 0
 83 184.333007812 105 132.5 149 89.5 c 0
 193 46.5 246.666992188 25 310 25 c 0
 360.666992188 25 407.333007812 41.3330078125 450 74 c 0
 456 78 461.5 76.8330078125 466.5 70.5 c 0
 471.5 64.1669921875 471.333007812 58.3330078125 466 53 c 0
 420 17.6669921875 368 0 310 0 c 0
 240.666992188 0.6669921875 181.333007812 24.8330078125 132 72.5 c 0
 82.6669921875 120.166992188 58 177.666992188 58 245 c 0x70
336 10 m 1
 271 -122 l 2
 264.333007812 -135.333007812 256.333007812 -142 247 -142 c 0xb0
 237.666992188 -142 229.333007812 -139.333007812 222 -134 c 0
 214.666992188 -128.666992188 211 -123.666992188 211 -119 c 0
 211 -114.333007812 212.666992188 -109 216 -103 c 2
 293 10 l 1
 336 10 l 1
EndSplineSet
EndChar

StartChar: germandbls
Encoding: 223 223 170
Width: 620
Flags: W
HStem: -4 21G<102.667 113.333> -2 37<307 307> 708 29<309 309>
VStem: 94 32<12 20 20 500> 481 32<537.667 560 560 562 537.667 581> 522 36<186 186>
LayerCount: 2
Fore
SplineSet
107 -4 m 0xbc
 98.3330078125 -4 94 0.6669921875 94 10 c 2
 94 500 l 2
 94 570.666992188 114.333007812 628.333007812 155 673 c 0
 195.666992188 717.666992188 247.166992188 739 309.5 737 c 0
 371.833007812 735 421.333007812 717.666992188 458 685 c 0
 494.666992188 652.333007812 513 611.333007812 513 562 c 2
 513 560 l 2
 513 515.333007812 495.833007812 476.666992188 461.5 444 c 0
 427.166992188 411.333007812 386.666992188 386.666992188 340 370 c 1
 400.666992188 359.333007812 452.333007812 339 495 309 c 0
 537.666992188 279 558.666992188 237.666992188 558 185 c 0
 557.333007812 132.333007812 533.5 88.6669921875 486.5 54 c 0
 439.5 19.3330078125 379.666992188 0.6669921875 307 -2 c 0
 293 -2 286 3.3330078125 286 14 c 0
 286 26.6669921875 292.666992188 33.6669921875 306 35 c 0x7c
 367.333007812 38.3330078125 418.666992188 53.3330078125 460 80 c 0
 501.333007812 106.666992188 522 142 522 186 c 0
 522 230 501.833007812 264.5 461.5 289.5 c 0
 421.166992188 314.5 371 331 311 339 c 0
 294.333007812 341 286 349 286 363 c 0
 286 375 292.666992188 383.333007812 306 388 c 0
 422.666992188 428.666992188 481 486.666992188 481 562 c 0
 481 600 464 633.833007812 430 663.5 c 0
 396 693.166992188 355.666992188 708 309 708 c 0
 262.333007812 708 220.166992188 687.666992188 182.5 647 c 0
 144.833007812 606.333007812 126 557.333007812 126 500 c 2
 126 20 l 2
 126 4 119.666992188 -4 107 -4 c 0xbc
EndSplineSet
EndChar

StartChar: florin
Encoding: 275 402 171
Width: 506
Flags: MW
HStem: -1 21G<83.6665 111.333> 393 27<120.333 226 128 218 260 396 128 252> 685 20G<381.333 427.667>
LayerCount: 2
Fore
SplineSet
300.5 672 m 0
 323.5 694 358.166992188 705 404.5 705 c 0
 450.833007812 705 474 697 474 681 c 0
 474 677.444335938 473.333007812 675.22265625 472 674.333007812 c 0
 470.666992188 673.444335938 469.666992188 672.666992188 469 672 c 0
 468.333007812 671.333007812 467.166992188 671 465.5 671 c 2
 452 671 l 2
 464.356445312 671 462.4609375 671.771484375 446.31640625 673.313476562 c 2
 400 677 l 1
 370.666992188 681 345.833007812 672.166992188 325.5 650.5 c 0
 305.166992188 628.833007812 291.666992188 599.333007812 285 562 c 2
 260 420 l 1
 396 420 l 2
 411.333007812 420 419 415.5 419 406.5 c 0
 419 397.5 411.333007812 393 396 393 c 2
 252 393 l 1
 202 118 l 1
 193.333007812 76 180.666992188 45.6669921875 164 27 c 0
 147.333007812 8.3330078125 125.166992188 -1 97.5 -1 c 0
 69.8330078125 -1 56 4.6669921875 56 16 c 0
 56 21.9169921875 57.8330078125 25.5625 61.5 26.9375 c 0
 65.1669921875 28.3125 68 29.1669921875 70 29.5 c 0
 76 30.5 83 31 91 31 c 0
 115.666992188 33.6669921875 133.5 41.8330078125 144.5 55.5 c 0
 155.5 69.1669921875 163.666992188 91 169 121 c 2
 218 393 l 1
 128 393 l 2
 112.666992188 393 105 397.5 105 406.5 c 0
 105 415.5 112.666992188 420 128 420 c 2
 226 420 l 1
 252 565 l 2
 261.333007812 614.333007812 277.5 650 300.5 672 c 0
EndSplineSet
EndChar

StartChar: Adieresis
Encoding: 196 196 172
Width: 663
Flags: W
HStem: 2 21G<70 73> 3 21G<65 65.3335 581.667 582> 190 26<158 158 158 488> 680 20G 803 68<227.333 236.667 409.333 418.667>
VStem: 198 67<832.333 841.667> 380 68<832.333 841.667>
LayerCount: 2
Fore
SplineSet
65 3 m 0x7e
 65.6669921875 3 67.3330078125 2.6669921875 70 2 c 0xbe
 76 2 79.6669921875 5 81 11 c 2
 148 190 l 1
 498 190 l 1
 565 11 l 1
 568.333007812 5 571.833007812 2.1669921875 575.5 2.5 c 0
 579.166992188 2.8330078125 581.333007812 3 582 3 c 0
 590 7 592.333007812 12.6669921875 589 20 c 2
 337 692 l 1
 333.666992188 697.333007812 329 700.333007812 323 701 c 0
 317 701.666992188 313 698.666992188 311 692 c 2
 59 20 l 2
 55.6669921875 12 57.6669921875 6.3330078125 65 3 c 0x7e
158 216 m 1
 323 654 l 1
 488 216 l 1
 158 216 l 1
198 837 m 0
 198 846.333007812 201.333007812 854.333007812 208 861 c 0
 214.666992188 867.666992188 222.666992188 871 232 871 c 0
 241.333007812 871 249.166992188 867.666992188 255.5 861 c 0
 261.833007812 854.333007812 265 846.333007812 265 837 c 0
 265 827.666992188 261.833007812 819.666992188 255.5 813 c 0
 249.166992188 806.333007812 241.333007812 803 232 803 c 0
 222.666992188 803 214.666992188 806.333007812 208 813 c 0
 201.333007812 819.666992188 198 827.666992188 198 837 c 0
380 837 m 0
 380 846.333007812 383.333007812 854.333007812 390 861 c 0
 396.666992188 867.666992188 404.666992188 871 414 871 c 0
 423.333007812 871 431.333007812 867.666992188 438 861 c 0
 444.666992188 854.333007812 448 846.333007812 448 837 c 0
 448 827.666992188 444.666992188 819.666992188 438 813 c 0
 431.333007812 806.333007812 423.333007812 803 414 803 c 0
 404.666992188 803 396.666992188 806.333007812 390 813 c 0
 383.333007812 819.666992188 380 827.666992188 380 837 c 0
EndSplineSet
EndChar

StartChar: Edieresis
Encoding: 203 203 173
Width: 670
Flags: MW
HStem: 0 25<129 489 129 489 129 493> 338 25<129 446 129 450> 675 25<129 489 116 493> 803 68<205.333 214.667 387.333 396.667>
VStem: 104 25<8.6665 338 25 338 363 675> 243 115<832.333 841.667>
LayerCount: 2
Fore
SplineSet
116 0 m 2
 489 0 l 2
 497 0 501 4.1669921875 501 12.5 c 0
 501 20.8330078125 497 25 489 25 c 2
 129 25 l 1
 129 338 l 1
 446 338 l 2
 454 338 458 342.166992188 458 350.5 c 0
 458 358.833007812 454 363 446 363 c 2
 129 363 l 1
 129 675 l 1
 489 675 l 2
 497 675 501 679.166992188 501 687.5 c 0
 501 695.833007812 497 700 489 700 c 2
 116 700 l 1
 108 698.666992188 104 694.333007812 104 687 c 2
 104 13 l 2
 104 4.3330078125 108 0 116 0 c 2
176 837 m 0
 176 846.333007812 179.333007812 854.333007812 186 861 c 0
 192.666992188 867.666992188 200.666992188 871 210 871 c 0
 219.333007812 871 227.166992188 867.666992188 233.5 861 c 0
 239.833007812 854.333007812 243 846.333007812 243 837 c 0
 243 827.666992188 239.833007812 819.666992188 233.5 813 c 0
 227.166992188 806.333007812 219.333007812 803 210 803 c 0
 200.666992188 803 192.666992188 806.333007812 186 813 c 0
 179.333007812 819.666992188 176 827.666992188 176 837 c 0
358 837 m 0
 358 846.333007812 361.333007812 854.333007812 368 861 c 0
 374.666992188 867.666992188 382.666992188 871 392 871 c 0
 401.333007812 871 409.333007812 867.666992188 416 861 c 0
 422.666992188 854.333007812 426 846.333007812 426 837 c 0
 426 827.666992188 422.666992188 819.666992188 416 813 c 0
 409.333007812 806.333007812 401.333007812 803 392 803 c 0
 382.666992188 803 374.666992188 806.333007812 368 813 c 0
 361.333007812 819.666992188 358 827.666992188 358 837 c 0
EndSplineSet
EndChar

StartChar: Idieresis
Encoding: 207 207 174
Width: 274
Flags: MW
HStem: 0 21G<113.333 121.667> 680 20G<113.333 121.667> 803 68<21.3335 30.6665 203.333 212.667>
VStem: -8 67<832.333 841.667> 174 68<832.333 841.667>
LayerCount: 2
Fore
SplineSet
105 13 m 2
 105 4.3330078125 109.166992188 0 117.5 0 c 0
 125.833007812 0 130 4.3330078125 130 13 c 2
 130 687 l 2
 130 695.666992188 125.833007812 700 117.5 700 c 0
 109.166992188 700 105 695.666992188 105 687 c 2
 105 13 l 2
-8 837 m 0
 -8 846.333007812 -4.6669921875 854.333007812 2 861 c 0
 8.6669921875 867.666992188 16.6669921875 871 26 871 c 0
 35.3330078125 871 43.1669921875 867.666992188 49.5 861 c 0
 55.8330078125 854.333007812 59 846.333007812 59 837 c 0
 59 827.666992188 55.8330078125 819.666992188 49.5 813 c 0
 43.1669921875 806.333007812 35.3330078125 803 26 803 c 0
 16.6669921875 803 8.6669921875 806.333007812 2 813 c 0
 -4.6669921875 819.666992188 -8 827.666992188 -8 837 c 0
174 837 m 0
 174 846.333007812 177.333007812 854.333007812 184 861 c 0
 190.666992188 867.666992188 198.666992188 871 208 871 c 0
 217.333007812 871 225.333007812 867.666992188 232 861 c 0
 238.666992188 854.333007812 242 846.333007812 242 837 c 0
 242 827.666992188 238.666992188 819.666992188 232 813 c 0
 225.333007812 806.333007812 217.333007812 803 208 803 c 0
 198.666992188 803 190.666992188 806.333007812 184 813 c 0
 177.333007812 819.666992188 174 827.666992188 174 837 c 0
EndSplineSet
EndChar

